<svg width="800" height="600" viewBox="0 0 800 600" fill="none" xmlns="http://www.w3.org/2000/svg">
<path d="M111.86 449.42C111.86 449.42 89.7601 437.79 82.1001 420.86C74.4401 403.93 81.9201 380.21 79.6201 372.25C93.7601 387.2 102.45 391.54 108.63 408.79C114.81 426.03 113.02 444.57 111.86 449.42ZM135.15 477.64C135.15 477.64 112.4 495.67 88.4601 478.26C71.7201 464.16 60.5801 444.92 60.5801 444.92C60.5801 444.92 87.4901 448.55 100.95 451.72C114.41 454.9 130.32 470.47 135.15 477.64ZM704.07 449.42C704.07 449.42 726.17 437.79 733.83 420.86C741.49 403.93 734.01 380.21 736.31 372.25C722.17 387.2 713.48 391.54 707.3 408.79C701.12 426.03 702.92 444.57 704.07 449.42ZM680.78 477.64C680.78 477.64 703.53 495.67 727.47 478.26C744.21 464.16 755.35 444.92 755.35 444.92C755.35 444.92 728.44 448.55 714.98 451.72C701.52 454.9 685.61 470.47 680.78 477.64Z" fill="#00759F"/>
<path d="M220.07 544.459C220.07 544.459 197.6 563.859 139.6 549.219C97.33 538.549 62.5 496.809 62.5 496.809C62.5 496.809 145.48 465.389 220.07 544.459Z" fill="#00759F"/>
<path d="M218.19 547.071C218.19 547.071 173.51 541.871 130.41 462.141C98.9899 404.031 109.88 322.381 109.88 322.381C109.88 322.381 229.99 382.791 218.19 547.071Z" fill="#741AAC"/>
<path d="M216.48 545.429C216.48 545.429 180.94 517.849 185.32 427.329C188.51 361.349 240.09 297.119 240.09 297.119C240.09 297.119 311.6 410.969 216.48 545.429Z" fill="#741AAC"/>
<path d="M592.61 541.09C592.61 541.09 614.8 560.25 672.08 545.79C713.83 535.25 748.22 494.04 748.22 494.04C748.22 494.04 666.28 463 592.61 541.09Z" fill="#00759F"/>
<path d="M595.87 547.071C595.87 547.071 640.55 541.871 683.65 462.141C715.07 404.031 704.18 322.381 704.18 322.381C704.18 322.381 584.07 382.791 595.87 547.071Z" fill="#741AAC"/>
<path d="M597.58 545.429C597.58 545.429 633.12 517.849 628.74 427.329C625.54 361.349 573.97 297.119 573.97 297.119C573.97 297.119 502.46 410.969 597.58 545.429Z" fill="#741AAC"/>
<path d="M711.33 311.78C711.33 145.33 576.4 10.4004 409.95 10.4004C243.5 10.4004 108.57 145.33 108.57 311.78C108.57 406.73 152.49 491.4 221.11 546.64H598.8C667.4 491.4 711.33 406.73 711.33 311.78Z" fill="url(#paint0_linear_4212_263)"/>
<path d="M375.43 103.151C375.43 103.811 374.9 104.341 374.24 104.341C373.58 104.341 373.05 103.811 373.05 103.151C373.05 102.491 373.58 101.961 374.24 101.961C374.9 101.961 375.43 102.501 375.43 103.151ZM460.43 176.611C460.43 177.271 459.9 177.801 459.24 177.801C458.58 177.801 458.05 177.271 458.05 176.611C458.05 175.951 458.58 175.421 459.24 175.421C459.9 175.421 460.43 175.951 460.43 176.611ZM318.86 194.891C318.86 195.551 318.33 196.081 317.67 196.081C317.01 196.081 316.48 195.551 316.48 194.891C316.48 194.231 317.01 193.701 317.67 193.701C318.33 193.701 318.86 194.231 318.86 194.891ZM228.89 180.521C228.89 181.181 228.36 181.711 227.7 181.711C227.04 181.711 226.51 181.181 226.51 180.521C226.51 179.861 227.04 179.331 227.7 179.331C228.35 179.331 228.89 179.861 228.89 180.521ZM577.48 252.891C577.48 253.551 576.95 254.081 576.29 254.081C575.63 254.081 575.1 253.551 575.1 252.891C575.1 252.231 575.63 251.701 576.29 251.701C576.95 251.701 577.48 252.231 577.48 252.891Z" fill="white"/>
<path d="M581.38 173.68L582.64 176.24L585.47 176.65L583.42 178.65L583.91 181.47L581.38 180.14L578.84 181.47L579.33 178.65L577.28 176.65L580.11 176.24L581.38 173.68Z" fill="#619FFF"/>
<path d="M288.15 69.5293L289.73 72.7393L293.27 73.2493L290.71 75.7493L291.31 79.2693L288.15 77.6093L284.98 79.2693L285.59 75.7493L283.03 73.2493L286.57 72.7393L288.15 69.5293ZM642.65 226.449L644.23 229.649L647.77 230.169L645.21 232.659L645.82 236.189L642.65 234.519L639.49 236.189L640.09 232.659L637.53 230.169L641.07 229.649L642.65 226.449Z" fill="#90C9FF"/>
<path d="M175.85 221.11C178.164 221.11 180.04 219.235 180.04 216.92C180.04 214.606 178.164 212.73 175.85 212.73C173.536 212.73 171.66 214.606 171.66 216.92C171.66 219.235 173.536 221.11 175.85 221.11Z" fill="#90C9FF"/>
<path d="M493.91 127.919C510.15 144.239 536.55 144.309 552.87 128.069C569.19 111.829 569.26 85.4391 553.02 69.1191C536.78 52.7991 510.39 52.7291 494.06 68.9691C477.75 85.1991 477.68 111.589 493.91 127.919Z" fill="url(#paint1_linear_4212_263)"/>
<path d="M573.16 415.18C572.87 412.71 587.03 363.46 602.78 341.55C618.53 319.64 636.24 279.15 636.24 279.15C636.24 279.15 642.2 315.16 625.82 338.81C609.44 362.46 602.49 374.14 602.49 374.14C602.49 374.14 613.93 351.08 641.28 349.49C668.63 347.9 661.6 372.94 661.6 372.94C661.6 372.94 631.42 329.8 568.78 427.39" fill="url(#paint2_linear_4212_263)"/>
<path d="M535.73 462.95C535.73 462.95 492.73 472.96 463.61 455.13C434.5 437.31 415.41 412.02 415.41 412.02C415.41 412.02 447.94 401.07 468.91 405.41C489.88 409.74 508.23 433.47 508.28 431.56C508.33 429.64 485.91 399.3 484.09 379.34C482.27 359.37 491.75 321.98 491.75 321.98C491.75 321.98 519.36 343.25 526.24 359.89C533.12 376.53 538.47 412.44 538.47 412.44C538.47 412.44 534.81 381.03 547.54 354.97C560.27 328.91 592.62 307.84 592.62 307.84C592.62 307.84 604.65 340.36 594.77 372.08C584.89 403.8 562.01 424.66 562.01 424.66C562.01 424.66 593.67 401.81 613.21 398.68C632.75 395.55 659.85 412.52 659.85 412.52C659.85 412.52 632.14 443.35 610.7 448.89C589.27 454.43 567.72 451.59 567.72 451.59C567.72 451.59 597.45 452.1 614.94 463.94C632.43 475.77 647.33 500.19 647.33 500.19C647.33 500.19 605.91 505.1 579.79 491.83C553.67 478.55 535.73 462.95 535.73 462.95Z" fill="url(#paint3_linear_4212_263)"/>
<path d="M576.67 452.23C571.31 451.66 567.72 451.59 567.72 451.59C567.72 451.59 571.18 452.03 576.67 452.23Z" fill="url(#paint4_linear_4212_263)"/>
<path d="M498.02 344.959C498.02 344.959 503.29 414.609 536.07 451.909C531.49 441.479 519.2 423.589 512.38 398.829C505.56 374.069 498.02 344.959 498.02 344.959Z" fill="url(#paint5_linear_4212_263)"/>
<path d="M535.18 454.83C535.18 454.83 473.54 436.97 449.72 425.88C432.03 418.16 423.79 414.23 423.79 414.23C423.79 414.23 437.15 425.12 475.3 439.83C513.46 454.55 535.18 454.83 535.18 454.83Z" fill="url(#paint6_linear_4212_263)"/>
<path d="M542.9 456.17C542.9 456.17 580.7 466.21 612.5 482.5C627.54 490.33 637 495.96 637 495.96C637 495.96 611.2 484.4 593.43 477.35C575.67 470.29 542.9 456.17 542.9 456.17Z" fill="url(#paint7_linear_4212_263)"/>
<path d="M250.14 395.059C250.43 392.589 236.27 343.339 220.52 321.429C204.77 299.519 187.06 259.029 187.06 259.029C187.06 259.029 181.1 295.039 197.48 318.689C213.86 342.339 220.81 354.019 220.81 354.019C220.81 354.019 209.37 330.959 182.02 329.369C154.67 327.779 161.7 352.819 161.7 352.819C161.7 352.819 191.88 309.679 254.52 407.269" fill="url(#paint8_linear_4212_263)"/>
<path d="M550.67 288.471C550.67 288.471 532.97 314.981 521.89 353.511C510.81 392.041 515.21 435.281 515.21 435.281" stroke="black" stroke-width="2.31" stroke-miterlimit="10"/>
<path d="M544.29 332.661C544.29 332.661 530.07 337.191 524.95 343.641C525.11 336.551 527.27 310.871 527.27 310.871M535.28 373.791C535.28 373.791 521.6 376.101 516.33 381.211C513.04 373.541 509.98 353.551 509.98 353.551M522.8 408.881C522.8 408.881 516.86 412.401 514.34 415.711C509.89 409.021 498.09 396.531 498.09 396.531" stroke="black" stroke-width="2.31" stroke-miterlimit="10"/>
<path d="M548.51 290.94C548.51 290.94 565.92 290.42 573.51 278.4C581.1 266.38 582.62 255.91 582.62 255.91C582.62 255.91 566.52 258.35 557.04 266.8C547.56 275.25 548.51 290.94 548.51 290.94ZM544.29 332.66C544.29 332.66 553.8 317.9 566.7 311.81C578.11 307.21 593.75 315.75 593.75 315.75C593.75 315.75 591.86 327.39 574.4 333.97C562.77 338.35 550.95 335.44 544.29 332.66ZM510.87 357.05C510.87 357.05 516.96 332.29 505.55 322.53C494.15 312.77 489.7 310.47 489.7 310.47C489.7 310.47 485.17 329.62 490.17 339.97C495.17 350.3 510.87 357.05 510.87 357.05ZM531.85 374.37C531.85 374.37 546.92 359.91 558.19 359.9C569.47 359.88 581.15 364.93 581.15 364.93C581.15 364.93 574.08 379.36 556.59 379.79C539.09 380.21 531.85 374.37 531.85 374.37ZM500.12 398.62C500.12 398.62 497.05 379.45 482.69 375.65C470.47 372.64 465.23 375.46 465.23 375.46C465.23 375.46 465.82 384.84 473.01 392.69C480.21 400.53 500.12 398.62 500.12 398.62ZM521.04 409.92C521.04 409.92 524.03 398.79 533.47 395.91C543.23 393.09 551.6 398.12 551.6 398.12C551.6 398.12 550.38 409.74 539.44 412.41C528.5 415.08 521.04 409.92 521.04 409.92ZM527.83 312.81C527.83 312.81 534.24 294.61 530.22 285.81C526.2 277 517.38 273.09 517.38 273.09C517.38 273.09 510.53 283.26 513.01 293.05C515.48 302.84 527.83 312.81 527.83 312.81Z" fill="#00759F"/>
<path d="M247.95 292.459C247.95 292.459 272.8 312.419 294.95 345.839C317.1 379.259 325.91 421.819 325.91 421.819" stroke="black" stroke-width="2.31" stroke-miterlimit="10"/>
<path d="M267.31 332.679C267.31 332.679 282.24 332.719 289.06 337.339C286.78 330.619 277 306.779 277 306.779M288.27 369.199C288.27 369.199 302.02 367.289 308.57 370.579C309.4 362.279 306.31 342.289 306.31 342.289M310.72 398.909C310.72 398.909 317.44 400.479 320.84 402.879C323.08 395.159 330.57 379.699 330.57 379.699" stroke="black" stroke-width="2.31" stroke-miterlimit="10"/>
<path d="M250.75 294.159C250.75 294.159 233.98 298.899 223.14 289.709C212.29 280.519 207.69 270.999 207.69 270.999C207.69 270.999 223.78 268.479 235.36 273.699C246.94 278.909 250.75 294.159 250.75 294.159ZM267.31 332.679C267.31 332.679 253.8 321.459 239.67 319.529C227.4 318.569 215.06 331.419 215.06 331.419C215.06 331.419 220.36 341.949 238.99 342.979C251.4 343.659 261.8 337.329 267.31 332.679ZM306.52 345.889C306.52 345.889 293.27 324.109 301.21 311.359C309.15 298.619 312.71 295.089 312.71 295.089C312.71 295.089 322.79 311.999 321.13 323.369C319.46 334.739 306.52 345.889 306.52 345.889ZM291.72 368.719C291.72 368.719 273 359.459 262.24 362.839C251.48 366.219 241.85 374.539 241.85 374.539C241.85 374.539 252.93 386.179 269.75 381.329C286.57 376.479 291.72 368.719 291.72 368.719ZM329.28 382.309C329.28 382.309 326.44 363.099 338.99 355.159C349.74 348.609 355.59 349.729 355.59 349.729C355.59 349.729 357.85 358.849 353.35 368.499C348.84 378.149 329.28 382.309 329.28 382.309ZM312.71 399.379C312.71 399.379 306.51 389.659 296.65 389.749C286.5 389.999 280.03 397.299 280.03 397.299C280.03 397.299 284.69 408.019 295.92 407.279C307.15 406.539 312.71 399.379 312.71 399.379ZM277.05 308.809C277.05 308.809 265.47 293.379 266.65 283.769C267.83 274.159 275.08 267.779 275.08 267.779C275.08 267.779 284.67 275.419 285.25 285.499C285.83 295.579 277.05 308.809 277.05 308.809Z" fill="#00759F"/>
<path d="M514.94 549.989C514.94 549.989 477.78 573.829 444.37 566.799C410.97 559.769 384.51 542.339 384.51 542.339C384.51 542.339 411.49 521.129 432.7 518.179C453.91 515.229 479.16 531.439 478.56 529.619C477.96 527.799 446.67 506.729 438.26 488.529C429.85 470.329 426.25 431.919 426.25 431.919C426.25 431.919 459.39 442.709 471.45 456.079C483.51 469.449 500.59 501.489 500.59 501.489C500.59 501.489 486.61 473.119 489.87 444.299C493.13 415.479 516.55 384.779 516.55 384.779C516.55 384.779 538.79 411.389 540.11 444.579C541.44 477.779 526.87 505.099 526.87 505.099C526.87 505.099 549.04 472.959 566.4 463.459C583.76 453.959 614.98 460.859 614.98 460.859C614.98 460.859 599.2 499.199 580.86 511.599C562.52 524.009 541.27 528.549 541.27 528.549C541.27 528.549 569.45 519.069 589.9 524.349C610.35 529.639 632.57 547.649 632.57 547.649C632.57 547.649 595.19 566.159 566.14 562.409C537.07 558.669 514.94 549.989 514.94 549.989Z" fill="url(#paint9_linear_4212_263)"/>
<path d="M549.91 526.16C544.67 527.42 541.26 528.55 541.26 528.55C541.26 528.55 544.68 527.82 549.91 526.16Z" fill="url(#paint10_linear_4212_263)"/>
<path d="M439.86 451.459C439.86 451.459 468.17 515.319 511.56 539.469C503.75 531.169 486.17 518.439 471.45 497.399C456.72 476.359 439.86 451.459 439.86 451.459Z" fill="url(#paint11_linear_4212_263)"/>
<path d="M511.7 542.529C511.7 542.529 447.64 546.369 421.48 543.899C402.23 542.549 393.15 541.609 393.15 541.609C393.15 541.609 409.39 547.399 450.27 548.459C491.14 549.529 511.7 542.529 511.7 542.529Z" fill="url(#paint12_linear_4212_263)"/>
<path d="M296.7 460.14C296.7 460.14 337.6 443.52 351.11 412.17C364.62 380.82 365.64 349.16 365.64 349.16C365.64 349.16 332.75 358.97 318.12 374.61C303.49 390.24 302.17 420.21 301.03 418.67C299.89 417.13 300.71 379.42 290.68 362.05C280.65 344.69 251.35 319.6 251.35 319.6C251.35 319.6 241.06 352.9 245.03 370.46C249 388.02 265.34 420.45 265.34 420.45C265.34 420.45 250.22 392.67 224.79 378.72C199.36 364.77 160.78 366.2 160.78 366.2C160.78 366.2 169.7 399.71 196.06 419.93C222.42 440.15 253.14 444 253.14 444C253.14 444 214.1 443.59 196.33 452.29C178.56 461 166.2 490.49 166.2 490.49C166.2 490.49 206.62 499.7 227.33 491.87C248.04 484.04 264 469.3 264 469.3C264 469.3 240.01 486.85 232.54 506.61C225.07 526.37 226.98 554.9 226.98 554.9C226.98 554.9 263.65 535.03 277.34 509.13C291.04 483.23 296.7 460.14 296.7 460.14Z" fill="url(#paint13_linear_4212_263)"/>
<path d="M257.07 474.979C261.13 471.429 264.01 469.299 264.01 469.299C264.01 469.299 261.44 471.659 257.07 474.979Z" fill="url(#paint14_linear_4212_263)"/>
<path d="M331.78 548.381C331.78 548.381 370.93 568.791 403.57 558.791C436.21 548.791 461 529.061 461 529.061C461 529.061 432.23 510.351 410.84 509.321C389.45 508.291 365.76 526.691 366.19 524.821C366.62 522.951 395.9 499.161 402.64 480.281C409.38 461.401 409.53 422.821 409.53 422.821C409.53 422.821 377.49 436.541 366.67 450.941C355.86 465.341 341.72 498.781 341.72 498.781C341.72 498.781 353.1 469.271 347.27 440.861C341.44 412.451 315.37 383.971 315.37 383.971C315.37 383.971 295.61 412.461 297.27 445.641C298.92 478.821 315.89 504.731 315.89 504.731C315.89 504.731 290.93 474.711 272.79 466.801C254.65 458.891 224.17 468.571 224.17 468.571C224.17 468.571 243.32 505.341 262.7 516.051C282.07 526.761 303.65 529.381 303.65 529.381C303.65 529.381 274.74 522.461 254.84 529.561C234.95 536.661 214.44 556.591 214.44 556.591C214.44 556.591 253.33 571.671 281.93 565.341C310.52 559.021 331.78 548.381 331.78 548.381Z" fill="url(#paint15_linear_4212_263)"/>
<path opacity="0.3" d="M315.37 383.98C315.37 383.98 341.44 412.46 347.27 440.87C353.1 469.28 341.72 498.79 341.72 498.79C341.72 498.79 355.86 465.34 366.67 450.95C377.48 436.55 409.53 422.83 409.53 422.83C409.53 422.83 409.39 461.41 402.64 480.29C395.9 499.17 366.62 522.97 366.19 524.83C365.76 526.7 389.45 508.29 410.84 509.33C432.23 510.36 461 529.07 461 529.07C461 529.07 436.21 548.8 403.57 558.8C370.93 568.8 331.78 548.39 331.78 548.39L330.73 548.9C334.04 476.46 315.37 383.98 315.37 383.98Z" fill="#00759F"/>
<path d="M294.81 527.791C300.14 528.581 303.63 529.401 303.63 529.401C303.63 529.401 300.17 528.971 294.81 527.791Z" fill="url(#paint16_linear_4212_263)"/>
<path d="M397.72 443.521C397.72 443.521 375.25 509.661 334.2 537.601C341.23 528.641 357.6 514.381 370.38 492.111C383.16 469.831 397.72 443.521 397.72 443.521Z" fill="url(#paint17_linear_4212_263)"/>
<path d="M334.34 540.661C334.34 540.661 398.49 538.741 424.32 533.941C443.37 530.871 452.33 529.121 452.33 529.121C452.33 529.121 436.68 536.341 396.06 541.071C355.44 545.801 334.34 540.661 334.34 540.661Z" fill="url(#paint18_linear_4212_263)"/>
<path d="M328.38 539.211C328.38 539.211 304.17 514.091 281.65 497.651C259.14 481.201 233.47 472.121 233.47 472.121C233.47 472.121 267.18 492.311 279.82 501.391C292.45 510.471 328.38 539.211 328.38 539.211Z" fill="url(#paint19_linear_4212_263)"/>
<path d="M325.73 237.32C325.73 237.32 330.09 258.91 307.8 270.71C300.34 273.29 286.44 273.54 278.71 266.16C290.05 271.67 300.15 272.59 307.61 269.68C311.85 266.15 324.03 261.53 325.73 237.32Z" fill="black"/>
<path d="M313.79 239.549C313.79 239.549 318.66 258.019 307.51 270.249C296.44 267.809 287.27 259.349 284.59 253.339C288.18 257.469 297.97 267.209 306.99 269.399C311.22 262.269 315.41 253.299 313.79 239.549Z" fill="black"/>
<path d="M306.23 249.739C306.23 249.739 311.87 262.559 307.9 269.799C305.79 268.569 295.62 259.359 292.74 245.279C296.96 253.139 298.45 260.149 307.27 267.759C308.4 262.939 306.6 251.659 306.23 249.739Z" fill="black"/>
<path d="M326 242.009C326 242.009 329.24 240.109 329.59 235.249C329.95 230.389 327.07 228.649 325.56 230.729C324.91 229.259 324.25 229.989 324.24 230.939C323.33 230.019 321.54 229.969 321.31 232.089C321.08 234.209 322.93 241.569 326 242.009Z" fill="url(#paint20_linear_4212_263)"/>
<path d="M314.1 243.329C314.1 243.329 317.79 241.009 316.1 235.579C315.05 232.779 313.61 232.569 313.28 233.309C312.87 232.979 311.15 232.719 311.06 234.199C310.2 233.739 308.71 234.969 309.12 236.689C309.51 238.409 310.46 242.489 314.1 243.329Z" fill="url(#paint21_linear_4212_263)"/>
<path d="M307.27 254.169C307.27 254.169 310.2 252.219 308.49 247.559C307.4 244.399 305.86 245.459 305.84 246.129C305.25 245.239 304.25 245.409 304.14 246.199C303.28 245.789 302.21 247.019 302.61 248.729C303.01 250.439 304.29 253.939 307.27 254.169Z" fill="url(#paint22_linear_4212_263)"/>
<path d="M294.4 249.659C294.4 249.659 297.22 248.309 296.45 243.959C295.68 239.609 293.28 236.859 292.4 238.609C291.53 237.949 290.06 236.679 288.73 239.189C287.14 239.559 287.4 242.029 288.1 243.839C288.79 245.639 291.37 249.789 294.4 249.659Z" fill="url(#paint23_linear_4212_263)"/>
<path d="M283.89 269.23C283.89 269.23 284.73 266.21 280.95 263.93C277.17 261.65 273.52 261.64 274.25 263.46C273.18 263.68 271.26 263.95 272.27 266.61C271.5 268.05 273.53 269.48 275.36 270.14C277.18 270.8 282 271.59 283.89 269.23Z" fill="url(#paint24_linear_4212_263)"/>
<path d="M287.02 256.259C287.02 256.259 288.38 254.879 286.69 251.899C285.59 249.669 282.17 245.909 281.63 248.799C280.04 248.829 278.22 248.409 278.98 251.639C277.53 252.479 278.82 254.009 280.29 255.499C281.77 256.979 285.59 257.489 287.02 256.259Z" fill="url(#paint25_linear_4212_263)"/>
<path d="M308.52 268.42C308.52 268.42 308.58 268.53 308.7 268.76C310.66 272.53 328.15 306.87 321.13 317.51C321.82 312.09 320.97 305.31 316.17 291.64C311.37 277.97 307 269.39 307 269.39L308.59 268.54" fill="black"/>
<path d="M480.14 244.771C480.14 244.771 475.78 266.361 498.07 278.161C505.53 280.741 519.43 280.991 527.16 273.611C515.82 279.121 505.72 280.041 498.26 277.131C494.02 273.601 481.84 268.981 480.14 244.771Z" fill="black"/>
<path d="M492.08 247C492.08 247 487.21 265.47 498.36 277.7C509.43 275.26 518.6 266.8 521.28 260.79C517.69 264.92 507.9 274.66 498.88 276.85C494.65 269.73 490.47 260.75 492.08 247Z" fill="black"/>
<path d="M499.64 257.19C499.64 257.19 494 270.01 497.97 277.25C500.08 276.02 510.25 266.81 513.13 252.73C508.91 260.59 507.42 267.6 498.6 275.21C497.47 270.39 499.27 259.11 499.64 257.19Z" fill="black"/>
<path d="M479.87 249.461C479.87 249.461 476.63 247.561 476.28 242.701C475.92 237.841 478.8 236.101 480.31 238.181C480.96 236.711 481.62 237.441 481.63 238.391C482.54 237.471 484.33 237.421 484.56 239.541C484.79 241.661 482.94 249.021 479.87 249.461Z" fill="url(#paint26_linear_4212_263)"/>
<path d="M491.77 250.78C491.77 250.78 488.08 248.46 489.77 243.03C490.82 240.23 492.26 240.02 492.59 240.76C493 240.43 494.72 240.17 494.81 241.65C495.67 241.19 497.16 242.42 496.75 244.14C496.36 245.87 495.41 249.95 491.77 250.78Z" fill="url(#paint27_linear_4212_263)"/>
<path d="M498.6 261.62C498.6 261.62 495.67 259.67 497.38 255.02C498.47 251.86 500.01 252.92 500.03 253.59C500.62 252.7 501.62 252.87 501.73 253.66C502.59 253.25 503.66 254.48 503.26 256.19C502.86 257.89 501.59 261.39 498.6 261.62Z" fill="url(#paint28_linear_4212_263)"/>
<path d="M511.48 257.111C511.48 257.111 508.66 255.761 509.43 251.411C510.2 247.061 512.59 244.311 513.48 246.061C514.35 245.401 515.82 244.131 517.15 246.641C518.74 247.011 518.48 249.481 517.78 251.291C517.08 253.091 514.5 257.241 511.48 257.111Z" fill="url(#paint29_linear_4212_263)"/>
<path d="M521.98 276.681C521.98 276.681 521.14 273.661 524.92 271.381C528.7 269.101 532.35 269.091 531.62 270.911C532.69 271.131 534.61 271.401 533.6 274.061C534.37 275.501 532.34 276.931 530.51 277.591C528.69 278.251 523.87 279.041 521.98 276.681Z" fill="url(#paint30_linear_4212_263)"/>
<path d="M518.85 263.711C518.85 263.711 517.49 262.331 519.18 259.351C520.28 257.121 523.7 253.361 524.24 256.251C525.83 256.281 527.65 255.861 526.89 259.091C528.34 259.931 527.05 261.461 525.58 262.951C524.1 264.441 520.29 264.941 518.85 263.711Z" fill="url(#paint31_linear_4212_263)"/>
<path d="M497.35 275.881C497.35 275.881 497.29 275.991 497.17 276.221C495.21 279.991 477.72 314.331 484.74 324.971C484.05 319.551 484.9 312.771 489.7 299.101C494.5 285.431 498.87 276.851 498.87 276.851L497.28 276.001" fill="black"/>
<path d="M415.49 594.861C583.975 594.861 720.56 584.102 720.56 570.831C720.56 557.559 583.975 546.801 415.49 546.801C247.004 546.801 110.42 557.559 110.42 570.831C110.42 584.102 247.004 594.861 415.49 594.861Z" fill="url(#paint32_linear_4212_263)"/>
<path d="M399.61 238.709L366.09 296.539C366.09 296.539 407.16 332.579 414.7 329.229C422.24 325.879 459.12 311.629 459.12 311.629C459.12 311.629 459.96 290.679 457.44 283.969C454.93 277.269 423.92 228.659 421.4 230.329C418.88 232.009 399.61 238.709 399.61 238.709Z" fill="url(#paint33_linear_4212_263)"/>
<path d="M270.8 499.029C272.48 500.149 285.61 518.029 303.77 530.599C321.93 543.169 346.51 555.459 346.51 555.459L483.4 557.689C483.4 557.689 514.13 544.559 533.13 528.359C552.13 512.159 556.32 499.859 556.32 499.859L442.9 508.519L441.78 507.399L384.79 507.959" fill="black"/>
<path d="M270.8 499.029C272.48 500.149 285.61 518.029 303.77 530.599C321.93 543.169 346.51 555.459 346.51 555.459L483.4 557.689C483.4 557.689 514.13 544.559 533.13 528.359C552.13 512.159 556.32 499.859 556.32 499.859L442.9 508.519L441.78 507.399L384.79 507.959" stroke="#231F20" stroke-width="2" stroke-miterlimit="10"/>
<path d="M374.45 200.57C374.45 200.57 377.99 225.53 387.11 236.52C396.23 247.51 405.55 254.21 412.63 254.21C419.71 254.21 433.86 245.83 440.19 233.54C446.52 221.25 449.32 200.95 449.32 200.95C449.32 200.95 464.03 165.38 432.19 161.47C400.34 157.56 382.46 151.41 380.04 158.68C377.62 165.93 374.45 200.57 374.45 200.57Z" fill="url(#paint34_linear_4212_263)"/>
<path d="M434.05 170.579C434.36 170.079 449.14 194.049 447.46 207.269C445.78 220.489 441.13 233.529 437.96 237.629C434.79 241.729 426.23 248.799 426.23 248.799C426.23 248.799 425.48 267.609 432.75 277.299C440.02 286.989 453.61 293.129 459.76 293.689C465.91 294.249 471.49 294.989 470.93 294.989C470.37 294.989 462.18 269.659 465.34 251.779C468.51 233.899 464.6 183.429 457.7 164.619C450.81 145.809 446.34 144.319 446.34 144.319C446.34 144.319 427.53 126.629 389.35 139.109C367.31 146.309 362.34 171.139 362.53 198.149C362.72 225.159 365.51 246.759 358.06 267.809C350.61 288.859 352.1 295.189 352.1 295.189C352.1 295.189 380.41 294.629 388.79 286.059C397.17 277.489 399.22 271.349 399.78 264.459C400.34 257.569 400.9 249.749 400.9 249.749C400.9 249.749 386.74 241.739 381.53 226.279C376.32 210.819 375.94 209.519 375.94 209.519C375.94 209.519 386.74 204.489 399.59 192.009C412.44 179.529 413.74 176.919 413.74 176.919L404.99 190.699C404.99 190.699 421.94 189.769 434.05 170.579Z" fill="black"/>
<path d="M366.63 293.971C366.63 293.971 345.4 293.971 340.09 301.231C334.78 308.491 303.77 395.381 305.17 400.961C306.57 406.541 354.34 469.131 354.34 469.131C354.34 469.131 355.74 435.331 355.46 433.651C355.18 431.971 329.76 394.261 329.76 393.421C329.76 392.581 354.07 348.441 354.07 348.441L366.63 293.971Z" fill="url(#paint35_linear_4212_263)"/>
<path d="M459.66 293.971C459.66 293.971 480.89 293.971 486.2 301.231C491.51 308.491 522.52 395.381 521.12 400.961C519.72 406.541 471.95 469.131 471.95 469.131C471.95 469.131 470.55 435.331 470.83 433.651C471.11 431.971 496.53 394.261 496.53 393.421C496.53 392.581 472.22 348.441 472.22 348.441L459.66 293.971Z" fill="url(#paint36_linear_4212_263)"/>
<path d="M457.14 292.85C457.14 292.85 444.57 311.01 415.51 312.41C386.46 313.81 371.37 293.41 371.37 293.41L366.62 293.97C366.62 293.97 354.89 319.11 353.77 336.15C352.65 353.19 355.73 361.01 359.92 369.12C364.11 377.23 367.74 378.06 367.74 378.06L369.42 492.6C369.42 492.6 447.08 500.98 446.81 500.14C446.53 499.3 462.45 378.89 462.45 377.78C462.45 376.66 471.67 357.94 472.23 344.26C472.79 330.58 463.29 294.53 463.29 294.53L457.14 292.85Z" fill="url(#paint37_linear_4212_263)"/>
<path d="M335.62 510.2C335.62 510.2 323.05 395.38 323.33 394.26C323.61 393.14 322.21 388.67 337.86 388.95C353.5 389.23 497.66 388.95 497.66 388.95C497.66 388.95 506.32 387.27 505.48 398.73C504.64 410.18 499.33 505.45 499.33 505.45L335.62 510.2Z" fill="url(#paint38_linear_4212_263)"/>
<path opacity="0.3" d="M412.44 454.889C419.073 454.889 424.45 449.512 424.45 442.879C424.45 436.246 419.073 430.869 412.44 430.869C405.807 430.869 400.43 436.246 400.43 442.879C400.43 449.512 405.807 454.889 412.44 454.889Z" fill="white"/>
<path d="M434.98 530.041C434.46 528.241 399.5 512.721 389.72 504.621C379.94 496.521 351.45 480.311 328.26 471.931C305.07 463.551 284.96 453.771 280.21 452.371C275.46 450.971 266.52 449.861 257.86 461.311C249.2 472.761 250.04 482.261 257.58 489.811C265.12 497.351 294.46 523.061 321 530.601C347.54 538.141 366.54 542.051 387.21 547.921C407.88 553.791 420.73 557.981 420.73 557.981C420.73 557.981 440.01 547.361 434.98 530.041Z" fill="url(#paint39_linear_4212_263)"/>
<path d="M423.62 556.58C423.62 556.58 433.12 557.42 436.19 559.65C439.26 561.88 445.13 565.24 448.2 565.24C451.27 565.24 462.17 566.92 469.71 570.27C477.25 573.62 494.02 583.12 497.93 581.44L501.84 579.76C501.84 579.76 504.63 579.76 506.31 578.36C507.99 576.96 508.27 575.57 508.27 575.57C508.27 575.57 511.34 575.57 512.74 574.17C514.14 572.77 514.14 570.26 514.14 570.26C514.14 570.26 516.65 570.54 517.49 568.86L518.33 567.18C518.33 567.18 521.4 565.22 522.52 562.99C523.64 560.76 523.64 560.48 523.08 559.64C522.52 558.8 511.35 551.26 508.83 551.26C506.32 551.26 494.02 549.86 487.32 547.91C480.62 545.95 476.15 545.4 463.29 543.72C450.44 542.05 423.62 556.58 423.62 556.58Z" fill="url(#paint40_linear_4212_263)"/>
<path d="M398.48 531.16C399 529.36 433.96 513.84 443.74 505.74C453.52 497.64 482.01 481.43 505.2 473.05C528.39 464.67 548.5 454.89 553.25 453.49C558 452.09 566.94 450.98 575.6 462.43C584.26 473.88 583.42 483.38 575.88 490.93C568.34 498.47 539 524.18 512.46 531.72C485.92 539.26 466.92 543.17 446.25 549.04C425.58 554.91 412.73 559.1 412.73 559.1C412.73 559.1 393.45 548.48 398.48 531.16Z" fill="url(#paint41_linear_4212_263)"/>
<path d="M398.1 532.83C398.1 532.83 367.18 548.1 361.78 548.1C356.38 548.1 355.07 546.24 352.47 545.12C349.86 544 344.83 544.56 337.57 547.91C330.31 551.26 325.09 554.24 320.25 553.87C315.41 553.5 305.54 550.52 299.95 553.31C294.36 556.1 283.93 566.16 287.66 570.07C291.39 573.98 301.07 578.27 305.17 576.03C309.27 573.8 320.63 573.24 329.94 574.17C339.25 575.1 349.68 578.08 356.95 575.47C364.22 572.86 377.06 565.41 388.05 562.62C399.04 559.83 410.21 557.78 410.21 557.78C410.21 557.78 395.68 550.53 398.1 532.83Z" fill="url(#paint42_linear_4212_263)"/>
<path d="M505.52 397.071C505.43 387.461 497.65 388.951 497.65 388.951C497.65 388.951 353.5 389.231 337.85 388.951C322.21 388.671 323.6 393.141 323.32 394.261C323.3 394.351 323.35 395.121 323.47 396.461C324.77 394.601 326.36 391.471 335.39 391.471H496.68C496.68 391.471 502.37 391.191 505.52 397.071Z" fill="white"/>
<path d="M606.57 574.409L568.51 399.939L564.08 400.569L566.64 412.319C567.31 413.059 549.61 412.319 549.61 412.319L546.92 399.969L542.36 400.009L580.61 575.349C580.672 575.637 580.79 575.909 580.957 576.15C581.125 576.392 581.338 576.598 581.585 576.756C581.832 576.915 582.108 577.024 582.397 577.076C582.686 577.128 582.983 577.122 583.27 577.059C583.849 576.933 584.354 576.581 584.674 576.083C584.995 575.584 585.105 574.979 584.98 574.399L582.18 561.549H599.21L602.22 575.349C602.48 576.559 603.67 577.319 604.88 577.059C606.09 576.799 606.83 575.619 606.57 574.409ZM550.44 416.139H567.47L570.16 428.489H553.13L550.44 416.139ZM553.97 432.299H571L573.7 444.649H556.67L553.97 432.299ZM557.49 448.459H574.52L577.21 460.809H560.18L557.49 448.459ZM561.02 464.609H578.05L580.74 476.959H563.71L561.02 464.609ZM564.54 480.769H581.57L584.26 493.119H567.23L564.54 480.769ZM568.07 496.929H585.1L587.79 509.279H570.76L568.07 496.929ZM571.59 513.089H588.62L591.31 525.439H574.28L571.59 513.089ZM575.12 529.249H592.15L594.84 541.599H577.81L575.12 529.249ZM581.34 557.759L578.65 545.409H595.68L598.37 557.759H581.34Z" fill="black"/>
<path d="M582.04 415.07C582.07 415.13 582.45 422.67 578.06 421.94C575.59 421.53 574.48 411.46 569.96 404.58C568.9 402.97 565.08 392.09 564.27 390.42C562.97 387.72 567.37 387.19 568.36 388.32C569.14 389.21 571.23 393.49 574.75 399.36C578.74 405.97 581.27 413.14 582.04 415.07Z" fill="url(#paint43_linear_4212_263)"/>
<path d="M583.9 498.179C581.91 497.229 577.37 495.939 576.63 493.429C576.61 493.359 576.61 493.299 576.59 493.229C576.02 490.909 577.78 490.559 579.78 490.979C581.83 491.409 587.86 492.519 587.86 492.519C587.86 492.519 588.92 495.019 588.92 496.499C588.92 497.999 585.86 499.119 583.9 498.179Z" fill="black"/>
<path d="M587.67 491.221L587.83 492.321C587.89 492.751 587.68 493.181 587.29 493.381C586.61 493.711 585.44 494.111 583.99 493.871C583.55 493.791 583.2 493.441 583.13 493.001L582.93 491.611L587.67 491.221Z" fill="white"/>
<path d="M579.64 514.791C577.39 513.721 572.23 512.251 571.4 509.401C571.37 509.321 571.38 509.251 571.36 509.181C570.72 506.551 572.71 506.151 574.98 506.621C577.31 507.111 584.15 508.371 584.15 508.371C584.15 508.371 585.38 511.241 585.38 513.381C585.37 515.521 581.86 515.851 579.64 514.791Z" fill="black"/>
<path d="M583.92 506.891L584.1 508.131C584.63 509.911 581.39 510.161 579.75 509.881C579.25 509.791 578.85 509.401 578.78 508.891L578.55 507.311L583.92 506.891Z" fill="white"/>
<path d="M588.97 449.629C588.97 449.629 590.18 453.469 590.51 458.139C590.92 463.999 585.51 470.219 586.01 474.049C586.91 480.939 588.85 488.139 589.05 490.199C589.25 492.269 581.88 493.449 581.34 491.219C580.8 488.989 575.49 477.499 574.92 474.229C573.93 468.599 580.89 466.009 580.89 466.009C580.89 466.009 580.19 481.929 581.05 486.649C581.54 489.329 584.66 504.459 585 506.459C585.09 507.009 584.09 508.559 582.12 508.909C580.03 509.279 577.58 508.719 577.25 507.879C576.4 505.679 573.39 489.319 572.92 486.769C572.44 484.219 571.05 460.039 570.64 458.249C570.22 456.449 588.15 447.809 588.97 449.629Z" fill="url(#paint44_linear_4212_263)"/>
<path d="M565.81 423.341C565.77 430.341 570.14 458.951 571.03 459.261C576.61 461.181 590.16 453.041 589.98 450.841C588.79 436.431 584.09 415.131 581.25 414.431C575.28 412.941 565.83 419.911 565.81 423.341Z" fill="url(#paint45_linear_4212_263)"/>
<path d="M576.3 370.42C576.3 379.9 568.62 387.59 559.13 387.59C549.65 387.59 541.97 379.9 541.97 370.42C541.97 360.94 549.65 353.26 559.13 353.26C568.61 353.26 576.3 360.94 576.3 370.42Z" fill="url(#paint46_linear_4212_263)"/>
<path d="M554.01 449.379C553.16 449.919 552.68 450.499 552.08 451.399C551.18 452.689 553.08 456.589 554.27 455.489C554.03 454.269 555.81 453.679 556.45 453.369C558.56 452.369 558.77 451.339 558.63 450.539C558.24 448.349 556.65 447.699 554.01 449.379Z" fill="#F4A477"/>
<path d="M565.02 440.449C564.85 442.929 557.99 446.339 556.95 447.889C556 449.309 556.82 451.399 559.48 451.209C560.83 451.069 572.09 444.949 572.34 442.639C572.79 438.449 572.89 420.219 567.72 420.719C563.3 421.139 565.2 437.969 565.02 440.449Z" fill="url(#paint47_linear_4212_263)"/>
<path d="M576.18 404C575.48 399.23 571.62 397.31 566.7 399.44C560.82 402 563.21 406.64 563.58 408.67C564.05 411.29 565.17 416.45 566.63 416.85C567.68 417.14 568.43 416.66 569.53 416.29C569.91 417.7 569.86 418.47 570.09 418.66C571.16 419.55 576.32 417.19 576.12 415.48C576.03 414.7 575.88 413.41 575.79 412.13C575.41 408.77 576.76 407.9 576.18 404Z" fill="#F4A477"/>
<path d="M569.27 407.74C568.37 407.37 567.47 407.88 567.09 409.73C567.06 409.87 566.16 410.22 566.18 409.95C566.81 403.65 563.91 405.43 563.27 404.4C563.24 401.61 564.28 399.47 567.35 398.53C572.34 397 577.21 399.2 577.91 403.98C578.39 407.25 576.14 409.49 576.26 412.76C576.28 413.21 575.97 413.08 575.02 413.31C574.28 413.49 573.42 414.31 572.66 414.17C571.71 413.99 569.62 412.07 569.87 410.81C570.11 409.66 570.19 408.12 569.27 407.74Z" fill="#0078A2"/>
<path d="M582.5 491.8C582.5 491.8 580.55 479.48 580.74 476.83C580.93 474.18 581.66 460.19 581.66 460.19L583.54 458.51C583.54 458.51 581.68 474.1 581.92 478.7C582.16 483.3 582.5 491.8 582.5 491.8Z" fill="url(#paint48_linear_4212_263)"/>
<path d="M563.87 388.891C563.43 388.111 563.88 385.251 564.57 383.481C565.31 381.571 566.63 377.751 567.68 378.231C568.34 378.531 567.44 381.441 567.44 384.541C567.44 386.511 566.91 388.421 566.58 389.301C566.34 389.961 564.47 390.051 563.87 388.891Z" fill="#F4A477"/>
<path d="M314.58 347.9C314.58 336.17 305.07 326.66 293.34 326.66C281.61 326.66 272.1 336.17 272.1 347.9C272.1 359.63 281.61 369.14 293.34 369.14C305.07 369.15 314.58 359.64 314.58 347.9Z" fill="url(#paint49_linear_4212_263)"/>
<path d="M285.733 347H284.852C284.8 346.747 284.709 346.524 284.579 346.332C284.451 346.141 284.295 345.98 284.11 345.849C283.928 345.717 283.725 345.617 283.503 345.551C283.28 345.485 283.048 345.452 282.807 345.452C282.366 345.452 281.968 345.563 281.61 345.786C281.255 346.008 280.972 346.336 280.761 346.769C280.553 347.202 280.449 347.734 280.449 348.364C280.449 348.993 280.553 349.525 280.761 349.958C280.972 350.391 281.255 350.719 281.61 350.942C281.968 351.164 282.366 351.276 282.807 351.276C283.048 351.276 283.28 351.242 283.503 351.176C283.725 351.11 283.928 351.012 284.11 350.881C284.295 350.749 284.451 350.587 284.579 350.395C284.709 350.201 284.8 349.978 284.852 349.727H285.733C285.667 350.099 285.546 350.432 285.371 350.725C285.196 351.019 284.978 351.268 284.717 351.474C284.457 351.678 284.165 351.833 283.84 351.94C283.518 352.046 283.174 352.099 282.807 352.099C282.187 352.099 281.635 351.948 281.152 351.645C280.669 351.342 280.289 350.911 280.012 350.352C279.735 349.794 279.597 349.131 279.597 348.364C279.597 347.597 279.735 346.934 280.012 346.375C280.289 345.816 280.669 345.385 281.152 345.082C281.635 344.779 282.187 344.628 282.807 344.628C283.174 344.628 283.518 344.681 283.84 344.788C284.165 344.894 284.457 345.05 284.717 345.256C284.978 345.46 285.196 345.709 285.371 346.002C285.546 346.293 285.667 346.626 285.733 347ZM291.133 346.545C291.091 346.186 290.918 345.906 290.615 345.707C290.312 345.509 289.94 345.409 289.5 345.409C289.178 345.409 288.896 345.461 288.655 345.565C288.416 345.67 288.229 345.813 288.094 345.995C287.961 346.177 287.895 346.384 287.895 346.616C287.895 346.811 287.941 346.978 288.033 347.117C288.128 347.254 288.249 347.369 288.395 347.462C288.542 347.552 288.696 347.626 288.857 347.685C289.018 347.742 289.166 347.788 289.301 347.824L290.04 348.023C290.229 348.072 290.44 348.141 290.672 348.229C290.906 348.316 291.13 348.436 291.343 348.587C291.558 348.737 291.736 348.928 291.876 349.163C292.015 349.397 292.085 349.685 292.085 350.026C292.085 350.419 291.982 350.774 291.776 351.091C291.573 351.408 291.274 351.66 290.881 351.847C290.491 352.034 290.016 352.128 289.457 352.128C288.936 352.128 288.485 352.044 288.104 351.876C287.725 351.708 287.427 351.473 287.209 351.173C286.994 350.872 286.872 350.523 286.844 350.125H287.753C287.776 350.4 287.869 350.627 288.03 350.807C288.193 350.984 288.399 351.117 288.648 351.205C288.898 351.29 289.168 351.332 289.457 351.332C289.793 351.332 290.095 351.278 290.363 351.169C290.63 351.058 290.842 350.904 290.998 350.707C291.155 350.509 291.233 350.277 291.233 350.011C291.233 349.77 291.165 349.573 291.03 349.422C290.895 349.27 290.718 349.147 290.498 349.053C290.278 348.958 290.04 348.875 289.784 348.804L288.889 348.548C288.321 348.385 287.871 348.152 287.54 347.849C287.208 347.546 287.042 347.149 287.042 346.659C287.042 346.252 287.153 345.897 287.373 345.594C287.595 345.288 287.894 345.052 288.268 344.884C288.644 344.713 289.064 344.628 289.528 344.628C289.997 344.628 290.414 344.712 290.778 344.88C291.143 345.046 291.432 345.273 291.645 345.562C291.86 345.851 291.974 346.179 291.986 346.545H291.133ZM297.51 346.545C297.468 346.186 297.295 345.906 296.992 345.707C296.689 345.509 296.317 345.409 295.877 345.409C295.555 345.409 295.273 345.461 295.032 345.565C294.792 345.67 294.605 345.813 294.471 345.995C294.338 346.177 294.272 346.384 294.272 346.616C294.272 346.811 294.318 346.978 294.41 347.117C294.505 347.254 294.626 347.369 294.772 347.462C294.919 347.552 295.073 347.626 295.234 347.685C295.395 347.742 295.543 347.788 295.678 347.824L296.417 348.023C296.606 348.072 296.817 348.141 297.049 348.229C297.283 348.316 297.507 348.436 297.72 348.587C297.935 348.737 298.113 348.928 298.252 349.163C298.392 349.397 298.462 349.685 298.462 350.026C298.462 350.419 298.359 350.774 298.153 351.091C297.949 351.408 297.651 351.66 297.258 351.847C296.868 352.034 296.393 352.128 295.834 352.128C295.313 352.128 294.862 352.044 294.481 351.876C294.102 351.708 293.804 351.473 293.586 351.173C293.371 350.872 293.249 350.523 293.221 350.125H294.13C294.153 350.4 294.246 350.627 294.407 350.807C294.57 350.984 294.776 351.117 295.025 351.205C295.275 351.29 295.545 351.332 295.834 351.332C296.17 351.332 296.472 351.278 296.74 351.169C297.007 351.058 297.219 350.904 297.375 350.707C297.532 350.509 297.61 350.277 297.61 350.011C297.61 349.77 297.542 349.573 297.407 349.422C297.272 349.27 297.095 349.147 296.875 349.053C296.654 348.958 296.417 348.875 296.161 348.804L295.266 348.548C294.698 348.385 294.248 348.152 293.917 347.849C293.585 347.546 293.419 347.149 293.419 346.659C293.419 346.252 293.529 345.897 293.75 345.594C293.972 345.288 294.27 345.052 294.645 344.884C295.021 344.713 295.441 344.628 295.905 344.628C296.374 344.628 296.791 344.712 297.155 344.88C297.52 345.046 297.809 345.273 298.022 345.562C298.237 345.851 298.351 346.179 298.363 346.545H297.51ZM302.24 352.099C301.771 352.099 301.353 352.019 300.986 351.858C300.621 351.697 300.331 351.473 300.116 351.187C299.903 350.898 299.787 350.563 299.768 350.182H300.663C300.682 350.416 300.762 350.619 300.904 350.789C301.046 350.957 301.232 351.087 301.462 351.18C301.691 351.272 301.946 351.318 302.225 351.318C302.538 351.318 302.815 351.264 303.056 351.155C303.298 351.046 303.487 350.894 303.624 350.7C303.762 350.506 303.83 350.281 303.83 350.026C303.83 349.758 303.764 349.522 303.632 349.319C303.499 349.113 303.305 348.952 303.049 348.836C302.794 348.72 302.481 348.662 302.112 348.662H301.529V347.881H302.112C302.401 347.881 302.654 347.829 302.872 347.724C303.092 347.62 303.263 347.473 303.387 347.284C303.512 347.095 303.575 346.872 303.575 346.616C303.575 346.37 303.52 346.156 303.411 345.974C303.302 345.791 303.149 345.649 302.95 345.548C302.753 345.446 302.521 345.395 302.254 345.395C302.003 345.395 301.766 345.441 301.544 345.533C301.323 345.623 301.143 345.755 301.004 345.928C300.864 346.098 300.788 346.304 300.776 346.545H299.924C299.938 346.164 300.053 345.83 300.269 345.544C300.484 345.255 300.766 345.03 301.114 344.869C301.464 344.708 301.849 344.628 302.268 344.628C302.718 344.628 303.104 344.719 303.426 344.901C303.748 345.081 303.995 345.319 304.168 345.615C304.341 345.911 304.427 346.231 304.427 346.574C304.427 346.983 304.319 347.333 304.104 347.621C303.891 347.91 303.601 348.11 303.234 348.222V348.278C303.693 348.354 304.052 348.549 304.31 348.864C304.568 349.177 304.697 349.564 304.697 350.026C304.697 350.421 304.589 350.776 304.374 351.091C304.161 351.403 303.869 351.65 303.5 351.83C303.131 352.009 302.711 352.099 302.24 352.099Z" fill="#125CAE"/>
<path d="M280.35 451.86C280.35 451.86 280.29 452.89 280.26 453.76C280.25 453.99 280.25 454.21 280.25 454.4C280.25 454.67 281.63 454.89 282.76 454.58C283.65 454.34 284.42 453.65 284.06 453.24C283.68 452.82 283.29 451.34 283.29 451.34L280.35 451.86Z" fill="white"/>
<path d="M280.27 453.761C280.27 453.761 282.34 454.661 284.07 453.241C285 453.201 292.9 454.931 292.11 456.191C291.31 457.471 281.08 457.991 280.18 457.311C279.83 457.051 279.91 454.631 280.27 453.761Z" fill="black"/>
<path d="M263.81 449.69C263.81 449.69 263.63 450.7 263.51 451.56C263.48 451.79 263.45 452 263.43 452.2C263.4 452.47 264.75 452.84 265.91 452.66C266.82 452.52 267.67 451.92 267.35 451.47C267.02 451.01 266.79 449.5 266.79 449.5L263.81 449.69Z" fill="#EBBEAF"/>
<path d="M277.76 408.82L270.85 406.01C270.36 413.13 271.05 418.78 269.04 429.52C268.19 434.04 264.05 444.56 262.44 449.71C262.91 450.81 267.57 450.94 268.21 449.79C269.04 448.03 274.47 438.02 275.96 431.62C276.64 428.66 277.79 415.98 277.76 408.82ZM263.51 451.57C263.51 451.57 265.46 452.7 267.34 451.48C268.27 451.54 275.94 453.07 275.09 454.75C274.75 455.42 263.85 455.87 263.03 455.1C262.72 454.79 263.07 452.4 263.51 451.57Z" fill="black"/>
<path d="M273.48 376.16C273.48 376.16 274.09 374.11 273.93 373.1C273.77 372.09 271.5 370.71 271.14 368.6C270.78 366.49 272 363.66 275.16 363.44C279.93 363.1 279.78 366.83 279.95 368.12C280.23 370.21 280.01 373.54 279.53 373.77C279.39 373.84 278.8 373.91 277.77 373.56C277.59 374.08 277.13 376.51 277.48 377.26C277.83 378.01 273.48 376.16 273.48 376.16Z" fill="white"/>
<path d="M271.09 401.449C270.85 403.009 270.69 404.729 270.84 406.019C271.6 412.209 276.19 419.969 277.75 430.299C278.44 434.849 278.78 447.219 278.98 452.029C279.57 453.079 284.21 452.679 284.72 451.479C284.21 449.219 286.55 434.059 285.89 426.369C285.61 423.079 280.8 400.179 280.8 400.179C280.8 400.179 274.29 399.609 271.09 401.449Z" fill="black"/>
<path d="M277.92 376.439C277.92 376.439 274.96 374.519 272.55 374.899C272.21 375.119 272.1 376.169 271.64 377.439C271.14 378.829 270.3 380.519 270.1 382.429C269.76 385.779 270.4 394.869 269.77 403.319C270.76 404.909 278.41 407.359 282.45 403.769C282.45 403.769 281.4 398.579 281.16 394.379C280.91 390.029 283.86 389.569 283.3 386.139C282.94 383.939 278.92 381.329 277.83 378.019C277.69 377.579 278 376.929 277.92 376.439Z" fill="url(#paint50_linear_4212_263)"/>
<path d="M279.65 363.881C281.22 367.451 276.39 367.261 275.14 373.701C274.33 377.861 269.94 379.281 270.1 385.561C267.34 385.021 266.16 380.501 269.09 375.351C270.97 372.051 269.44 368.671 269.97 366.041C271.03 360.811 278.17 360.531 279.65 363.881Z" fill="url(#paint51_linear_4212_263)"/>
<path d="M273.4 382.33C273.69 380.05 275.88 380.15 279.77 379.51C281.59 379.21 284.94 378.53 287.52 377.64C288.57 377.28 290.1 366.8 290.25 363.98C290.31 362.76 289.43 362.49 288.89 361.47C288.36 360.46 288.04 358.74 288.58 358.57C288.98 358.44 289.3 359.99 289.6 360.06C289.49 358.86 289.15 357.03 289.62 355.83C290.09 354.63 291.83 355.4 292.24 355.79C292.74 356.26 292.89 357.01 292.98 358.09C293.1 359.38 293.57 361.1 293.16 361.97C292.81 362.73 292.48 363.76 292.49 364.3C292.5 364.84 292.35 379.96 291.01 380.85C289.19 382.06 284.13 383.64 279.46 384.45C275.76 385.08 273.17 384.12 273.4 382.33Z" fill="white"/>
<path d="M600.62 475.05C600.62 460.43 612.47 448.58 627.09 448.58C641.71 448.58 653.56 460.43 653.56 475.05C653.56 489.67 641.71 501.52 627.09 501.52C612.47 501.51 600.62 489.66 600.62 475.05Z" fill="url(#paint52_linear_4212_263)"/>
<path d="M550.665 366.727H551.545V371.926C551.545 372.39 551.46 372.784 551.29 373.109C551.119 373.433 550.879 373.679 550.569 373.847C550.259 374.015 549.893 374.099 549.472 374.099C549.074 374.099 548.72 374.027 548.41 373.883C548.1 373.736 547.856 373.528 547.678 373.258C547.501 372.988 547.412 372.667 547.412 372.295H548.278C548.278 372.501 548.329 372.681 548.431 372.835C548.535 372.987 548.677 373.105 548.857 373.19C549.037 373.276 549.242 373.318 549.472 373.318C549.725 373.318 549.94 373.265 550.118 373.158C550.295 373.052 550.43 372.896 550.523 372.69C550.617 372.481 550.665 372.227 550.665 371.926V366.727ZM554.802 374.128C554.456 374.128 554.143 374.063 553.861 373.933C553.579 373.8 553.355 373.609 553.19 373.361C553.024 373.11 552.941 372.807 552.941 372.452C552.941 372.139 553.003 371.886 553.126 371.692C553.249 371.495 553.413 371.341 553.619 371.23C553.825 371.119 554.053 371.036 554.301 370.982C554.552 370.925 554.804 370.88 555.058 370.847C555.389 370.804 555.658 370.772 555.864 370.751C556.072 370.727 556.223 370.688 556.318 370.634C556.415 370.579 556.464 370.484 556.464 370.349V370.321C556.464 369.971 556.368 369.698 556.176 369.504C555.987 369.31 555.699 369.213 555.313 369.213C554.913 369.213 554.599 369.301 554.372 369.476C554.145 369.651 553.985 369.838 553.893 370.037L553.097 369.753C553.239 369.421 553.429 369.163 553.665 368.979C553.905 368.792 554.165 368.661 554.447 368.588C554.731 368.512 555.01 368.474 555.285 368.474C555.46 368.474 555.661 368.496 555.888 368.538C556.118 368.579 556.339 368.663 556.553 368.79C556.768 368.918 556.947 369.111 557.089 369.369C557.231 369.627 557.302 369.973 557.302 370.406V374H556.464V373.261H556.421C556.364 373.38 556.27 373.506 556.137 373.641C556.004 373.776 555.828 373.891 555.608 373.986C555.388 374.08 555.119 374.128 554.802 374.128ZM554.93 373.375C555.261 373.375 555.54 373.31 555.768 373.18C555.997 373.049 556.17 372.881 556.286 372.675C556.405 372.469 556.464 372.253 556.464 372.026V371.259C556.428 371.301 556.35 371.34 556.229 371.376C556.111 371.409 555.974 371.438 555.817 371.464C555.664 371.488 555.513 371.509 555.366 371.528C555.222 371.545 555.105 371.559 555.015 371.571C554.797 371.599 554.594 371.646 554.404 371.71C554.217 371.771 554.066 371.865 553.95 371.99C553.836 372.113 553.779 372.281 553.779 372.494C553.779 372.786 553.887 373.006 554.102 373.155C554.32 373.302 554.596 373.375 554.93 373.375ZM563.096 368.545L561.079 374H560.227L558.21 368.545H559.119L560.625 372.892H560.682L562.187 368.545H563.096ZM565.642 374.128C565.296 374.128 564.982 374.063 564.701 373.933C564.419 373.8 564.195 373.609 564.029 373.361C563.864 373.11 563.781 372.807 563.781 372.452C563.781 372.139 563.842 371.886 563.966 371.692C564.089 371.495 564.253 371.341 564.459 371.23C564.665 371.119 564.892 371.036 565.141 370.982C565.392 370.925 565.644 370.88 565.897 370.847C566.229 370.804 566.498 370.772 566.703 370.751C566.912 370.727 567.063 370.688 567.158 370.634C567.255 370.579 567.304 370.484 567.304 370.349V370.321C567.304 369.971 567.208 369.698 567.016 369.504C566.827 369.31 566.539 369.213 566.153 369.213C565.753 369.213 565.439 369.301 565.212 369.476C564.985 369.651 564.825 369.838 564.733 370.037L563.937 369.753C564.079 369.421 564.269 369.163 564.505 368.979C564.744 368.792 565.005 368.661 565.287 368.588C565.571 368.512 565.85 368.474 566.125 368.474C566.3 368.474 566.501 368.496 566.728 368.538C566.958 368.579 567.179 368.663 567.392 368.79C567.608 368.918 567.787 369.111 567.929 369.369C568.071 369.627 568.142 369.973 568.142 370.406V374H567.304V373.261H567.261C567.204 373.38 567.109 373.506 566.977 373.641C566.844 373.776 566.668 373.891 566.448 373.986C566.228 374.08 565.959 374.128 565.642 374.128ZM565.77 373.375C566.101 373.375 566.38 373.31 566.608 373.18C566.837 373.049 567.01 372.881 567.126 372.675C567.244 372.469 567.304 372.253 567.304 372.026V371.259C567.268 371.301 567.19 371.34 567.069 371.376C566.951 371.409 566.814 371.438 566.657 371.464C566.503 371.488 566.353 371.509 566.206 371.528C566.062 371.545 565.945 371.559 565.855 371.571C565.637 371.599 565.433 371.646 565.244 371.71C565.057 371.771 564.905 371.865 564.789 371.99C564.676 372.113 564.619 372.281 564.619 372.494C564.619 372.786 564.727 373.006 564.942 373.155C565.16 373.302 565.436 373.375 565.77 373.375Z" fill="#731BA3"/>
<path d="M654.03 451.151L656.56 452.101C657.38 452.411 658.03 453.061 658.34 453.881L659.55 457.121C660 458.331 660.08 459.651 659.78 460.901C659.37 462.611 658.55 464.181 657.41 465.511C662.65 466.241 666.87 466.351 672.01 465.471C670.65 461.221 669.61 457.521 666.65 454.161L665.53 452.831C665.92 452.761 666.9 443.871 665.7 441.821C663.36 437.821 658.61 438.661 657.25 439.601C655.28 441.191 655.73 443.051 654.98 443.801C654.15 444.641 653.46 444.671 653.42 445.011C653.38 445.351 653.83 445.661 653.97 445.881C653.8 447.561 653.11 448.901 653.14 449.941C653.16 450.371 653.61 450.991 654.03 451.151Z" fill="white"/>
<path opacity="0.35" d="M658.34 453.88L658.9 455.38C658.42 452.93 660.26 451.79 660.26 451.79C660.25 451.79 659.33 452.12 657.84 452.03C657.12 451.99 656.06 451.75 655.54 451.61C655.02 451.46 654.27 451.24 654.27 451.24L656.56 452.1C657.38 452.4 658.03 453.05 658.34 453.88Z" fill="#F58F9E"/>
<path d="M693.88 550.191C693.88 550.191 694.89 551.471 697.04 552.831C699.14 554.151 701.24 555.451 700.93 556.071C700.62 556.691 695.61 564.011 692.68 565.701C689.75 567.401 692.26 564.211 692.42 563.441C692.58 562.671 694.07 559.001 692.84 557.301C691.61 555.611 690.14 554.601 690.53 553.831C690.91 553.061 692.84 549.671 693.88 550.191Z" fill="white"/>
<path d="M672.42 503.18C672.42 503.18 671.95 523.78 674.42 527.48C676.89 531.18 692.04 544.23 695.33 550.8C695.33 550.8 693.28 555.73 689.58 555.53C689.58 555.53 681.09 545.56 674.84 541.83C669.51 538.65 666.36 535.91 665.23 533.13C664.1 530.35 655.67 504.15 655.67 504.15L672.42 503.18ZM697.98 553.42C697.98 553.42 698.62 555.14 696.73 556.29C695.13 557.26 692.58 557.07 692.71 558.7C692.85 560.49 692.36 563.53 690.92 565.29C689.87 566.58 686.84 569.02 687.52 569.62C688.01 570.06 692.92 570.87 698.28 565.61C703.91 560.08 704.08 557.2 703.83 556.61C703.48 555.86 700.87 553.82 697.98 553.42Z" fill="black"/>
<path d="M652.23 560C652.23 560 652.31 564.32 651.92 565.39C651.53 566.47 642.6 566.31 640.59 564.62C638.59 562.92 645.37 562.54 646.68 561.22C647.27 560.63 647.93 558.99 647.93 558.99L652.23 560Z" fill="white"/>
<path d="M671.8 491.211C671.8 491.211 674.12 497.211 673.78 501.551C673.13 509.931 662.35 527.891 661.11 531.591C659.88 535.291 662.45 541.041 659.98 547.001C657.51 552.961 653.2 560.561 653.1 560.971C653 561.381 647.88 561.911 646.77 559.291C647.86 555.751 649.82 549.071 650.54 543.001C651.26 536.941 652.47 529.081 652.68 525.281C652.89 521.481 657.74 491.811 657.74 491.811C657.74 491.811 659.78 492.131 671.8 491.211ZM652.2 562.801C652.2 562.801 651.61 565.391 649.04 564.721C646.47 564.051 647.5 562.401 646.63 561.731C646.09 561.311 644.81 561.571 641.99 562.201C638.41 563.001 632.69 563.371 632.68 565.391C632.68 566.371 637.05 568.721 642.27 569.291C647.49 569.861 652.58 568.781 653.14 568.471C653.72 568.161 653.29 564.421 652.2 562.801Z" fill="black"/>
<path d="M659.23 460.809C659.96 458.029 663.48 455.869 666.6 456.559C669.15 457.119 672.21 462.129 672.72 466.039C673.23 469.939 670.8 487.149 673.49 493.469C673.49 493.469 659.81 497.809 654.47 495.999C654.47 495.999 656.14 489.929 656.66 485.359C657.63 476.809 654.06 475.839 654.17 471.149C654.25 468.199 658.66 462.969 659.23 460.809Z" fill="url(#paint53_linear_4212_263)"/>
<path d="M665.91 462.68C667.94 462.29 669.67 464.1 670.43 469.43C671.39 476.12 672.42 485.82 671.84 488.87C671.51 490.57 661.06 488.39 651.74 485.2C650.31 484.71 648.35 486.38 647.02 486.27C644.43 486.05 640.39 484.84 641.02 483.44C641.39 482.61 644.06 482.14 643.92 482.03L640.65 480.8C640.73 480 642.5 480.25 644.28 479.92C646.9 479.45 649.19 479.93 651.76 480.9C653.59 481.59 662.29 483.44 665.66 482.82C665.12 479.06 664.4 474.43 664.02 472.03C663.15 466.47 662.66 463.31 665.91 462.68Z" fill="white"/>
<path d="M663.23 472.55C665.4 472.07 667.58 471.9 669.81 471.75C670.32 471.72 670.82 471.68 671.33 471.65C671.24 470.83 671.14 470.03 671.03 469.28C670.27 463.95 667.81 460.87 665.74 461.54C662.63 462.55 662.28 466.49 663.14 472.04C663.17 472.2 663.2 472.37 663.23 472.55Z" fill="url(#paint54_linear_4212_263)"/>
<path d="M664.9 437.361C660.76 435.841 657.73 438.531 657.26 439.591C660.41 439.981 658.16 443.241 660.47 444.991C662.61 446.611 661.6 449.031 662.03 453.261C662.73 460.081 670.96 458.721 672.49 464.831C675.57 456.901 667.98 453.171 668.83 447.951C669.7 442.591 668.33 438.621 664.9 437.361Z" fill="black"/>
<path d="M242.47 487.131C257.221 487.131 269.18 475.172 269.18 460.421C269.18 445.669 257.221 433.711 242.47 433.711C227.718 433.711 215.76 445.669 215.76 460.421C215.76 475.172 227.718 487.131 242.47 487.131Z" fill="url(#paint55_linear_4212_263)"/>
<path d="M226.881 465V457.727H227.761V460.966H231.639V457.727H232.52V465H231.639V461.747H227.761V465H226.881ZM233.885 458.509V457.727H239.34V458.509H237.053V465H236.172V458.509H233.885ZM240.699 457.727H241.75L244.222 463.764H244.307L246.779 457.727H247.83V465H247.006V459.474H246.935L244.662 465H243.867L241.594 459.474H241.523V465H240.699V457.727ZM249.596 465V457.727H250.476V464.219H253.857V465H249.596ZM257.365 465.099C256.949 465.099 256.574 465.017 256.24 464.851C255.906 464.685 255.638 464.458 255.437 464.169C255.236 463.88 255.126 463.551 255.107 463.182H255.959C255.992 463.511 256.141 463.783 256.407 463.999C256.674 464.212 256.994 464.318 257.365 464.318C257.664 464.318 257.929 464.248 258.161 464.109C258.395 463.969 258.579 463.777 258.711 463.533C258.846 463.287 258.914 463.009 258.914 462.699C258.914 462.382 258.844 462.099 258.704 461.85C258.567 461.599 258.377 461.402 258.136 461.257C257.895 461.113 257.619 461.039 257.309 461.037C257.086 461.035 256.858 461.069 256.623 461.14C256.389 461.209 256.196 461.297 256.044 461.406L255.221 461.307L255.661 457.727H259.439V458.509H256.4L256.144 460.653H256.186C256.336 460.535 256.523 460.437 256.748 460.359C256.972 460.281 257.207 460.241 257.451 460.241C257.896 460.241 258.292 460.348 258.64 460.561C258.991 460.772 259.265 461.061 259.464 461.428C259.665 461.795 259.766 462.214 259.766 462.685C259.766 463.149 259.662 463.563 259.453 463.928C259.248 464.29 258.963 464.576 258.601 464.787C258.239 464.995 257.827 465.099 257.365 465.099Z" fill="#431CA3"/>
<path d="M412.017 443.364C412.017 444.131 411.879 444.794 411.602 445.352C411.325 445.911 410.945 446.342 410.462 446.645C409.979 446.948 409.427 447.099 408.807 447.099C408.187 447.099 407.635 446.948 407.152 446.645C406.669 446.342 406.289 445.911 406.012 445.352C405.735 444.794 405.597 444.131 405.597 443.364C405.597 442.597 405.735 441.934 406.012 441.375C406.289 440.816 406.669 440.385 407.152 440.082C407.635 439.779 408.187 439.628 408.807 439.628C409.427 439.628 409.979 439.779 410.462 440.082C410.945 440.385 411.325 440.816 411.602 441.375C411.879 441.934 412.017 442.597 412.017 443.364ZM411.165 443.364C411.165 442.734 411.059 442.202 410.849 441.769C410.64 441.336 410.357 441.008 410 440.786C409.645 440.563 409.247 440.452 408.807 440.452C408.366 440.452 407.968 440.563 407.61 440.786C407.255 441.008 406.972 441.336 406.761 441.769C406.553 442.202 406.449 442.734 406.449 443.364C406.449 443.993 406.553 444.525 406.761 444.958C406.972 445.391 407.255 445.719 407.61 445.942C407.968 446.164 408.366 446.276 408.807 446.276C409.247 446.276 409.645 446.164 410 445.942C410.357 445.719 410.64 445.391 410.849 444.958C411.059 444.525 411.165 443.993 411.165 443.364ZM413.454 447H412.531L415.202 439.727H416.111L418.781 447H417.858L415.684 440.878H415.628L413.454 447ZM413.795 444.159H417.517V444.94H413.795V444.159Z" fill="white"/>
<path d="M218.43 437.87L215.58 438.93C214.65 439.28 213.92 440.01 213.58 440.93L212.22 444.57C211.71 445.933 211.62 447.416 211.96 448.83C212.42 450.75 213.34 452.53 214.63 454.03C208.72 454.85 203.97 454.98 198.18 453.98C199.71 449.19 200.88 445.02 204.21 441.24L205.47 439.74C205.03 439.66 203.92 429.65 205.27 427.33C207.9 422.82 213.25 423.77 214.79 424.83C217.01 426.62 216.5 428.71 217.35 429.56C218.29 430.5 219.07 430.54 219.11 430.92C219.16 431.3 218.65 431.66 218.49 431.9C218.68 433.79 219.46 435.3 219.42 436.47C219.41 436.99 218.91 437.69 218.43 437.87Z" fill="#684204"/>
<path d="M173.54 549.431C173.54 549.431 172.4 550.871 169.98 552.401C167.62 553.891 165.25 555.351 165.59 556.051C165.94 556.741 171.58 564.991 174.88 566.901C178.18 568.811 175.35 565.221 175.18 564.351C175.01 563.481 173.32 559.341 174.71 557.431C176.1 555.521 177.75 554.391 177.31 553.521C176.88 552.671 174.71 548.851 173.54 549.431Z" fill="black"/>
<path d="M197.71 496.471C197.71 496.471 198.24 519.681 195.46 523.851C192.68 528.021 175.61 542.721 171.91 550.121C171.91 550.121 174.22 555.671 178.39 555.441C178.39 555.441 187.95 544.211 194.99 540.011C200.99 536.431 204.54 533.341 205.82 530.211C207.09 527.081 216.58 497.571 216.58 497.571L197.71 496.471Z" fill="url(#paint56_linear_4212_263)"/>
<path d="M168.92 553.08C168.92 553.08 168.2 555.02 170.33 556.32C172.13 557.42 175.01 557.2 174.86 559.04C174.7 561.05 175.25 564.49 176.88 566.47C178.07 567.92 181.48 570.67 180.71 571.35C180.16 571.84 174.63 572.76 168.6 566.84C162.25 560.61 162.06 557.36 162.35 556.71C162.73 555.81 165.67 553.52 168.92 553.08ZM220.46 560.48C220.46 560.48 220.37 565.34 220.81 566.56C221.24 567.78 231.31 567.6 233.57 565.69C235.83 563.78 228.19 563.34 226.71 561.87C226.05 561.21 225.31 559.36 225.31 559.36L220.46 560.48Z" fill="black"/>
<path d="M198.41 482.99C198.41 482.99 195.8 489.75 196.18 494.64C196.91 504.08 209.06 524.31 210.45 528.48C211.84 532.65 208.95 539.13 211.72 545.84C214.5 552.55 219.36 561.12 219.48 561.58C219.6 562.04 225.37 562.63 226.6 559.68C225.38 555.69 223.17 548.16 222.36 541.33C221.55 534.5 220.18 525.65 219.95 521.37C219.72 517.09 214.25 483.67 214.25 483.67C214.25 483.67 211.95 484.03 198.41 482.99Z" fill="url(#paint57_linear_4212_263)"/>
<path d="M220.49 563.64C220.49 563.64 221.16 566.56 224.05 565.81C226.94 565.06 225.79 563.19 226.76 562.45C227.37 561.98 228.81 562.27 231.98 562.98C236.01 563.88 242.46 564.3 242.46 566.57C242.46 567.68 237.54 570.33 231.66 570.96C225.78 571.6 220.05 570.38 219.41 570.03C218.78 569.68 219.27 565.47 220.49 563.64Z" fill="black"/>
<path d="M212.57 448.75C211.75 445.62 207.78 443.19 204.26 443.96C201.38 444.59 197.94 450.23 197.36 454.63C196.78 459.03 199.52 478.41 196.49 485.53C196.49 485.53 211.89 490.42 217.91 488.38C217.91 488.38 216.02 481.54 215.44 476.4C214.35 466.77 218.37 465.68 218.24 460.39C218.18 457.07 213.21 451.18 212.57 448.75Z" fill="url(#paint58_linear_4212_263)"/>
<path d="M205.05 450.86C202.77 450.42 200.82 452.46 199.96 458.46C198.88 465.99 197.72 476.92 198.38 480.35C198.75 482.27 210.52 479.81 221.03 476.22C222.64 475.67 224.84 477.55 226.35 477.42C229.26 477.17 233.81 475.81 233.11 474.23C232.69 473.29 229.69 472.76 229.85 472.64L233.54 471.26C233.45 470.36 231.46 470.64 229.45 470.27C226.5 469.74 223.91 470.28 221.02 471.37C218.96 472.15 209.16 474.23 205.37 473.53C205.98 469.3 206.79 464.08 207.21 461.38C208.16 455.13 208.71 451.56 205.05 450.86Z" fill="#684204"/>
<path d="M208.06 461.971C205.62 461.421 203.16 461.231 200.65 461.061L198.94 460.941C199.05 460.021 199.16 459.121 199.28 458.271C200.14 452.271 202.91 448.801 205.24 449.561C208.74 450.701 209.14 455.131 208.17 461.391C208.14 461.571 208.1 461.771 208.06 461.971Z" fill="url(#paint59_linear_4212_263)"/>
<path d="M206.19 422.33C210.86 420.62 214.26 423.65 214.79 424.84C211.25 425.27 213.77 428.95 211.18 430.92C208.77 432.74 209.91 435.47 209.42 440.24C208.63 447.92 199.35 446.39 197.64 453.27C194.17 444.34 202.72 440.13 201.77 434.26C200.78 428.22 202.33 423.75 206.19 422.33Z" fill="black"/>
<path d="M611.844 482.25V474H612.734V474.953H612.844C612.911 474.849 613.005 474.716 613.125 474.555C613.247 474.391 613.422 474.245 613.648 474.117C613.878 473.987 614.188 473.922 614.578 473.922C615.083 473.922 615.529 474.048 615.914 474.301C616.299 474.553 616.6 474.911 616.816 475.375C617.033 475.839 617.141 476.385 617.141 477.016C617.141 477.651 617.033 478.202 616.816 478.668C616.6 479.132 616.301 479.491 615.918 479.746C615.535 479.999 615.094 480.125 614.594 480.125C614.208 480.125 613.9 480.061 613.668 479.934C613.436 479.803 613.258 479.656 613.133 479.492C613.008 479.326 612.911 479.187 612.844 479.078H612.766V482.25H611.844ZM612.75 477C612.75 477.453 612.816 477.853 612.949 478.199C613.082 478.543 613.276 478.812 613.531 479.008C613.786 479.201 614.099 479.297 614.469 479.297C614.854 479.297 615.176 479.195 615.434 478.992C615.694 478.786 615.889 478.51 616.02 478.164C616.152 477.815 616.219 477.427 616.219 477C616.219 476.578 616.154 476.198 616.023 475.859C615.896 475.518 615.702 475.249 615.441 475.051C615.184 474.85 614.859 474.75 614.469 474.75C614.094 474.75 613.779 474.845 613.523 475.035C613.268 475.223 613.076 475.486 612.945 475.824C612.815 476.16 612.75 476.552 612.75 477ZM618.926 482.25C618.77 482.25 618.63 482.237 618.508 482.211C618.385 482.188 618.301 482.164 618.254 482.141L618.488 481.328C618.712 481.385 618.91 481.406 619.082 481.391C619.254 481.375 619.406 481.298 619.539 481.16C619.674 481.025 619.798 480.805 619.91 480.5L620.082 480.031L617.863 474H618.863L620.52 478.781H620.582L622.238 474H623.238L620.691 480.875C620.577 481.185 620.435 481.441 620.266 481.645C620.096 481.85 619.9 482.003 619.676 482.102C619.454 482.201 619.204 482.25 618.926 482.25ZM627.064 474V474.781H623.955V474H627.064ZM624.861 472.562H625.783V478.281C625.783 478.542 625.821 478.737 625.896 478.867C625.975 478.995 626.074 479.081 626.193 479.125C626.316 479.167 626.445 479.187 626.58 479.187C626.682 479.187 626.765 479.182 626.83 479.172C626.895 479.159 626.947 479.148 626.986 479.141L627.174 479.969C627.111 479.992 627.024 480.016 626.912 480.039C626.8 480.065 626.658 480.078 626.486 480.078C626.226 480.078 625.971 480.022 625.721 479.91C625.473 479.798 625.268 479.628 625.104 479.398C624.942 479.169 624.861 478.88 624.861 478.531V472.562ZM629.502 476.391V480H628.58V472H629.502V474.937H629.58C629.721 474.628 629.932 474.382 630.213 474.199C630.497 474.014 630.874 473.922 631.346 473.922C631.755 473.922 632.113 474.004 632.42 474.168C632.727 474.329 632.965 474.578 633.135 474.914C633.307 475.247 633.393 475.672 633.393 476.188V480H632.471V476.25C632.471 475.773 632.347 475.405 632.1 475.145C631.855 474.882 631.515 474.75 631.08 474.75C630.778 474.75 630.507 474.814 630.268 474.941C630.031 475.069 629.843 475.255 629.705 475.5C629.57 475.745 629.502 476.042 629.502 476.391ZM637.517 480.125C636.975 480.125 636.5 479.996 636.091 479.738C635.685 479.48 635.367 479.12 635.138 478.656C634.911 478.193 634.798 477.651 634.798 477.031C634.798 476.406 634.911 475.861 635.138 475.395C635.367 474.928 635.685 474.566 636.091 474.309C636.5 474.051 636.975 473.922 637.517 473.922C638.058 473.922 638.532 474.051 638.938 474.309C639.347 474.566 639.665 474.928 639.892 475.395C640.121 475.861 640.235 476.406 640.235 477.031C640.235 477.651 640.121 478.193 639.892 478.656C639.665 479.12 639.347 479.48 638.938 479.738C638.532 479.996 638.058 480.125 637.517 480.125ZM637.517 479.297C637.928 479.297 638.267 479.191 638.532 478.98C638.798 478.77 638.994 478.492 639.122 478.148C639.25 477.805 639.313 477.432 639.313 477.031C639.313 476.63 639.25 476.257 639.122 475.91C638.994 475.564 638.798 475.284 638.532 475.07C638.267 474.857 637.928 474.75 637.517 474.75C637.105 474.75 636.767 474.857 636.501 475.07C636.235 475.284 636.039 475.564 635.911 475.91C635.784 476.257 635.72 476.63 635.72 477.031C635.72 477.432 635.784 477.805 635.911 478.148C636.039 478.492 636.235 478.77 636.501 478.98C636.767 479.191 637.105 479.297 637.517 479.297ZM642.564 476.391V480H641.643V474H642.533V474.937H642.611C642.752 474.633 642.965 474.388 643.252 474.203C643.538 474.016 643.908 473.922 644.361 473.922C644.768 473.922 645.123 474.005 645.428 474.172C645.732 474.336 645.969 474.586 646.139 474.922C646.308 475.255 646.393 475.677 646.393 476.188V480H645.471V476.25C645.471 475.779 645.348 475.411 645.104 475.148C644.859 474.883 644.523 474.75 644.096 474.75C643.801 474.75 643.538 474.814 643.307 474.941C643.077 475.069 642.896 475.255 642.764 475.5C642.631 475.745 642.564 476.042 642.564 476.391Z" fill="#431CA3"/>
<defs>
<linearGradient id="paint0_linear_4212_263" x1="409.947" y1="4.69639" x2="409.947" y2="547.207" gradientUnits="userSpaceOnUse">
<stop stop-color="#7700BB"/>
<stop offset="1"/>
</linearGradient>
<linearGradient id="paint1_linear_4212_263" x1="531.334" y1="59.4051" x2="514.894" y2="141.152" gradientUnits="userSpaceOnUse">
<stop stop-color="#88CFDA"/>
<stop offset="0.008" stop-color="#89CFD9"/>
<stop offset="0.478" stop-color="#C8D9BB"/>
<stop offset="0.822" stop-color="#F0DFA7"/>
<stop offset="1" stop-color="#FFE1A0"/>
</linearGradient>
<linearGradient id="paint2_linear_4212_263" x1="558.986" y1="388.91" x2="713.901" y2="280.619" gradientUnits="userSpaceOnUse">
<stop offset="1"/>
</linearGradient>
<linearGradient id="paint3_linear_4212_263" x1="506.161" y1="497.927" x2="614.271" y2="318.581" gradientUnits="userSpaceOnUse">
<stop stop-color="#7633FF"/>
<stop offset="0.159" stop-color="#7137FF"/>
<stop offset="0.353" stop-color="#6243FF"/>
<stop offset="0.568" stop-color="#4957FF"/>
<stop offset="0.794" stop-color="#2672FF"/>
<stop offset="1" stop-color="#0090FF"/>
</linearGradient>
<linearGradient id="paint4_linear_4212_263" x1="571.972" y1="452.359" x2="571.557" y2="453.064" gradientUnits="userSpaceOnUse">
<stop offset="0.074" stop-color="#CEC228"/>
<stop offset="0.58" stop-color="#B2AE18"/>
</linearGradient>
<linearGradient id="paint5_linear_4212_263" x1="508.257" y1="400.405" x2="523.844" y2="396.935" gradientUnits="userSpaceOnUse">
<stop stop-color="#7700BB"/>
<stop offset="1"/>
</linearGradient>
<linearGradient id="paint6_linear_4212_263" x1="430.747" y1="445.399" x2="528.254" y2="423.689" gradientUnits="userSpaceOnUse">
<stop stop-color="#7700BB"/>
<stop offset="1"/>
</linearGradient>
<linearGradient id="paint7_linear_4212_263" x1="549.36" y1="485.117" x2="630.573" y2="467.035" gradientUnits="userSpaceOnUse">
<stop stop-color="#7700BB"/>
<stop offset="1"/>
</linearGradient>
<linearGradient id="paint8_linear_4212_263" x1="264.337" y1="368.76" x2="109.401" y2="260.499" gradientUnits="userSpaceOnUse">
<stop offset="1"/>
</linearGradient>
<linearGradient id="paint9_linear_4212_263" x1="481.058" y1="566.472" x2="578.279" y2="412.26" gradientUnits="userSpaceOnUse">
<stop stop-color="#59023F"/>
<stop offset="0.119" stop-color="#590444"/>
<stop offset="0.265" stop-color="#5A0A53"/>
<stop offset="0.426" stop-color="#5C156C"/>
<stop offset="0.597" stop-color="#5E238F"/>
<stop offset="0.776" stop-color="#6135BC"/>
<stop offset="0.96" stop-color="#644CF2"/>
<stop offset="1" stop-color="#6551FF"/>
</linearGradient>
<linearGradient id="paint10_linear_4212_263" x1="545.509" y1="527.863" x2="545.355" y2="528.666" gradientUnits="userSpaceOnUse">
<stop offset="0.074" stop-color="#CEC228"/>
<stop offset="0.58" stop-color="#B2AE18"/>
</linearGradient>
<linearGradient id="paint11_linear_4212_263" x1="468.089" y1="500.284" x2="481.609" y2="491.789" gradientUnits="userSpaceOnUse">
<stop stop-color="#7700BB"/>
<stop offset="1"/>
</linearGradient>
<linearGradient id="paint12_linear_4212_263" x1="410.146" y1="568.664" x2="494.733" y2="515.516" gradientUnits="userSpaceOnUse">
<stop stop-color="#7700BB"/>
<stop offset="1"/>
</linearGradient>
<linearGradient id="paint13_linear_4212_263" x1="305.816" y1="457.117" x2="80.3758" y2="336.435" gradientUnits="userSpaceOnUse">
<stop stop-color="#7633FF"/>
<stop offset="0.159" stop-color="#7137FF"/>
<stop offset="0.353" stop-color="#6243FF"/>
<stop offset="0.568" stop-color="#4957FF"/>
<stop offset="0.794" stop-color="#2672FF"/>
<stop offset="1" stop-color="#0090FF"/>
</linearGradient>
<linearGradient id="paint14_linear_4212_263" x1="260.994" y1="472.335" x2="261.739" y2="472.672" gradientUnits="userSpaceOnUse">
<stop offset="0.074" stop-color="#CEC228"/>
<stop offset="0.58" stop-color="#B2AE18"/>
</linearGradient>
<linearGradient id="paint15_linear_4212_263" x1="357.656" y1="567.533" x2="255.966" y2="394.324" gradientUnits="userSpaceOnUse">
<stop stop-color="#59023F"/>
<stop offset="0.119" stop-color="#590444"/>
<stop offset="0.265" stop-color="#5A0A53"/>
<stop offset="0.426" stop-color="#5C156C"/>
<stop offset="0.597" stop-color="#5E238F"/>
<stop offset="0.776" stop-color="#6135BC"/>
<stop offset="0.96" stop-color="#644CF2"/>
<stop offset="1" stop-color="#6551FF"/>
</linearGradient>
<linearGradient id="paint16_linear_4212_263" x1="299.338" y1="529.113" x2="299.564" y2="529.899" gradientUnits="userSpaceOnUse">
<stop offset="0.074" stop-color="#CEC228"/>
<stop offset="0.58" stop-color="#B2AE18"/>
</linearGradient>
<linearGradient id="paint17_linear_4212_263" x1="374.026" y1="494.689" x2="359.794" y2="487.439" gradientUnits="userSpaceOnUse">
<stop stop-color="#7700BB"/>
<stop offset="1"/>
</linearGradient>
<linearGradient id="paint18_linear_4212_263" x1="437.867" y1="557.598" x2="348.849" y2="512.249" gradientUnits="userSpaceOnUse">
<stop stop-color="#7700BB"/>
<stop offset="1"/>
</linearGradient>
<linearGradient id="paint19_linear_4212_263" x1="332.496" y1="531.202" x2="229.999" y2="478.986" gradientUnits="userSpaceOnUse">
<stop stop-color="#7700BB"/>
<stop offset="1"/>
</linearGradient>
<linearGradient id="paint20_linear_4212_263" x1="320.62" y1="233.208" x2="329.403" y2="237.213" gradientUnits="userSpaceOnUse">
<stop stop-color="#7633FF"/>
<stop offset="0.159" stop-color="#7137FF"/>
<stop offset="0.353" stop-color="#6243FF"/>
<stop offset="0.568" stop-color="#4957FF"/>
<stop offset="0.794" stop-color="#2672FF"/>
<stop offset="1" stop-color="#0090FF"/>
</linearGradient>
<linearGradient id="paint21_linear_4212_263" x1="308.929" y1="235.843" x2="316.703" y2="239.387" gradientUnits="userSpaceOnUse">
<stop stop-color="#7633FF"/>
<stop offset="0.159" stop-color="#7137FF"/>
<stop offset="0.353" stop-color="#6243FF"/>
<stop offset="0.568" stop-color="#4957FF"/>
<stop offset="0.794" stop-color="#2672FF"/>
<stop offset="1" stop-color="#0090FF"/>
</linearGradient>
<linearGradient id="paint22_linear_4212_263" x1="302.362" y1="247.755" x2="309.288" y2="250.913" gradientUnits="userSpaceOnUse">
<stop stop-color="#7633FF"/>
<stop offset="0.159" stop-color="#7137FF"/>
<stop offset="0.353" stop-color="#6243FF"/>
<stop offset="0.568" stop-color="#4957FF"/>
<stop offset="0.794" stop-color="#2672FF"/>
<stop offset="1" stop-color="#0090FF"/>
</linearGradient>
<linearGradient id="paint23_linear_4212_263" x1="287.26" y1="241.064" x2="297.094" y2="245.548" gradientUnits="userSpaceOnUse">
<stop stop-color="#7633FF"/>
<stop offset="0.159" stop-color="#7137FF"/>
<stop offset="0.353" stop-color="#6243FF"/>
<stop offset="0.568" stop-color="#4957FF"/>
<stop offset="0.794" stop-color="#2672FF"/>
<stop offset="1" stop-color="#0090FF"/>
</linearGradient>
<linearGradient id="paint24_linear_4212_263" x1="272.245" y1="264.296" x2="283.739" y2="269.537" gradientUnits="userSpaceOnUse">
<stop stop-color="#7633FF"/>
<stop offset="0.159" stop-color="#7137FF"/>
<stop offset="0.353" stop-color="#6243FF"/>
<stop offset="0.568" stop-color="#4957FF"/>
<stop offset="0.794" stop-color="#2672FF"/>
<stop offset="1" stop-color="#0090FF"/>
</linearGradient>
<linearGradient id="paint25_linear_4212_263" x1="278.555" y1="250.38" x2="287.834" y2="254.611" gradientUnits="userSpaceOnUse">
<stop stop-color="#7633FF"/>
<stop offset="0.159" stop-color="#7137FF"/>
<stop offset="0.353" stop-color="#6243FF"/>
<stop offset="0.568" stop-color="#4957FF"/>
<stop offset="0.794" stop-color="#2672FF"/>
<stop offset="1" stop-color="#0090FF"/>
</linearGradient>
<linearGradient id="paint26_linear_4212_263" x1="485.219" y1="240.662" x2="476.436" y2="244.667" gradientUnits="userSpaceOnUse">
<stop stop-color="#7633FF"/>
<stop offset="0.159" stop-color="#7137FF"/>
<stop offset="0.353" stop-color="#6243FF"/>
<stop offset="0.568" stop-color="#4957FF"/>
<stop offset="0.794" stop-color="#2672FF"/>
<stop offset="1" stop-color="#0090FF"/>
</linearGradient>
<linearGradient id="paint27_linear_4212_263" x1="496.909" y1="243.297" x2="489.136" y2="246.841" gradientUnits="userSpaceOnUse">
<stop stop-color="#7633FF"/>
<stop offset="0.159" stop-color="#7137FF"/>
<stop offset="0.353" stop-color="#6243FF"/>
<stop offset="0.568" stop-color="#4957FF"/>
<stop offset="0.794" stop-color="#2672FF"/>
<stop offset="1" stop-color="#0090FF"/>
</linearGradient>
<linearGradient id="paint28_linear_4212_263" x1="503.476" y1="255.209" x2="496.55" y2="258.367" gradientUnits="userSpaceOnUse">
<stop stop-color="#7633FF"/>
<stop offset="0.159" stop-color="#7137FF"/>
<stop offset="0.353" stop-color="#6243FF"/>
<stop offset="0.568" stop-color="#4957FF"/>
<stop offset="0.794" stop-color="#2672FF"/>
<stop offset="1" stop-color="#0090FF"/>
</linearGradient>
<linearGradient id="paint29_linear_4212_263" x1="518.579" y1="248.517" x2="508.744" y2="253.001" gradientUnits="userSpaceOnUse">
<stop stop-color="#7633FF"/>
<stop offset="0.159" stop-color="#7137FF"/>
<stop offset="0.353" stop-color="#6243FF"/>
<stop offset="0.568" stop-color="#4957FF"/>
<stop offset="0.794" stop-color="#2672FF"/>
<stop offset="1" stop-color="#0090FF"/>
</linearGradient>
<linearGradient id="paint30_linear_4212_263" x1="533.592" y1="271.749" x2="522.1" y2="276.99" gradientUnits="userSpaceOnUse">
<stop stop-color="#7633FF"/>
<stop offset="0.159" stop-color="#7137FF"/>
<stop offset="0.353" stop-color="#6243FF"/>
<stop offset="0.568" stop-color="#4957FF"/>
<stop offset="0.794" stop-color="#2672FF"/>
<stop offset="1" stop-color="#0090FF"/>
</linearGradient>
<linearGradient id="paint31_linear_4212_263" x1="527.283" y1="257.833" x2="518.005" y2="262.064" gradientUnits="userSpaceOnUse">
<stop stop-color="#7633FF"/>
<stop offset="0.159" stop-color="#7137FF"/>
<stop offset="0.353" stop-color="#6243FF"/>
<stop offset="0.568" stop-color="#4957FF"/>
<stop offset="0.794" stop-color="#2672FF"/>
<stop offset="1" stop-color="#0090FF"/>
</linearGradient>
<linearGradient id="paint32_linear_4212_263" x1="415.485" y1="615.038" x2="415.485" y2="544.718" gradientUnits="userSpaceOnUse">
<stop stop-color="#7700BB"/>
<stop offset="0.118" stop-color="#6300B3"/>
<stop offset="0.393" stop-color="#3800A2"/>
<stop offset="0.641" stop-color="#190095"/>
<stop offset="0.852" stop-color="#07008E"/>
<stop offset="1"/>
</linearGradient>
<linearGradient id="paint33_linear_4212_263" x1="421.101" y1="328.465" x2="390.929" y2="204.425" gradientUnits="userSpaceOnUse">
<stop stop-color="white"/>
<stop offset="0.122" stop-color="#FBFDFF"/>
<stop offset="0.248" stop-color="#EFF5FF"/>
<stop offset="0.374" stop-color="#DAE9FF"/>
<stop offset="0.501" stop-color="#BDD9FF"/>
<stop offset="0.629" stop-color="#98C3FF"/>
<stop offset="0.758" stop-color="#6BA9FF"/>
<stop offset="0.885" stop-color="#378AFF"/>
<stop offset="1" stop-color="#006AFF"/>
</linearGradient>
<linearGradient id="paint34_linear_4212_263" x1="413.582" y1="264.081" x2="413.582" y2="137.683" gradientUnits="userSpaceOnUse">
<stop stop-color="white"/>
<stop offset="0.122" stop-color="#FBFDFF"/>
<stop offset="0.248" stop-color="#EFF5FF"/>
<stop offset="0.374" stop-color="#DAE9FF"/>
<stop offset="0.501" stop-color="#BDD9FF"/>
<stop offset="0.629" stop-color="#98C3FF"/>
<stop offset="0.758" stop-color="#6BA9FF"/>
<stop offset="0.885" stop-color="#378AFF"/>
<stop offset="1" stop-color="#006AFF"/>
</linearGradient>
<linearGradient id="paint35_linear_4212_263" x1="343.072" y1="304.563" x2="329.662" y2="435.308" gradientUnits="userSpaceOnUse">
<stop stop-color="white"/>
<stop offset="0.122" stop-color="#FBFDFF"/>
<stop offset="0.248" stop-color="#EFF5FF"/>
<stop offset="0.374" stop-color="#DAE9FF"/>
<stop offset="0.501" stop-color="#BDD9FF"/>
<stop offset="0.629" stop-color="#98C3FF"/>
<stop offset="0.758" stop-color="#6BA9FF"/>
<stop offset="0.885" stop-color="#378AFF"/>
<stop offset="1" stop-color="#006AFF"/>
</linearGradient>
<linearGradient id="paint36_linear_4212_263" x1="453.861" y1="311.319" x2="496.326" y2="430.889" gradientUnits="userSpaceOnUse">
<stop stop-color="white"/>
<stop offset="0.122" stop-color="#FBFDFF"/>
<stop offset="0.248" stop-color="#EFF5FF"/>
<stop offset="0.374" stop-color="#DAE9FF"/>
<stop offset="0.501" stop-color="#BDD9FF"/>
<stop offset="0.629" stop-color="#98C3FF"/>
<stop offset="0.758" stop-color="#6BA9FF"/>
<stop offset="0.885" stop-color="#378AFF"/>
<stop offset="1" stop-color="#006AFF"/>
</linearGradient>
<linearGradient id="paint37_linear_4212_263" x1="412.899" y1="319.955" x2="412.899" y2="464.149" gradientUnits="userSpaceOnUse">
<stop stop-color="#1DACFF"/>
<stop offset="0.114" stop-color="#1B9FEF"/>
<stop offset="0.337" stop-color="#157DC6"/>
<stop offset="0.647" stop-color="#0C4682"/>
<stop offset="1" stop-color="#00002E"/>
</linearGradient>
<linearGradient id="paint38_linear_4212_263" x1="414.425" y1="512.534" x2="414.425" y2="365.375" gradientUnits="userSpaceOnUse">
<stop/>
<stop offset="0.101" stop-color="#020305"/>
<stop offset="0.224" stop-color="#0A0B14"/>
<stop offset="0.36" stop-color="#151A2D"/>
<stop offset="0.505" stop-color="#252D50"/>
<stop offset="0.657" stop-color="#3A477D"/>
<stop offset="0.814" stop-color="#5466B4"/>
<stop offset="0.974" stop-color="#728AF4"/>
<stop offset="1" stop-color="#7790FF"/>
</linearGradient>
<linearGradient id="paint39_linear_4212_263" x1="251.642" y1="504.75" x2="435.817" y2="504.75" gradientUnits="userSpaceOnUse">
<stop stop-color="#311842"/>
<stop offset="0.461" stop-color="#190C4B"/>
<stop offset="1" stop-color="#000054"/>
</linearGradient>
<linearGradient id="paint40_linear_4212_263" x1="423.618" y1="562.617" x2="523.441" y2="562.617" gradientUnits="userSpaceOnUse">
<stop stop-color="white"/>
<stop offset="0.122" stop-color="#FBFDFF"/>
<stop offset="0.248" stop-color="#EFF5FF"/>
<stop offset="0.374" stop-color="#DAE9FF"/>
<stop offset="0.501" stop-color="#BDD9FF"/>
<stop offset="0.629" stop-color="#98C3FF"/>
<stop offset="0.758" stop-color="#6BA9FF"/>
<stop offset="0.885" stop-color="#378AFF"/>
<stop offset="1" stop-color="#006AFF"/>
</linearGradient>
<linearGradient id="paint41_linear_4212_263" x1="397.638" y1="505.867" x2="581.813" y2="505.867" gradientUnits="userSpaceOnUse">
<stop stop-color="#311842"/>
<stop offset="0.461" stop-color="#190C4B"/>
<stop offset="1" stop-color="#000054"/>
</linearGradient>
<linearGradient id="paint42_linear_4212_263" x1="407.747" y1="535.424" x2="263.006" y2="590.689" gradientUnits="userSpaceOnUse">
<stop stop-color="white"/>
<stop offset="0.122" stop-color="#FBFDFF"/>
<stop offset="0.248" stop-color="#EFF5FF"/>
<stop offset="0.374" stop-color="#DAE9FF"/>
<stop offset="0.501" stop-color="#BDD9FF"/>
<stop offset="0.629" stop-color="#98C3FF"/>
<stop offset="0.758" stop-color="#6BA9FF"/>
<stop offset="0.885" stop-color="#378AFF"/>
<stop offset="1" stop-color="#006AFF"/>
</linearGradient>
<linearGradient id="paint43_linear_4212_263" x1="564.059" y1="389.772" x2="610.275" y2="469.479" gradientUnits="userSpaceOnUse">
<stop stop-color="#FF5E00"/>
<stop offset="0.067" stop-color="#DE5F28"/>
<stop offset="0.162" stop-color="#B5615A"/>
<stop offset="0.262" stop-color="#906286"/>
<stop offset="0.365" stop-color="#7163AB"/>
<stop offset="0.472" stop-color="#5864CA"/>
<stop offset="0.584" stop-color="#4565E1"/>
<stop offset="0.703" stop-color="#3766F2"/>
<stop offset="0.834" stop-color="#2F66FC"/>
<stop offset="1" stop-color="#2C66FF"/>
</linearGradient>
<linearGradient id="paint44_linear_4212_263" x1="580.94" y1="454.718" x2="578.186" y2="503.368" gradientUnits="userSpaceOnUse">
<stop stop-color="#403372"/>
<stop offset="0.143" stop-color="#3E3677"/>
<stop offset="0.318" stop-color="#374086"/>
<stop offset="0.511" stop-color="#2B519F"/>
<stop offset="0.716" stop-color="#1C68C2"/>
<stop offset="0.929" stop-color="#0885EE"/>
<stop offset="1" stop-color="#0090FF"/>
</linearGradient>
<linearGradient id="paint45_linear_4212_263" x1="546.879" y1="386" x2="593.096" y2="465.706" gradientUnits="userSpaceOnUse">
<stop stop-color="#FF5E00"/>
<stop offset="0.151" stop-color="#FC5E03"/>
<stop offset="0.28" stop-color="#F45E0E"/>
<stop offset="0.401" stop-color="#E55F20"/>
<stop offset="0.517" stop-color="#D06038"/>
<stop offset="0.63" stop-color="#B66159"/>
<stop offset="0.74" stop-color="#956280"/>
<stop offset="0.847" stop-color="#6F63AF"/>
<stop offset="0.951" stop-color="#4365E3"/>
<stop offset="1" stop-color="#2C66FF"/>
</linearGradient>
<linearGradient id="paint46_linear_4212_263" x1="541.968" y1="370.424" x2="576.298" y2="370.424" gradientUnits="userSpaceOnUse">
<stop stop-color="#88CFDA"/>
<stop offset="0.008" stop-color="#89CFD9"/>
<stop offset="0.478" stop-color="#C8D9BB"/>
<stop offset="0.822" stop-color="#F0DFA7"/>
<stop offset="1" stop-color="#FFE1A0"/>
</linearGradient>
<linearGradient id="paint47_linear_4212_263" x1="559.375" y1="451.252" x2="576.767" y2="417.878" gradientUnits="userSpaceOnUse">
<stop stop-color="#FF5E00"/>
<stop offset="0.118" stop-color="#FB5E04"/>
<stop offset="0.242" stop-color="#F15F11"/>
<stop offset="0.37" stop-color="#DF5F26"/>
<stop offset="0.5" stop-color="#C76044"/>
<stop offset="0.632" stop-color="#A7616A"/>
<stop offset="0.765" stop-color="#806399"/>
<stop offset="0.897" stop-color="#5464CF"/>
<stop offset="1" stop-color="#2C66FF"/>
</linearGradient>
<linearGradient id="paint48_linear_4212_263" x1="580.729" y1="475.156" x2="583.543" y2="475.156" gradientUnits="userSpaceOnUse">
<stop offset="0.041" stop-color="#100060"/>
<stop offset="1" stop-color="#090E96"/>
</linearGradient>
<linearGradient id="paint49_linear_4212_263" x1="282.891" y1="367.299" x2="307.718" y2="321.193" gradientUnits="userSpaceOnUse">
<stop stop-color="#88CFDA"/>
<stop offset="0.008" stop-color="#89CFD9"/>
<stop offset="0.478" stop-color="#C8D9BB"/>
<stop offset="0.822" stop-color="#F0DFA7"/>
<stop offset="1" stop-color="#FFE1A0"/>
</linearGradient>
<linearGradient id="paint50_linear_4212_263" x1="274.445" y1="412.103" x2="277.458" y2="380.238" gradientUnits="userSpaceOnUse">
<stop offset="0.041" stop-color="#EB3300"/>
<stop offset="1" stop-color="#FF8800"/>
</linearGradient>
<linearGradient id="paint51_linear_4212_263" x1="271.274" y1="378.423" x2="279.386" y2="350.225" gradientUnits="userSpaceOnUse">
<stop offset="0.193" stop-color="#2F1109"/>
<stop offset="0.681" stop-color="#7A3E25"/>
</linearGradient>
<linearGradient id="paint52_linear_4212_263" x1="650.5" y1="497.21" x2="606.705" y2="455.761" gradientUnits="userSpaceOnUse">
<stop stop-color="#88CFDA"/>
<stop offset="0.008" stop-color="#89CFD9"/>
<stop offset="0.478" stop-color="#C8D9BB"/>
<stop offset="0.822" stop-color="#F0DFA7"/>
<stop offset="1" stop-color="#FFE1A0"/>
</linearGradient>
<linearGradient id="paint53_linear_4212_263" x1="661.599" y1="500.378" x2="667.003" y2="456.626" gradientUnits="userSpaceOnUse">
<stop stop-color="#7633FF"/>
<stop offset="0.159" stop-color="#7137FF"/>
<stop offset="0.353" stop-color="#6243FF"/>
<stop offset="0.568" stop-color="#4957FF"/>
<stop offset="0.794" stop-color="#2672FF"/>
<stop offset="1" stop-color="#0090FF"/>
</linearGradient>
<linearGradient id="paint54_linear_4212_263" x1="666.387" y1="460.548" x2="667.379" y2="474.899" gradientUnits="userSpaceOnUse">
<stop stop-color="#7633FF"/>
<stop offset="0.159" stop-color="#7137FF"/>
<stop offset="0.353" stop-color="#6243FF"/>
<stop offset="0.568" stop-color="#4957FF"/>
<stop offset="0.794" stop-color="#2672FF"/>
<stop offset="1" stop-color="#0090FF"/>
</linearGradient>
<linearGradient id="paint55_linear_4212_263" x1="219.334" y1="485.372" x2="262.076" y2="439.279" gradientUnits="userSpaceOnUse">
<stop stop-color="#88CFDA"/>
<stop offset="0.008" stop-color="#89CFD9"/>
<stop offset="0.478" stop-color="#C8D9BB"/>
<stop offset="0.822" stop-color="#F0DFA7"/>
<stop offset="1" stop-color="#FFE1A0"/>
</linearGradient>
<linearGradient id="paint56_linear_4212_263" x1="216.583" y1="525.964" x2="171.906" y2="525.964" gradientUnits="userSpaceOnUse">
<stop stop-color="#311341"/>
<stop offset="0.23" stop-color="#3113C2"/>
<stop offset="0.348" stop-color="#2F18C5"/>
<stop offset="0.493" stop-color="#2927CC"/>
<stop offset="0.652" stop-color="#1F40D8"/>
<stop offset="0.822" stop-color="#1263E9"/>
<stop offset="0.998" stop-color="#008FFF"/>
<stop offset="1" stop-color="#0090FF"/>
</linearGradient>
<linearGradient id="paint57_linear_4212_263" x1="202.241" y1="474.085" x2="214.268" y2="536.054" gradientUnits="userSpaceOnUse">
<stop stop-color="#7633FF"/>
<stop offset="0.159" stop-color="#7137FF"/>
<stop offset="0.353" stop-color="#6243FF"/>
<stop offset="0.568" stop-color="#4957FF"/>
<stop offset="0.794" stop-color="#2672FF"/>
<stop offset="1" stop-color="#0090FF"/>
</linearGradient>
<linearGradient id="paint58_linear_4212_263" x1="209.906" y1="493.322" x2="203.818" y2="444.035" gradientUnits="userSpaceOnUse">
<stop offset="0.041" stop-color="#EB3300"/>
<stop offset="1" stop-color="#FF8800"/>
</linearGradient>
<linearGradient id="paint59_linear_4212_263" x1="204.511" y1="448.454" x2="203.394" y2="464.621" gradientUnits="userSpaceOnUse">
<stop stop-color="#FF5E00"/>
<stop offset="0.151" stop-color="#FC5E03"/>
<stop offset="0.28" stop-color="#F45E0E"/>
<stop offset="0.401" stop-color="#E55F20"/>
<stop offset="0.517" stop-color="#D06038"/>
<stop offset="0.63" stop-color="#B66159"/>
<stop offset="0.74" stop-color="#956280"/>
<stop offset="0.847" stop-color="#6F63AF"/>
<stop offset="0.951" stop-color="#4365E3"/>
<stop offset="1" stop-color="#2C66FF"/>
</linearGradient>
</defs>
</svg>
