<svg width="261" height="51" viewBox="0 0 261 51" fill="none" xmlns="http://www.w3.org/2000/svg">
<path d="M91.3029 50.499L83.6311 37.516L68.5404 11.8028L61.6274 0.0843056L53.1125 10.5382L48.6443 16.0181L35.1554 32.542C32.8792 35.4926 29.3383 37.4317 25.2917 37.4317C18.4629 37.4317 12.8987 31.8675 12.8987 25.0388C12.8987 18.21 18.2943 12.6458 25.2074 12.6458C32.1204 12.6458 37.6003 18.21 37.6003 25.0388C37.6003 25.7132 37.516 26.3033 37.4317 26.9778L47.8013 14.3319C43.7546 5.90139 35.1554 0 25.1231 0C11.2969 0 0 11.2126 0 25.1231C0 38.9492 11.2969 50.499 25.1231 50.499C33.1321 50.499 40.2981 46.621 44.8506 40.6353L59.857 22.2567L68.7933 37.516L68.9619 37.8532H48.9815C48.9815 37.8532 48.9815 37.9375 49.0658 38.0218C49.5717 39.5393 52.0165 49.7403 65.1682 50.499H78.5728H91.3029Z" fill="white"/>
<path d="M103.351 23.9531C103.351 24.9281 103.201 25.8281 102.938 26.6531C102.638 27.4781 102.226 28.1531 101.701 28.7531C101.176 29.3156 100.501 29.7656 99.7508 30.1031C99.0008 30.4031 98.1383 30.5906 97.2383 30.5906C96.3383 30.5906 95.4758 30.4406 94.7258 30.1031C93.9758 29.8031 93.3383 29.3531 92.7758 28.7531C92.2508 28.1906 91.8008 27.4781 91.5008 26.6531C91.2008 25.8281 91.0508 24.9281 91.0508 23.9531C91.0508 22.9781 91.2008 22.0781 91.5008 21.2531C91.8008 20.4281 92.2508 19.7531 92.7758 19.1906C93.3383 18.6281 93.9758 18.1781 94.7258 17.8781C95.4758 17.5781 96.3008 17.3906 97.2008 17.3906C98.1008 17.3906 98.9258 17.5406 99.6758 17.8781C100.426 18.1781 101.063 18.6281 101.626 19.1906C102.151 19.7531 102.601 20.4656 102.901 21.2531C103.201 22.0781 103.351 22.9406 103.351 23.9531ZM99.7508 23.9531C99.7508 22.8656 99.5258 22.0031 99.1133 21.3656C98.6633 20.7281 98.0633 20.4281 97.2383 20.4281C96.4133 20.4281 95.8133 20.7281 95.3633 21.3656C94.9133 22.0031 94.6883 22.8656 94.6883 23.9531C94.6883 25.0406 94.9133 25.9031 95.3633 26.5406C95.8133 27.1781 96.4133 27.5156 97.2383 27.5156C98.0633 27.5156 98.6633 27.1781 99.1133 26.5406C99.5258 25.9031 99.7508 25.0406 99.7508 23.9531Z" fill="white"/>
<path d="M105.488 23.9535C105.488 23.0535 105.638 22.191 105.938 21.4035C106.238 20.616 106.651 19.9035 107.213 19.3035C107.776 18.7035 108.451 18.2535 109.238 17.8785C110.026 17.541 110.926 17.3535 111.938 17.3535C112.613 17.3535 113.213 17.4285 113.776 17.541C114.338 17.6535 114.863 17.841 115.388 18.066L114.638 20.8785C114.301 20.766 113.926 20.6535 113.551 20.541C113.138 20.4285 112.726 20.391 112.238 20.391C111.188 20.391 110.401 20.7285 109.913 21.366C109.388 22.0035 109.126 22.866 109.126 23.916C109.126 25.041 109.351 25.9035 109.838 26.541C110.326 27.141 111.151 27.4785 112.351 27.4785C112.763 27.4785 113.251 27.441 113.738 27.366C114.226 27.291 114.676 27.1785 115.088 26.991L115.576 29.8785C115.163 30.066 114.638 30.216 114.038 30.3285C113.438 30.441 112.726 30.516 112.013 30.516C110.888 30.516 109.876 30.3285 109.051 29.991C108.226 29.6535 107.551 29.2035 107.026 28.6035C106.501 28.0035 106.126 27.3285 105.863 26.541C105.601 25.7535 105.488 24.891 105.488 23.9535Z" fill="white"/>
<path d="M116.777 24.0656C116.777 22.9406 116.965 22.0031 117.302 21.1406C117.64 20.3156 118.09 19.6031 118.652 19.0781C119.215 18.5156 119.852 18.1031 120.565 17.8031C121.277 17.5031 122.027 17.3906 122.777 17.3906C124.54 17.3906 125.965 17.9156 126.977 19.0031C127.99 20.0906 128.515 21.6656 128.515 23.8031C128.515 23.9906 128.515 24.2531 128.477 24.4781C128.477 24.7406 128.44 24.9281 128.44 25.1156H120.415C120.49 25.8281 120.827 26.4281 121.427 26.8406C122.027 27.2531 122.852 27.4781 123.865 27.4781C124.502 27.4781 125.14 27.4031 125.777 27.2906C126.415 27.1781 126.902 27.0281 127.315 26.8406L127.802 29.7281C127.615 29.8406 127.352 29.9156 127.052 30.0281C126.752 30.1406 126.377 30.2156 126.002 30.2906C125.627 30.3656 125.215 30.4031 124.765 30.4781C124.315 30.5156 123.865 30.5531 123.452 30.5531C122.327 30.5531 121.352 30.4031 120.527 30.0656C119.702 29.7281 118.99 29.2781 118.465 28.7156C117.94 28.1531 117.527 27.4406 117.265 26.6531C116.89 25.8281 116.777 24.9656 116.777 24.0656ZM125.065 22.7156C125.065 22.4156 124.99 22.1156 124.915 21.8531C124.84 21.5531 124.69 21.3281 124.502 21.1031C124.315 20.8781 124.09 20.6906 123.827 20.5406C123.565 20.3906 123.19 20.3156 122.777 20.3156C122.365 20.3156 122.027 20.3906 121.765 20.5031C121.465 20.6531 121.24 20.8031 121.052 21.0281C120.865 21.2531 120.715 21.5156 120.602 21.8156C120.49 22.1156 120.415 22.4156 120.377 22.7156H125.065Z" fill="white"/>
<path d="M135.715 17.3906C136.765 17.3906 137.627 17.5031 138.34 17.7656C139.052 17.9906 139.577 18.3281 140.027 18.7781C140.44 19.2281 140.74 19.7531 140.927 20.3906C141.115 21.0281 141.19 21.7406 141.19 22.4906V29.8406C140.665 29.9531 139.99 30.0656 139.09 30.2156C138.19 30.3656 137.102 30.4406 135.827 30.4406C135.002 30.4406 134.29 30.3656 133.615 30.2156C132.94 30.0656 132.377 29.8406 131.927 29.5031C131.44 29.1656 131.102 28.7531 130.84 28.2281C130.577 27.7031 130.465 27.0656 130.465 26.3156C130.465 25.6031 130.615 24.9656 130.915 24.4781C131.215 23.9531 131.59 23.5781 132.077 23.2781C132.565 22.9781 133.127 22.7531 133.765 22.6406C134.402 22.4906 135.04 22.4531 135.752 22.4531C136.202 22.4531 136.615 22.4906 136.99 22.5281C137.327 22.5656 137.627 22.6031 137.852 22.6781V22.3406C137.852 21.7406 137.665 21.2531 137.29 20.8781C136.915 20.5031 136.277 20.3156 135.377 20.3156C134.777 20.3156 134.177 20.3531 133.615 20.4281C133.015 20.5031 132.527 20.6531 132.077 20.8031L131.627 17.9531C131.815 17.8781 132.077 17.8406 132.415 17.7656C132.715 17.6906 133.052 17.6156 133.427 17.5781C133.802 17.5406 134.177 17.4656 134.59 17.4281C134.89 17.3906 135.302 17.3906 135.715 17.3906ZM136.015 27.7406C136.352 27.7406 136.69 27.7406 137.027 27.7031C137.327 27.7031 137.59 27.6656 137.777 27.6281V24.9281C137.627 24.8906 137.44 24.8531 137.14 24.8156C136.84 24.7781 136.577 24.7781 136.352 24.7781C136.015 24.7781 135.715 24.8156 135.415 24.8531C135.115 24.8906 134.852 24.9656 134.627 25.0781C134.402 25.1906 134.215 25.3406 134.102 25.5281C133.99 25.7156 133.915 25.9406 133.915 26.2406C133.915 26.8031 134.102 27.1781 134.477 27.4031C134.852 27.6281 135.34 27.7406 136.015 27.7406Z" fill="white"/>
<path d="M144.34 18.1402C144.94 17.9527 145.727 17.8027 146.665 17.6527C147.602 17.5027 148.615 17.4277 149.665 17.4277C150.715 17.4277 151.615 17.5777 152.327 17.8402C153.04 18.1027 153.602 18.5152 154.015 19.0027C154.427 19.5277 154.727 20.1277 154.877 20.8027C155.065 21.5152 155.14 22.2652 155.14 23.1277V30.1777H151.615V23.5777C151.615 22.4527 151.465 21.6277 151.165 21.1402C150.865 20.6527 150.302 20.4277 149.477 20.4277C149.215 20.4277 148.952 20.4277 148.652 20.4652C148.352 20.5027 148.127 20.5027 147.902 20.5402V30.1777H144.377V18.1402H144.34Z" fill="white"/>
<path d="M168.527 17.3906C169.577 17.3906 170.44 17.5031 171.152 17.7656C171.865 17.9906 172.39 18.3281 172.84 18.7781C173.252 19.2281 173.552 19.7531 173.74 20.3906C173.927 21.0281 174.002 21.7406 174.002 22.4906V29.8406C173.477 29.9531 172.802 30.0656 171.902 30.2156C171.002 30.3656 169.915 30.4406 168.64 30.4406C167.815 30.4406 167.102 30.3656 166.427 30.2156C165.752 30.0656 165.19 29.8406 164.74 29.5031C164.252 29.1656 163.915 28.7531 163.652 28.2281C163.39 27.7031 163.277 27.0656 163.277 26.3156C163.277 25.6031 163.427 24.9656 163.727 24.4781C164.027 23.9531 164.402 23.5781 164.89 23.2781C165.377 22.9781 165.94 22.7531 166.577 22.6406C167.215 22.4906 167.852 22.4531 168.565 22.4531C169.015 22.4531 169.427 22.4906 169.802 22.5281C170.14 22.5656 170.44 22.6031 170.665 22.6781V22.3406C170.665 21.7406 170.477 21.2531 170.102 20.8781C169.727 20.5031 169.09 20.3156 168.19 20.3156C167.59 20.3156 166.99 20.3531 166.427 20.4281C165.827 20.5031 165.34 20.6531 164.89 20.8031L164.44 17.9531C164.627 17.8781 164.89 17.8406 165.227 17.7656C165.527 17.6906 165.865 17.6156 166.24 17.5781C166.615 17.5406 166.99 17.4656 167.402 17.4281C167.702 17.3906 168.115 17.3906 168.527 17.3906ZM168.827 27.7406C169.165 27.7406 169.502 27.7406 169.84 27.7031C170.14 27.7031 170.402 27.6656 170.59 27.6281V24.9281C170.44 24.8906 170.252 24.8531 169.952 24.8156C169.652 24.7781 169.39 24.7781 169.165 24.7781C168.827 24.7781 168.527 24.8156 168.227 24.8531C167.927 24.8906 167.665 24.9656 167.44 25.0781C167.215 25.1906 167.027 25.3406 166.915 25.5281C166.802 25.7156 166.727 25.9406 166.727 26.2406C166.727 26.8031 166.915 27.1781 167.29 27.4031C167.665 27.6281 168.152 27.7406 168.827 27.7406Z" fill="white"/>
<path d="M176.59 23.9535C176.59 23.0535 176.74 22.191 177.04 21.4035C177.34 20.616 177.752 19.9035 178.315 19.3035C178.877 18.7035 179.552 18.2535 180.34 17.8785C181.127 17.541 182.027 17.3535 183.04 17.3535C183.715 17.3535 184.315 17.4285 184.877 17.541C185.44 17.6535 185.965 17.841 186.49 18.066L185.74 20.8785C185.402 20.766 185.027 20.6535 184.652 20.541C184.24 20.4285 183.827 20.391 183.34 20.391C182.29 20.391 181.502 20.7285 181.015 21.366C180.49 22.0035 180.227 22.866 180.227 23.916C180.227 25.041 180.452 25.9035 180.94 26.541C181.427 27.141 182.252 27.4785 183.452 27.4785C183.865 27.4785 184.352 27.441 184.84 27.366C185.327 27.291 185.777 27.1785 186.19 26.991L186.677 29.8785C186.265 30.066 185.74 30.216 185.14 30.3285C184.54 30.441 183.827 30.516 183.115 30.516C181.99 30.516 180.977 30.3285 180.152 29.991C179.327 29.6535 178.652 29.2035 178.127 28.6035C177.602 28.0035 177.227 27.3285 176.965 26.541C176.702 25.7535 176.59 24.891 176.59 23.9535Z" fill="white"/>
<path d="M192.938 17.3906C193.988 17.3906 194.85 17.5031 195.563 17.7656C196.275 18.0281 196.8 18.3281 197.25 18.7781C197.663 19.2281 197.962 19.7531 198.15 20.3906C198.337 21.0281 198.413 21.7406 198.413 22.4906V29.8406C197.888 29.9531 197.213 30.0656 196.313 30.2156C195.413 30.3656 194.325 30.4406 193.05 30.4406C192.225 30.4406 191.512 30.3656 190.837 30.2156C190.162 30.0656 189.6 29.8406 189.15 29.5031C188.7 29.1656 188.325 28.7531 188.063 28.2281C187.8 27.7031 187.688 27.0656 187.688 26.3156C187.688 25.6031 187.838 24.9656 188.138 24.4781C188.438 23.9531 188.812 23.5781 189.3 23.2781C189.787 22.9781 190.35 22.7531 190.987 22.6406C191.625 22.4906 192.263 22.4531 192.975 22.4531C193.425 22.4531 193.837 22.4906 194.212 22.5281C194.587 22.5656 194.85 22.6031 195.075 22.6781V22.3406C195.075 21.7406 194.888 21.2531 194.513 20.8781C194.138 20.5031 193.5 20.3156 192.6 20.3156C192 20.3156 191.4 20.3531 190.837 20.4281C190.237 20.5031 189.75 20.6531 189.3 20.8031L188.85 17.9531C189.038 17.8781 189.3 17.8406 189.638 17.7656C189.938 17.6906 190.275 17.6156 190.65 17.5781C191.025 17.5406 191.4 17.4656 191.813 17.4281C192.113 17.3906 192.525 17.3906 192.938 17.3906ZM193.237 27.7406C193.575 27.7406 193.913 27.7406 194.25 27.7031C194.55 27.7031 194.813 27.6656 195 27.6281V24.9281C194.85 24.8906 194.625 24.8531 194.362 24.8156C194.062 24.7781 193.8 24.7781 193.575 24.7781C193.238 24.7781 192.938 24.8156 192.638 24.8531C192.338 24.8906 192.075 24.9656 191.85 25.0781C191.625 25.1906 191.438 25.3406 191.325 25.5281C191.213 25.7156 191.138 25.9406 191.138 26.2406C191.138 26.8031 191.325 27.1781 191.7 27.4031C192.075 27.6281 192.562 27.7406 193.237 27.7406Z" fill="white"/>
<path d="M212.59 29.8027C212.29 29.9152 211.915 29.9902 211.502 30.0652C211.09 30.1402 210.677 30.2152 210.19 30.2902C209.702 30.3652 209.29 30.4027 208.802 30.4402C208.352 30.4777 207.902 30.5152 207.452 30.5152C206.44 30.5152 205.502 30.3652 204.715 30.0652C203.89 29.7652 203.215 29.3152 202.69 28.7527C202.127 28.1902 201.715 27.5152 201.415 26.7277C201.115 25.9402 200.965 25.0402 200.965 24.0277C200.965 23.0152 201.077 22.1152 201.34 21.2902C201.602 20.4652 201.94 19.7902 202.427 19.2277C202.915 18.6652 203.477 18.2152 204.19 17.9152C204.865 17.6152 205.652 17.4652 206.552 17.4652C207.04 17.4652 207.49 17.5027 207.865 17.6152C208.24 17.7277 208.652 17.8402 209.027 18.0277V12.3652L212.552 11.8027V29.8027H212.59ZM204.602 23.8777C204.602 24.9652 204.865 25.8652 205.352 26.5027C205.84 27.1777 206.59 27.5152 207.527 27.5152C207.827 27.5152 208.127 27.5152 208.39 27.4777C208.652 27.4402 208.877 27.4402 209.065 27.4027V20.9527C208.84 20.8027 208.54 20.6902 208.202 20.5777C207.827 20.4652 207.49 20.4277 207.115 20.4277C205.427 20.4652 204.602 21.5902 204.602 23.8777Z" fill="white"/>
<path d="M215.324 24.0656C215.324 22.9406 215.512 22.0031 215.849 21.1406C216.187 20.3156 216.637 19.6031 217.199 19.0781C217.762 18.5156 218.399 18.1031 219.112 17.8031C219.824 17.5031 220.574 17.3906 221.324 17.3906C223.087 17.3906 224.512 17.9156 225.524 19.0031C226.537 20.0906 227.062 21.6656 227.062 23.8031C227.062 23.9906 227.062 24.2531 227.024 24.4781C227.024 24.7406 226.987 24.9281 226.987 25.1156H218.962C219.037 25.8281 219.374 26.4281 219.974 26.8406C220.574 27.2531 221.399 27.4781 222.412 27.4781C223.049 27.4781 223.687 27.4031 224.324 27.2906C224.962 27.1781 225.449 27.0281 225.862 26.8406L226.349 29.7281C226.162 29.8406 225.899 29.9156 225.599 30.0281C225.299 30.1406 224.924 30.2156 224.549 30.2906C224.174 30.3656 223.762 30.4031 223.312 30.4781C222.862 30.5156 222.412 30.5531 221.999 30.5531C220.874 30.5531 219.899 30.4031 219.074 30.0656C218.249 29.7281 217.537 29.2781 217.012 28.7156C216.487 28.1531 216.074 27.4406 215.812 26.6531C215.549 25.8656 215.324 24.9656 215.324 24.0656ZM223.649 22.7156C223.649 22.4156 223.574 22.1156 223.499 21.8531C223.424 21.5531 223.274 21.3281 223.087 21.1031C222.899 20.8781 222.674 20.6906 222.412 20.5406C222.149 20.3906 221.774 20.3156 221.362 20.3156C220.949 20.3156 220.612 20.3906 220.349 20.5031C220.049 20.6531 219.824 20.8031 219.637 21.0281C219.449 21.2531 219.299 21.5156 219.187 21.8156C219.074 22.1156 218.999 22.4156 218.962 22.7156H223.649Z" fill="white"/>
<path d="M236.665 23.5777C236.665 22.4527 236.515 21.6277 236.215 21.1402C235.915 20.6527 235.427 20.4277 234.715 20.4277C234.49 20.4277 234.265 20.4277 234.04 20.4652C233.815 20.5027 233.59 20.5027 233.365 20.5402V30.1777H229.84V18.1402C230.14 18.0652 230.477 17.9902 230.89 17.8777C231.302 17.8027 231.715 17.7277 232.165 17.6527C232.615 17.5777 233.065 17.5402 233.552 17.5027C234.04 17.4652 234.49 17.4277 234.94 17.4277C235.84 17.4277 236.59 17.5402 237.152 17.7652C237.715 17.9902 238.165 18.2527 238.54 18.5902C239.065 18.2152 239.627 17.9527 240.302 17.7277C240.977 17.5402 241.577 17.4277 242.102 17.4277C243.115 17.4277 243.902 17.5777 244.577 17.8402C245.215 18.1027 245.74 18.5152 246.115 19.0027C246.49 19.5277 246.752 20.1277 246.902 20.8027C247.052 21.4777 247.127 22.2652 247.127 23.1277V30.1777H243.602V23.5777C243.602 22.4527 243.452 21.6277 243.152 21.1402C242.852 20.6527 242.365 20.4277 241.652 20.4277C241.465 20.4277 241.202 20.4652 240.865 20.5777C240.527 20.6902 240.227 20.8027 240.04 20.9527C240.152 21.3277 240.227 21.7027 240.265 22.1152C240.302 22.5277 240.302 22.9402 240.302 23.4277V30.2527H236.777V23.5777H236.665Z" fill="white"/>
<path d="M261.002 17.727C260.289 20.127 259.539 22.377 258.752 24.477C257.964 26.577 257.139 28.6395 256.202 30.5895C255.864 31.302 255.527 31.902 255.189 32.3895C254.852 32.877 254.477 33.2895 254.102 33.627C253.689 33.9645 253.239 34.1895 252.752 34.3395C252.264 34.4895 251.664 34.5645 250.989 34.5645C250.427 34.5645 249.939 34.527 249.452 34.4145C249.002 34.302 248.589 34.1895 248.289 34.077L248.889 31.2645C249.264 31.377 249.564 31.4895 249.864 31.527C250.164 31.5645 250.464 31.602 250.764 31.602C251.402 31.602 251.889 31.4145 252.227 31.077C252.564 30.7395 252.864 30.252 253.089 29.652C252.264 28.077 251.477 26.277 250.652 24.327C249.827 22.3395 249.077 20.127 248.364 17.6895H252.114C252.264 18.2895 252.452 18.9645 252.677 19.7145C252.902 20.427 253.127 21.177 253.352 21.8895C253.577 22.6395 253.839 23.352 254.064 24.027C254.327 24.7395 254.552 25.3395 254.777 25.9395C254.964 25.377 255.189 24.7395 255.414 24.027C255.639 23.3145 255.864 22.602 256.052 21.8895C256.277 21.1395 256.464 20.427 256.689 19.7145C256.877 19.002 257.064 18.327 257.214 17.6895H261.002V17.727Z" fill="white"/>
</svg>
