<svg width="247" height="67" viewBox="0 0 247 67" fill="none" xmlns="http://www.w3.org/2000/svg">
<g clip-path="url(#clip0_2343_663)">
<path d="M152.765 32.4032L147.842 24.0725L138.159 7.57337L133.723 0.0540955L128.26 6.76194L125.393 10.2781L116.738 20.8809C115.277 22.7742 113.005 24.0184 110.408 24.0184C106.027 24.0184 102.456 20.4481 102.456 16.0664C102.456 11.6846 105.918 8.11432 110.354 8.11432C114.79 8.11432 118.306 11.6846 118.306 16.0664C118.306 16.4991 118.252 16.8778 118.198 17.3106L124.852 9.19623C122.255 3.78668 116.737 0 110.3 0C101.428 0 94.1797 7.1947 94.1797 16.1205C94.1797 24.9921 101.428 32.4032 110.3 32.4032C115.439 32.4032 120.037 29.9148 122.958 26.074L132.587 14.2812L138.322 24.0725L138.43 24.2889H125.609C125.609 24.2889 125.609 24.343 125.663 24.3971C125.988 25.3708 127.557 31.9163 135.995 32.4032H144.597H152.765V32.4032Z" fill="#2D81F7"/>
<path d="M19.255 49.828C19.255 51.2345 19.0387 52.5328 18.66 53.7229C18.2272 54.913 17.6322 55.8867 16.8748 56.7523C16.1175 57.5637 15.1438 58.2128 14.0619 58.6997C12.98 59.1325 11.7358 59.4029 10.4375 59.4029C9.13918 59.4029 7.89499 59.1866 6.81308 58.6997C5.73117 58.2669 4.81154 57.6178 4.00011 56.7523C3.24277 55.9408 2.59363 54.913 2.16086 53.7229C1.7281 52.5328 1.51172 51.2345 1.51172 49.828C1.51172 48.4216 1.7281 47.1233 2.16086 45.9332C2.59363 44.7431 3.24277 43.7693 4.00011 42.9579C4.81154 42.1465 5.73117 41.4973 6.81308 41.0646C7.89499 40.6318 9.08509 40.3613 10.3834 40.3613C11.6817 40.3613 12.8718 40.5777 13.9537 41.0646C15.0356 41.4973 15.9552 42.1465 16.7666 42.9579C17.524 43.7693 18.1731 44.7972 18.6059 45.9332C19.0387 47.1233 19.255 48.3675 19.255 49.828ZM14.0619 49.828C14.0619 48.2593 13.7373 47.0151 13.1422 46.0954C12.4931 45.1758 11.6276 44.7431 10.4375 44.7431C9.24737 44.7431 8.38185 45.1758 7.7327 46.0954C7.08355 47.0151 6.75898 48.2593 6.75898 49.828C6.75898 51.3968 7.08355 52.641 7.7327 53.5606C8.38185 54.4803 9.24737 54.9671 10.4375 54.9671C11.6276 54.9671 12.4931 54.4803 13.1422 53.5606C13.7373 52.641 14.0619 51.3968 14.0619 49.828Z" fill="#2D81F7"/>
<path d="M22.3359 49.8255C22.3359 48.5272 22.5523 47.283 22.9851 46.147C23.4178 45.011 24.0129 43.9832 24.8243 43.1177C25.6358 42.2521 26.6095 41.603 27.7455 41.062C28.8815 40.5752 30.1798 40.3047 31.6404 40.3047C32.6141 40.3047 33.4796 40.4129 34.291 40.5752C35.1025 40.7375 35.8598 41.0079 36.6171 41.3325L35.5352 45.3897C35.0484 45.2274 34.5074 45.0651 33.9665 44.9028C33.3714 44.7405 32.7764 44.6864 32.0731 44.6864C30.5585 44.6864 29.4224 45.1733 28.7192 46.0929C27.9619 47.0125 27.5832 48.2567 27.5832 49.7714C27.5832 51.3943 27.9078 52.6385 28.611 53.5581C29.3143 54.4236 30.5044 54.9105 32.2354 54.9105C32.8305 54.9105 33.5337 54.8564 34.2369 54.7482C34.9402 54.64 35.5893 54.4777 36.1844 54.2072L36.8876 58.3726C36.2926 58.6431 35.5352 58.8594 34.6697 59.0217C33.8042 59.184 32.7764 59.2922 31.7486 59.2922C30.1257 59.2922 28.6651 59.0217 27.475 58.5349C26.2849 58.048 25.3112 57.3989 24.5539 56.5333C23.7965 55.6678 23.2556 54.6941 22.8769 53.5581C22.4982 52.4221 22.3359 51.1779 22.3359 49.8255Z" fill="#2D81F7"/>
<path d="M38.6211 49.9903C38.6211 48.3675 38.8916 47.0151 39.3784 45.7709C39.8653 44.5808 40.5144 43.553 41.3259 42.7956C42.1373 41.9842 43.0569 41.3891 44.0847 40.9564C45.1126 40.5236 46.1945 40.3613 47.2764 40.3613C49.8189 40.3613 51.8745 41.1187 53.3351 42.6874C54.7956 44.2562 55.553 46.5282 55.553 49.6117C55.553 49.8821 55.553 50.2608 55.4989 50.5854C55.4989 50.964 55.4448 51.2345 55.4448 51.505H43.8684C43.9765 52.5328 44.4634 53.3983 45.3289 53.9934C46.1945 54.5884 47.3846 54.913 48.8451 54.913C49.7648 54.913 50.6844 54.8048 51.604 54.6425C52.5236 54.4803 53.2269 54.2639 53.8219 53.9934L54.5252 58.1587C54.2547 58.321 53.876 58.4292 53.4433 58.5915C53.0105 58.7538 52.4695 58.862 51.9286 58.9702C51.3876 59.0784 50.7926 59.1325 50.1434 59.2407C49.4943 59.2948 48.8451 59.3488 48.2501 59.3488C46.6272 59.3488 45.2207 59.1325 44.0306 58.6456C42.8405 58.1587 41.8127 57.5096 41.0554 56.6982C40.2981 55.8867 39.703 54.8589 39.3243 53.7229C38.7834 52.5328 38.6211 51.2886 38.6211 49.9903ZM50.5762 48.0429C50.5762 47.6101 50.468 47.1774 50.3598 46.7987C50.2516 46.3659 50.0352 46.0414 49.7648 45.7168C49.4943 45.3922 49.1697 45.1217 48.791 44.9054C48.4124 44.689 47.8714 44.5808 47.2764 44.5808C46.6813 44.5808 46.1945 44.689 45.8158 44.8513C45.383 45.0676 45.0585 45.284 44.788 45.6086C44.5175 45.9332 44.3011 46.3118 44.1388 46.7446C43.9765 47.1774 43.8684 47.6101 43.8143 48.0429H50.5762V48.0429Z" fill="#2D81F7"/>
<path d="M65.9406 40.3613C67.4552 40.3613 68.6994 40.5236 69.7272 40.9023C70.7551 41.2269 71.5124 41.7137 72.1615 42.3629C72.7566 43.012 73.1894 43.7693 73.4598 44.689C73.7303 45.6086 73.8385 46.6364 73.8385 47.7183V58.321C73.0812 58.4833 72.1074 58.6456 70.8091 58.862C69.5109 59.0784 67.9421 59.1866 66.1028 59.1866C64.9127 59.1866 63.8849 59.0784 62.9112 58.862C61.9375 58.6456 61.1261 58.321 60.4769 57.8342C59.7737 57.3473 59.2868 56.7523 58.9081 55.9949C58.5295 55.2376 58.3672 54.318 58.3672 53.2361C58.3672 52.2082 58.5836 51.2886 59.0163 50.5854C59.4491 49.828 59.99 49.2871 60.6933 48.8543C61.3965 48.4216 62.208 48.097 63.1276 47.9347C64.0472 47.7183 64.9668 47.6642 65.9947 47.6642C66.6438 47.6642 67.2388 47.7183 67.7798 47.7724C68.2667 47.8265 68.6994 47.8806 69.024 47.9888V47.5019C69.024 46.6364 68.7535 45.9332 68.2126 45.3922C67.6716 44.8513 66.752 44.5808 65.4537 44.5808C64.5882 44.5808 63.7226 44.6349 62.9112 44.7431C62.0457 44.8513 61.3424 45.0676 60.6933 45.284L60.0441 41.1728C60.3146 41.0646 60.6933 41.0105 61.1802 40.9023C61.6129 40.7941 62.0998 40.6859 62.6407 40.6318C63.1817 40.5777 63.7226 40.4695 64.3177 40.4154C64.7505 40.3613 65.3455 40.3613 65.9406 40.3613ZM66.3733 55.2917C66.8602 55.2917 67.347 55.2917 67.8339 55.2376C68.2667 55.2376 68.6453 55.1835 68.9158 55.1294V51.2345C68.6994 51.1804 68.4289 51.1263 67.9962 51.0722C67.5634 51.0181 67.1848 51.0181 66.8602 51.0181C66.3733 51.0181 65.9406 51.0722 65.5078 51.1263C65.075 51.1804 64.6964 51.2886 64.3718 51.4509C64.0472 51.6132 63.7767 51.8296 63.6144 52.1001C63.4522 52.3705 63.344 52.6951 63.344 53.1279C63.344 53.9393 63.6144 54.4803 64.1554 54.8048C64.6964 55.1294 65.3996 55.2917 66.3733 55.2917Z" fill="#2D81F7"/>
<path d="M78.3828 41.4438C79.2483 41.1734 80.3844 40.957 81.7367 40.7406C83.0891 40.5242 84.5497 40.416 86.0644 40.416C87.5791 40.416 88.8773 40.6324 89.9052 41.0111C90.933 41.3897 91.7444 41.9848 92.3395 42.688C92.9345 43.4454 93.3673 44.3109 93.5836 45.2846C93.8541 46.3124 93.9623 47.3943 93.9623 48.6385V58.8085H88.8773V49.2877C88.8773 47.6648 88.661 46.4747 88.2282 45.7715C87.7954 45.0682 86.984 44.7437 85.7939 44.7437C85.4152 44.7437 85.0366 44.7437 84.6038 44.7978C84.171 44.8518 83.8465 44.8518 83.5219 44.9059V58.8085H78.4369V41.4438H78.3828Z" fill="#2D81F7"/>
<path d="M113.273 40.3613C114.787 40.3613 116.031 40.5236 117.059 40.9023C118.087 41.2269 118.844 41.7137 119.494 42.3629C120.089 43.012 120.521 43.7693 120.792 44.689C121.062 45.6086 121.171 46.6364 121.171 47.7183V58.321C120.413 58.4833 119.439 58.6456 118.141 58.862C116.843 59.0784 115.274 59.1866 113.435 59.1866C112.245 59.1866 111.217 59.0784 110.243 58.862C109.27 58.6456 108.458 58.321 107.809 57.8342C107.106 57.3473 106.619 56.7523 106.24 55.9949C105.862 55.2376 105.699 54.318 105.699 53.2361C105.699 52.2082 105.916 51.2886 106.348 50.5854C106.781 49.828 107.322 49.2871 108.025 48.8543C108.729 48.4216 109.54 48.097 110.46 47.9347C111.379 47.7183 112.299 47.6642 113.327 47.6642C113.976 47.6642 114.571 47.7183 115.112 47.7724C115.599 47.8265 116.031 47.8806 116.356 47.9888V47.5019C116.356 46.6364 116.086 45.9332 115.545 45.3922C115.004 44.8513 114.084 44.5808 112.786 44.5808C111.92 44.5808 111.055 44.6349 110.243 44.7431C109.378 44.8513 108.674 45.0676 108.025 45.284L107.376 41.1728C107.647 41.0646 108.025 41.0105 108.512 40.9023C108.945 40.7941 109.432 40.6859 109.973 40.6318C110.514 40.5777 111.055 40.4695 111.65 40.4154C112.082 40.3613 112.678 40.3613 113.273 40.3613ZM113.705 55.2917C114.192 55.2917 114.679 55.2917 115.166 55.2376C115.599 55.2376 115.977 55.1835 116.248 55.1294V51.2345C116.031 51.1804 115.761 51.1263 115.328 51.0722C114.895 51.0181 114.517 51.0181 114.192 51.0181C113.705 51.0181 113.273 51.0722 112.84 51.1263C112.407 51.1804 112.028 51.2886 111.704 51.4509C111.379 51.6132 111.109 51.8296 110.946 52.1001C110.784 52.3705 110.676 52.6951 110.676 53.1279C110.676 53.9393 110.946 54.4803 111.487 54.8048C112.028 55.1294 112.732 55.2917 113.705 55.2917Z" fill="#2D81F7"/>
<path d="M124.906 49.8255C124.906 48.5272 125.123 47.283 125.555 46.147C125.988 45.011 126.583 43.9832 127.395 43.1177C128.206 42.2521 129.18 41.603 130.316 41.062C131.452 40.5752 132.75 40.3047 134.211 40.3047C135.184 40.3047 136.05 40.4129 136.861 40.5752C137.673 40.7375 138.43 41.0079 139.187 41.3325L138.106 45.3897C137.619 45.2274 137.078 45.0651 136.537 44.9028C135.942 44.7405 135.347 44.6864 134.643 44.6864C133.129 44.6864 131.993 45.1733 131.29 46.0929C130.532 47.0125 130.154 48.2567 130.154 49.7714C130.154 51.3943 130.478 52.6385 131.181 53.5581C131.885 54.4236 133.075 54.9105 134.806 54.9105C135.401 54.9105 136.104 54.8564 136.807 54.7482C137.511 54.64 138.16 54.4777 138.755 54.2072L139.458 58.3726C138.863 58.6431 138.106 58.8594 137.24 59.0217C136.374 59.184 135.347 59.2922 134.319 59.2922C132.696 59.2922 131.235 59.0217 130.045 58.5349C128.855 58.048 127.882 57.3989 127.124 56.5333C126.367 55.6678 125.826 54.6941 125.447 53.5581C125.069 52.4221 124.906 51.1779 124.906 49.8255Z" fill="#2D81F7"/>
<path d="M148.491 40.3613C150.006 40.3613 151.25 40.5236 152.278 40.9023C153.306 41.281 154.063 41.7137 154.712 42.3629C155.307 43.012 155.74 43.7693 156.011 44.689C156.281 45.6086 156.389 46.6364 156.389 47.7183V58.321C155.632 58.4833 154.658 58.6456 153.36 58.862C152.062 59.0784 150.493 59.1866 148.654 59.1866C147.464 59.1866 146.436 59.0784 145.462 58.862C144.488 58.6456 143.677 58.321 143.028 57.8342C142.379 57.3473 141.838 56.7523 141.459 55.9949C141.08 55.2376 140.918 54.318 140.918 53.2361C140.918 52.2082 141.134 51.2886 141.567 50.5854C142 49.828 142.541 49.2871 143.244 48.8543C143.947 48.4216 144.759 48.097 145.678 47.9347C146.598 47.7183 147.518 47.6642 148.545 47.6642C149.195 47.6642 149.79 47.7183 150.331 47.7724C150.872 47.8265 151.25 47.8806 151.575 47.9888V47.5019C151.575 46.6364 151.304 45.9332 150.763 45.3922C150.222 44.8513 149.303 44.5808 148.004 44.5808C147.139 44.5808 146.273 44.6349 145.462 44.7431C144.596 44.8513 143.893 45.0676 143.244 45.284L142.595 41.1728C142.865 41.0646 143.244 41.0105 143.731 40.9023C144.164 40.7941 144.651 40.6859 145.192 40.6318C145.732 40.5777 146.273 40.4695 146.868 40.4154C147.301 40.3613 147.896 40.3613 148.491 40.3613ZM148.924 55.2917C149.411 55.2917 149.898 55.2917 150.385 55.2376C150.817 55.2376 151.196 55.1835 151.467 55.1294V51.2345C151.25 51.1804 150.926 51.1263 150.547 51.0722C150.114 51.0181 149.736 51.0181 149.411 51.0181C148.924 51.0181 148.491 51.0722 148.059 51.1263C147.626 51.1804 147.247 51.2886 146.923 51.4509C146.598 51.6132 146.328 51.8296 146.165 52.1001C146.003 52.3705 145.895 52.6951 145.895 53.1279C145.895 53.9393 146.165 54.4803 146.706 54.8048C147.247 55.1294 147.95 55.2917 148.924 55.2917Z" fill="#2D81F7"/>
<path d="M176.836 58.2666C176.403 58.4289 175.862 58.5371 175.267 58.6453C174.672 58.7535 174.077 58.8617 173.374 58.9699C172.671 59.078 172.076 59.1321 171.372 59.1862C170.723 59.2403 170.074 59.2944 169.425 59.2944C167.964 59.2944 166.612 59.078 165.476 58.6453C164.286 58.2125 163.312 57.5634 162.555 56.7519C161.743 55.9405 161.148 54.9668 160.716 53.8308C160.283 52.6948 160.066 51.3965 160.066 49.9359C160.066 48.4753 160.229 47.177 160.607 45.9869C160.986 44.7968 161.473 43.8231 162.176 43.0117C162.879 42.2003 163.691 41.5511 164.719 41.1183C165.692 40.6856 166.828 40.4692 168.127 40.4692C168.83 40.4692 169.479 40.5233 170.02 40.6856C170.561 40.8479 171.156 41.0102 171.697 41.2806V33.1122L176.782 32.3008V58.2666H176.836ZM165.314 49.7195C165.314 51.2883 165.692 52.5866 166.396 53.5062C167.099 54.4799 168.181 54.9668 169.533 54.9668C169.966 54.9668 170.399 54.9668 170.777 54.9127C171.156 54.8586 171.481 54.8586 171.751 54.8045V45.5001C171.426 45.2837 170.994 45.1214 170.507 44.9591C169.966 44.7968 169.479 44.7427 168.938 44.7427C166.504 44.7968 165.314 46.4197 165.314 49.7195Z" fill="#2D81F7"/>
<path d="M180.781 49.9903C180.781 48.3675 181.052 47.0151 181.539 45.7709C182.025 44.5808 182.675 43.553 183.486 42.7956C184.297 41.9842 185.217 41.3891 186.245 40.9564C187.273 40.5236 188.355 40.3613 189.437 40.3613C191.979 40.3613 194.035 41.1187 195.495 42.6874C196.956 44.2562 197.713 46.5282 197.713 49.6117C197.713 49.8821 197.713 50.2608 197.659 50.5854C197.659 50.964 197.605 51.2345 197.605 51.505H186.029C186.137 52.5328 186.624 53.3983 187.489 53.9934C188.355 54.5884 189.545 54.913 191.005 54.913C191.925 54.913 192.845 54.8048 193.764 54.6425C194.684 54.4803 195.387 54.2639 195.982 53.9934L196.685 58.1587C196.415 58.321 196.036 58.4292 195.603 58.5915C195.171 58.7538 194.63 58.862 194.089 58.9702C193.548 59.0784 192.953 59.1325 192.304 59.2407C191.654 59.2948 191.005 59.3488 190.41 59.3488C188.787 59.3488 187.381 59.1325 186.191 58.6456C185.001 58.1587 183.973 57.5096 183.216 56.6982C182.458 55.8867 181.863 54.8589 181.484 53.7229C181.106 52.5869 180.781 51.2886 180.781 49.9903ZM192.79 48.0429C192.79 47.6101 192.682 47.1774 192.574 46.7987C192.466 46.3659 192.249 46.0414 191.979 45.7168C191.709 45.3922 191.384 45.1217 191.005 44.9054C190.627 44.689 190.086 44.5808 189.491 44.5808C188.896 44.5808 188.409 44.689 188.03 44.8513C187.597 45.0676 187.273 45.284 187.002 45.6086C186.732 45.9332 186.515 46.3118 186.353 46.7446C186.191 47.1774 186.083 47.6101 186.029 48.0429H192.79V48.0429Z" fill="#2D81F7"/>
<path d="M211.564 49.2877C211.564 47.6648 211.348 46.4747 210.915 45.7715C210.482 45.0682 209.779 44.7437 208.751 44.7437C208.427 44.7437 208.102 44.7437 207.777 44.7978C207.453 44.8518 207.128 44.8518 206.804 44.9059V58.8085H201.719V41.4438C202.152 41.3356 202.638 41.2275 203.233 41.0652C203.828 40.957 204.424 40.8488 205.073 40.7406C205.722 40.6324 206.371 40.5783 207.074 40.5242C207.777 40.4701 208.427 40.416 209.076 40.416C210.374 40.416 211.456 40.5783 212.267 40.9029C213.079 41.2274 213.728 41.6061 214.269 42.093C215.026 41.552 215.838 41.1734 216.811 40.8488C217.785 40.5783 218.651 40.416 219.408 40.416C220.869 40.416 222.005 40.6324 222.978 41.0111C223.898 41.3897 224.655 41.9848 225.196 42.688C225.737 43.4454 226.116 44.3109 226.332 45.2846C226.549 46.2583 226.657 47.3943 226.657 48.6385V58.8085H221.572V49.2877C221.572 47.6648 221.355 46.4747 220.923 45.7715C220.49 45.0682 219.787 44.7437 218.759 44.7437C218.488 44.7437 218.11 44.7978 217.623 44.96C217.136 45.1223 216.703 45.2846 216.433 45.501C216.595 46.0419 216.703 46.5829 216.757 47.178C216.811 47.773 216.811 48.3681 216.811 49.0713V58.9167H211.726V49.2877H211.564Z" fill="#2D81F7"/>
<path d="M246.67 40.849C245.643 44.3111 244.561 47.5569 243.425 50.5862C242.289 53.6156 241.099 56.5908 239.746 59.4038C239.259 60.4316 238.772 61.2971 238.286 62.0003C237.799 62.7036 237.258 63.2986 236.717 63.7855C236.122 64.2724 235.473 64.5969 234.769 64.8133C234.066 65.0297 233.201 65.1379 232.227 65.1379C231.415 65.1379 230.712 65.0838 230.009 64.9215C229.36 64.7592 228.765 64.5969 228.332 64.4346L229.198 60.3775C229.739 60.5398 230.171 60.7021 230.604 60.7562C231.037 60.8103 231.47 60.8643 231.902 60.8643C232.822 60.8643 233.525 60.5939 234.012 60.107C234.499 59.6201 234.932 58.9169 235.256 58.0514C234.066 55.7794 232.93 53.1828 231.74 50.3698C230.55 47.5028 229.468 44.3111 228.44 40.7949H233.85C234.066 41.6604 234.337 42.6342 234.661 43.7161C234.986 44.7439 235.31 45.8258 235.635 46.8536C235.959 47.9355 236.338 48.9633 236.663 49.9371C237.041 50.9649 237.366 51.8304 237.691 52.6959C237.961 51.8845 238.286 50.9649 238.61 49.9371C238.935 48.9092 239.259 47.8814 239.53 46.8536C239.854 45.7717 240.125 44.7439 240.449 43.7161C240.72 42.6883 240.99 41.7145 241.207 40.7949H246.67V40.849Z" fill="#2D81F7"/>
</g>
<defs>
<clipPath id="clip0_2343_663">
<rect width="247" height="66.4293" fill="white"/>
</clipPath>
</defs>
</svg>
