<svg width="457" height="123" viewBox="0 0 457 123" fill="none" xmlns="http://www.w3.org/2000/svg">
<path d="M282.402 59.9L273.302 44.5L255.402 14L247.202 0.1L237.102 12.5L231.802 19L215.802 38.6C213.102 42.1 208.902 44.4 204.102 44.4C196.002 44.4 189.402 37.8 189.402 29.7C189.402 21.6 195.802 15 204.002 15C212.202 15 218.702 21.6 218.702 29.7C218.702 30.5 218.602 31.2 218.502 32L230.802 17C226.002 7 215.802 0 203.902 0C187.502 0 174.102 13.3 174.102 29.8C174.102 46.2 187.502 59.9 203.902 59.9C213.402 59.9 221.902 55.3 227.302 48.2L245.102 26.4L255.702 44.5L255.902 44.9H232.202C232.202 44.9 232.202 45 232.302 45.1C232.902 46.9 235.802 59 251.402 59.9H267.302H282.402Z" fill="white"/>
<path d="M35.6008 92.0996C35.6008 94.6996 35.2008 97.0996 34.5008 99.2996C33.7008 101.5 32.6008 103.3 31.2008 104.9C29.8008 106.4 28.0008 107.6 26.0008 108.5C24.0008 109.3 21.7008 109.8 19.3008 109.8C16.9008 109.8 14.6008 109.4 12.6008 108.5C10.6008 107.7 8.90078 106.5 7.40078 104.9C6.00078 103.4 4.80078 101.5 4.00078 99.2996C3.20078 97.0996 2.80078 94.6996 2.80078 92.0996C2.80078 89.4996 3.20078 87.0996 4.00078 84.8996C4.80078 82.6996 6.00078 80.8996 7.40078 79.3996C8.90078 77.8996 10.6008 76.6996 12.6008 75.8996C14.6008 75.0996 16.8008 74.5996 19.2008 74.5996C21.6008 74.5996 23.8008 74.9996 25.8008 75.8996C27.8008 76.6996 29.5008 77.8996 31.0008 79.3996C32.4008 80.8996 33.6008 82.7996 34.4008 84.8996C35.2008 87.0996 35.6008 89.3996 35.6008 92.0996ZM26.0008 92.0996C26.0008 89.1996 25.4008 86.8996 24.3008 85.1996C23.1008 83.4996 21.5008 82.6996 19.3008 82.6996C17.1008 82.6996 15.5008 83.4996 14.3008 85.1996C13.1008 86.8996 12.5008 89.1996 12.5008 92.0996C12.5008 94.9996 13.1008 97.2996 14.3008 98.9996C15.5008 100.7 17.1008 101.6 19.3008 101.6C21.5008 101.6 23.1008 100.7 24.3008 98.9996C25.4008 97.2996 26.0008 94.9996 26.0008 92.0996Z" fill="white"/>
<path d="M41.3008 92.1C41.3008 89.7 41.7008 87.4 42.5008 85.3C43.3008 83.2 44.4008 81.3 45.9008 79.7C47.4008 78.1 49.2008 76.9 51.3008 75.9C53.4008 75 55.8008 74.5 58.5008 74.5C60.3008 74.5 61.9008 74.7 63.4008 75C64.9008 75.3 66.3008 75.8 67.7008 76.4L65.7008 83.9C64.8008 83.6 63.8008 83.3 62.8008 83C61.7008 82.7 60.6008 82.6 59.3008 82.6C56.5008 82.6 54.4008 83.5 53.1008 85.2C51.7008 86.9 51.0008 89.2 51.0008 92C51.0008 95 51.6008 97.3 52.9008 99C54.2008 100.6 56.4008 101.5 59.6008 101.5C60.7008 101.5 62.0008 101.4 63.3008 101.2C64.6008 101 65.8008 100.7 66.9008 100.2L68.2008 107.9C67.1008 108.4 65.7008 108.8 64.1008 109.1C62.5008 109.4 60.6008 109.6 58.7008 109.6C55.7008 109.6 53.0008 109.1 50.8008 108.2C48.6008 107.3 46.8008 106.1 45.4008 104.5C44.0008 102.9 43.0008 101.1 42.3008 99C41.6008 96.9 41.3008 94.6 41.3008 92.1Z" fill="white"/>
<path d="M71.4023 92.3996C71.4023 89.3996 71.9023 86.8996 72.8023 84.5996C73.7023 82.3996 74.9023 80.4996 76.4023 79.0996C77.9023 77.5996 79.6023 76.4996 81.5023 75.6996C83.4023 74.8996 85.4023 74.5996 87.4023 74.5996C92.1023 74.5996 95.9023 75.9996 98.6023 78.8996C101.302 81.7996 102.702 85.9996 102.702 91.6996C102.702 92.1996 102.702 92.8996 102.602 93.4996C102.602 94.1996 102.502 94.6996 102.502 95.1996H81.1023C81.3023 97.0996 82.2023 98.6996 83.8023 99.7996C85.4023 100.9 87.6023 101.5 90.3023 101.5C92.0023 101.5 93.7023 101.3 95.4023 101C97.1023 100.7 98.4023 100.3 99.5023 99.7996L100.802 107.5C100.302 107.8 99.6023 108 98.8023 108.3C98.0023 108.6 97.0023 108.8 96.0023 109C95.0023 109.2 93.9023 109.3 92.7023 109.5C91.5023 109.6 90.3023 109.7 89.2023 109.7C86.2023 109.7 83.6023 109.3 81.4023 108.4C79.2023 107.5 77.3023 106.3 75.9023 104.8C74.5023 103.3 73.4023 101.4 72.7023 99.2996C71.7023 97.0996 71.4023 94.7996 71.4023 92.3996ZM93.5023 88.7996C93.5023 87.9996 93.3023 87.1996 93.1023 86.4996C92.9023 85.6996 92.5023 85.0996 92.0023 84.4996C91.5023 83.8996 90.9023 83.3996 90.2023 82.9996C89.5023 82.5996 88.5023 82.3996 87.4023 82.3996C86.3023 82.3996 85.4023 82.5996 84.7023 82.8996C83.9023 83.2996 83.3023 83.6996 82.8023 84.2996C82.3023 84.8996 81.9023 85.5996 81.6023 86.3996C81.3023 87.1996 81.1023 87.9996 81.0023 88.7996H93.5023Z" fill="white"/>
<path d="M121.902 74.5996C124.702 74.5996 127.002 74.8996 128.902 75.5996C130.802 76.1996 132.202 77.0996 133.402 78.2996C134.502 79.4996 135.302 80.8996 135.802 82.5996C136.302 84.2996 136.502 86.1996 136.502 88.1996V107.8C135.102 108.1 133.302 108.4 130.902 108.8C128.502 109.2 125.602 109.4 122.202 109.4C120.002 109.4 118.102 109.2 116.302 108.8C114.502 108.4 113.002 107.8 111.802 106.9C110.502 106 109.602 104.9 108.902 103.5C108.202 102.1 107.902 100.4 107.902 98.3996C107.902 96.4996 108.302 94.7996 109.102 93.4996C109.902 92.0996 110.902 91.0996 112.202 90.2996C113.502 89.4996 115.002 88.8996 116.702 88.5996C118.402 88.1996 120.102 88.0996 122.002 88.0996C123.202 88.0996 124.302 88.1996 125.302 88.2996C126.202 88.3996 127.002 88.4996 127.602 88.6996V87.7996C127.602 86.1996 127.102 84.8996 126.102 83.8996C125.102 82.8996 123.402 82.3996 121.002 82.3996C119.402 82.3996 117.802 82.4996 116.302 82.6996C114.702 82.8996 113.402 83.2996 112.202 83.6996L111.002 76.0996C111.502 75.8996 112.202 75.7996 113.102 75.5996C113.902 75.3996 114.802 75.1996 115.802 75.0996C116.802 74.9996 117.802 74.7996 118.902 74.6996C119.702 74.5996 120.802 74.5996 121.902 74.5996ZM122.702 102.2C123.602 102.2 124.502 102.2 125.402 102.1C126.202 102.1 126.902 102 127.402 101.9V94.6996C127.002 94.5996 126.502 94.4996 125.702 94.3996C124.902 94.2996 124.202 94.2996 123.602 94.2996C122.702 94.2996 121.902 94.3996 121.102 94.4996C120.302 94.5996 119.602 94.7996 119.002 95.0996C118.402 95.3996 117.902 95.7996 117.602 96.2996C117.302 96.7996 117.102 97.3996 117.102 98.1996C117.102 99.6996 117.602 100.7 118.602 101.3C119.602 101.9 120.902 102.2 122.702 102.2Z" fill="white"/>
<path d="M144.902 76.5992C146.502 76.0992 148.602 75.6992 151.102 75.2992C153.602 74.8992 156.302 74.6992 159.102 74.6992C161.902 74.6992 164.302 75.0992 166.202 75.7992C168.102 76.4992 169.602 77.5992 170.702 78.8992C171.802 80.2992 172.602 81.8992 173.002 83.6992C173.502 85.5992 173.702 87.5992 173.702 89.8992V108.699H164.302V91.0992C164.302 88.0992 163.902 85.8992 163.102 84.5992C162.302 83.2992 160.802 82.6992 158.602 82.6992C157.902 82.6992 157.202 82.6992 156.402 82.7992C155.602 82.8992 155.002 82.8992 154.402 82.9992V108.699H145.002V76.5992H144.902Z" fill="white"/>
<path d="M209.402 74.5996C212.202 74.5996 214.502 74.8996 216.402 75.5996C218.302 76.1996 219.702 77.0996 220.902 78.2996C222.002 79.4996 222.802 80.8996 223.302 82.5996C223.802 84.2996 224.002 86.1996 224.002 88.1996V107.8C222.602 108.1 220.802 108.4 218.402 108.8C216.002 109.2 213.102 109.4 209.702 109.4C207.502 109.4 205.602 109.2 203.802 108.8C202.002 108.4 200.502 107.8 199.302 106.9C198.002 106 197.102 104.9 196.402 103.5C195.702 102.1 195.402 100.4 195.402 98.3996C195.402 96.4996 195.802 94.7996 196.602 93.4996C197.402 92.0996 198.402 91.0996 199.702 90.2996C201.002 89.4996 202.502 88.8996 204.202 88.5996C205.902 88.1996 207.602 88.0996 209.502 88.0996C210.702 88.0996 211.802 88.1996 212.802 88.2996C213.702 88.3996 214.502 88.4996 215.102 88.6996V87.7996C215.102 86.1996 214.602 84.8996 213.602 83.8996C212.602 82.8996 210.902 82.3996 208.502 82.3996C206.902 82.3996 205.302 82.4996 203.802 82.6996C202.202 82.8996 200.902 83.2996 199.702 83.6996L198.502 76.0996C199.002 75.8996 199.702 75.7996 200.602 75.5996C201.402 75.3996 202.302 75.1996 203.302 75.0996C204.302 74.9996 205.302 74.7996 206.402 74.6996C207.202 74.5996 208.302 74.5996 209.402 74.5996ZM210.202 102.2C211.102 102.2 212.002 102.2 212.902 102.1C213.702 102.1 214.402 102 214.902 101.9V94.6996C214.502 94.5996 214.002 94.4996 213.202 94.3996C212.402 94.2996 211.702 94.2996 211.102 94.2996C210.202 94.2996 209.402 94.3996 208.602 94.4996C207.802 94.5996 207.102 94.7996 206.502 95.0996C205.902 95.3996 205.402 95.7996 205.102 96.2996C204.802 96.7996 204.602 97.3996 204.602 98.1996C204.602 99.6996 205.102 100.7 206.102 101.3C207.102 101.9 208.402 102.2 210.202 102.2Z" fill="white"/>
<path d="M230.902 92.1C230.902 89.7 231.302 87.4 232.102 85.3C232.902 83.2 234.002 81.3 235.502 79.7C237.002 78.1 238.802 76.9 240.902 75.9C243.002 75 245.402 74.5 248.102 74.5C249.902 74.5 251.502 74.7 253.002 75C254.502 75.3 255.902 75.8 257.302 76.4L255.302 83.9C254.402 83.6 253.402 83.3 252.402 83C251.302 82.7 250.202 82.6 248.902 82.6C246.102 82.6 244.002 83.5 242.702 85.2C241.302 86.9 240.602 89.2 240.602 92C240.602 95 241.202 97.3 242.502 99C243.802 100.6 246.002 101.5 249.202 101.5C250.302 101.5 251.602 101.4 252.902 101.2C254.202 101 255.402 100.7 256.502 100.2L257.802 107.9C256.702 108.4 255.302 108.8 253.702 109.1C252.102 109.4 250.202 109.6 248.302 109.6C245.302 109.6 242.602 109.1 240.402 108.2C238.202 107.3 236.402 106.1 235.002 104.5C233.602 102.9 232.602 101.1 231.902 99C231.202 96.9 230.902 94.6 230.902 92.1Z" fill="white"/>
<path d="M274.5 74.5996C277.3 74.5996 279.6 74.8996 281.5 75.5996C283.4 76.2996 284.8 77.0996 286 78.2996C287.1 79.4996 287.9 80.8996 288.4 82.5996C288.9 84.2996 289.1 86.1996 289.1 88.1996V107.8C287.7 108.1 285.9 108.4 283.5 108.8C281.1 109.2 278.2 109.4 274.8 109.4C272.6 109.4 270.7 109.2 268.9 108.8C267.1 108.4 265.6 107.8 264.4 106.9C263.2 106 262.2 104.9 261.5 103.5C260.8 102.1 260.5 100.4 260.5 98.3996C260.5 96.4996 260.9 94.7996 261.7 93.4996C262.5 92.0996 263.5 91.0996 264.8 90.2996C266.1 89.4996 267.6 88.8996 269.3 88.5996C271 88.1996 272.7 88.0996 274.6 88.0996C275.8 88.0996 276.9 88.1996 277.9 88.2996C278.9 88.3996 279.6 88.4996 280.2 88.6996V87.7996C280.2 86.1996 279.7 84.8996 278.7 83.8996C277.7 82.8996 276 82.3996 273.6 82.3996C272 82.3996 270.4 82.4996 268.9 82.6996C267.3 82.8996 266 83.2996 264.8 83.6996L263.6 76.0996C264.1 75.8996 264.8 75.7996 265.7 75.5996C266.5 75.3996 267.4 75.1996 268.4 75.0996C269.4 74.9996 270.4 74.7996 271.5 74.6996C272.3 74.5996 273.4 74.5996 274.5 74.5996ZM275.3 102.2C276.2 102.2 277.1 102.2 278 102.1C278.8 102.1 279.5 102 280 101.9V94.6996C279.6 94.5996 279 94.4996 278.3 94.3996C277.5 94.2996 276.8 94.2996 276.2 94.2996C275.3 94.2996 274.5 94.3996 273.7 94.4996C272.9 94.5996 272.2 94.7996 271.6 95.0996C271 95.3996 270.5 95.7996 270.2 96.2996C269.9 96.7996 269.7 97.3996 269.7 98.1996C269.7 99.6996 270.2 100.7 271.2 101.3C272.2 101.9 273.5 102.2 275.3 102.2Z" fill="white"/>
<path d="M326.902 107.699C326.102 107.999 325.102 108.199 324.002 108.399C322.902 108.599 321.802 108.799 320.502 108.999C319.202 109.199 318.102 109.299 316.802 109.399C315.602 109.499 314.402 109.599 313.202 109.599C310.502 109.599 308.002 109.199 305.902 108.399C303.702 107.599 301.902 106.399 300.502 104.899C299.002 103.399 297.902 101.599 297.102 99.4992C296.302 97.3992 295.902 94.9992 295.902 92.2992C295.902 89.5992 296.202 87.1992 296.902 84.9992C297.602 82.7992 298.502 80.9992 299.802 79.4992C301.102 77.9992 302.602 76.7992 304.502 75.9992C306.302 75.1992 308.402 74.7992 310.802 74.7992C312.102 74.7992 313.302 74.8992 314.302 75.1992C315.302 75.4992 316.402 75.7992 317.402 76.2992V61.1992L326.802 59.6992V107.699H326.902ZM305.602 91.8992C305.602 94.7992 306.302 97.1992 307.602 98.8992C308.902 100.699 310.902 101.599 313.402 101.599C314.202 101.599 315.002 101.599 315.702 101.499C316.402 101.399 317.002 101.399 317.502 101.299V84.0992C316.902 83.6992 316.102 83.3992 315.202 83.0992C314.202 82.7992 313.302 82.6992 312.302 82.6992C307.802 82.7992 305.602 85.7992 305.602 91.8992Z" fill="white"/>
<path d="M334.199 92.3996C334.199 89.3996 334.699 86.8996 335.599 84.5996C336.499 82.3996 337.699 80.4996 339.199 79.0996C340.699 77.5996 342.399 76.4996 344.299 75.6996C346.199 74.8996 348.199 74.5996 350.199 74.5996C354.899 74.5996 358.699 75.9996 361.399 78.8996C364.099 81.7996 365.499 85.9996 365.499 91.6996C365.499 92.1996 365.499 92.8996 365.399 93.4996C365.399 94.1996 365.299 94.6996 365.299 95.1996H343.899C344.099 97.0996 344.999 98.6996 346.599 99.7996C348.199 100.9 350.399 101.5 353.099 101.5C354.799 101.5 356.499 101.3 358.199 101C359.899 100.7 361.199 100.3 362.299 99.7996L363.599 107.5C363.099 107.8 362.399 108 361.599 108.3C360.799 108.6 359.799 108.8 358.799 109C357.799 109.2 356.699 109.3 355.499 109.5C354.299 109.6 353.099 109.7 351.999 109.7C348.999 109.7 346.399 109.3 344.199 108.4C341.999 107.5 340.099 106.3 338.699 104.8C337.299 103.3 336.199 101.4 335.499 99.2996C334.799 97.1996 334.199 94.7996 334.199 92.3996ZM356.399 88.7996C356.399 87.9996 356.199 87.1996 355.999 86.4996C355.799 85.6996 355.399 85.0996 354.899 84.4996C354.399 83.8996 353.799 83.3996 353.099 82.9996C352.399 82.5996 351.399 82.3996 350.299 82.3996C349.199 82.3996 348.299 82.5996 347.599 82.8996C346.799 83.2996 346.199 83.6996 345.699 84.2996C345.199 84.8996 344.799 85.5996 344.499 86.3996C344.199 87.1996 343.999 87.9996 343.899 88.7996H356.399Z" fill="white"/>
<path d="M391.102 91.0992C391.102 88.0992 390.702 85.8992 389.902 84.5992C389.102 83.2992 387.802 82.6992 385.902 82.6992C385.302 82.6992 384.702 82.6992 384.102 82.7992C383.502 82.8992 382.902 82.8992 382.302 82.9992V108.699H372.902V76.5992C373.702 76.3992 374.602 76.1992 375.702 75.8992C376.802 75.6992 377.902 75.4992 379.102 75.2992C380.302 75.0992 381.502 74.9992 382.802 74.8992C384.102 74.7992 385.302 74.6992 386.502 74.6992C388.902 74.6992 390.902 74.9992 392.402 75.5992C393.902 76.1992 395.102 76.8992 396.102 77.7992C397.502 76.7992 399.002 76.0992 400.802 75.4992C402.602 74.9992 404.202 74.6992 405.602 74.6992C408.302 74.6992 410.402 75.0992 412.202 75.7992C413.902 76.4992 415.302 77.5992 416.302 78.8992C417.302 80.2992 418.002 81.8992 418.402 83.6992C418.802 85.4992 419.002 87.5992 419.002 89.8992V108.699H409.602V91.0992C409.602 88.0992 409.202 85.8992 408.402 84.5992C407.602 83.2992 406.302 82.6992 404.402 82.6992C403.902 82.6992 403.202 82.7992 402.302 83.0992C401.402 83.3992 400.602 83.6992 400.102 84.0992C400.402 85.0992 400.602 86.0992 400.702 87.1992C400.802 88.2992 400.802 89.3992 400.802 90.6992V108.899H391.402V91.0992H391.102Z" fill="white"/>
<path d="M456.002 75.4984C454.102 81.8984 452.102 87.8984 450.002 93.4984C447.902 99.0984 445.702 104.598 443.202 109.798C442.302 111.698 441.402 113.298 440.502 114.598C439.602 115.898 438.602 116.998 437.602 117.898C436.502 118.798 435.302 119.398 434.002 119.798C432.702 120.198 431.102 120.398 429.302 120.398C427.802 120.398 426.502 120.298 425.202 119.998C424.002 119.698 422.902 119.398 422.102 119.098L423.702 111.598C424.702 111.898 425.502 112.198 426.302 112.298C427.102 112.398 427.902 112.498 428.702 112.498C430.402 112.498 431.702 111.998 432.602 111.098C433.502 110.198 434.302 108.898 434.902 107.298C432.702 103.098 430.602 98.2984 428.402 93.0984C426.202 87.7984 424.202 81.8984 422.302 75.3984H432.302C432.702 76.9984 433.202 78.7984 433.802 80.7984C434.402 82.6984 435.002 84.6984 435.602 86.5984C436.202 88.5984 436.902 90.4984 437.502 92.2984C438.202 94.1984 438.802 95.7984 439.402 97.3984C439.902 95.8984 440.502 94.1984 441.102 92.2984C441.702 90.3984 442.302 88.4984 442.802 86.5984C443.402 84.5984 443.902 82.6984 444.502 80.7984C445.002 78.8984 445.502 77.0984 445.902 75.3984H456.002V75.4984Z" fill="white"/>
</svg>
