<svg width="24" height="33" viewBox="0 0 24 33" fill="none" xmlns="http://www.w3.org/2000/svg">
<path d="M11.55 0C8.48675 0 5.54896 1.21687 3.38292 3.38292C1.21687 5.54896 0 8.48675 0 11.55C0 15.477 1.9635 18.9255 4.95 21.021V24.75C4.95 25.1876 5.12384 25.6073 5.43327 25.9167C5.74271 26.2262 6.16239 26.4 6.6 26.4H16.5C16.9376 26.4 17.3573 26.2262 17.6667 25.9167C17.9762 25.6073 18.15 25.1876 18.15 24.75V21.021C21.1365 18.9255 23.1 15.477 23.1 11.55C23.1 8.48675 21.8831 5.54896 19.7171 3.38292C17.551 1.21687 14.6132 0 11.55 0ZM6.6 31.35C6.6 31.7876 6.77384 32.2073 7.08327 32.5167C7.39271 32.8262 7.81239 33 8.25 33H14.85C15.2876 33 15.7073 32.8262 16.0167 32.5167C16.3262 32.2073 16.5 31.7876 16.5 31.35V29.7H6.6V31.35Z" fill="#FFBB0B"/>
</svg>
