<svg width="578" height="578" viewBox="0 0 578 578" fill="none" xmlns="http://www.w3.org/2000/svg">
<g clip-path="url(#clip0_1958_708)">
<path d="M578 289C578.101 357.219 553.97 423.257 509.91 475.34C508.31 477.24 506.68 479.11 505.02 480.97C485.485 502.94 462.729 521.818 437.53 536.96C431.75 540.43 425.843 543.7 419.81 546.77C419.2 547.08 418.58 547.39 417.97 547.69C417.24 548.06 416.5 548.42 415.76 548.78C400.493 556.253 384.59 562.35 368.24 567C366.54 567.48 364.837 567.947 363.13 568.4C341.623 574.091 319.529 577.275 297.29 577.89C296.13 577.92 294.99 577.94 293.89 577.96C293.5 577.97 293.12 577.98 292.74 577.98C291.49 577.99 290.25 578 289 578C265.564 578.017 242.213 575.187 219.46 569.57C217.18 569.01 214.91 568.42 212.65 567.8C200.746 564.55 189.064 560.532 177.68 555.77C171.68 553.27 165.787 550.573 160 547.68C158.69 547.02 157.38 546.36 156.09 545.68C155.54 545.41 155 545.12 154.46 544.84C123.618 528.562 95.9603 506.862 72.8101 480.78C71.2101 478.99 69.6401 477.17 68.09 475.34C42.5827 445.097 23.556 409.94 12.1881 372.045C0.820288 334.15 -2.64656 294.325 2.00231 255.036C6.65118 215.747 19.3168 177.831 39.2147 143.636C59.1126 109.441 85.819 79.6945 117.68 56.24C119.32 55.03 120.97 53.83 122.64 52.66C122.97 52.43 123.3 52.2 123.63 51.97C152.973 31.416 185.908 16.5426 220.73 8.11998C222.71 7.62998 224.69 7.16999 226.69 6.73999C264.407 -1.51031 303.387 -2.19352 341.37 4.72998C343.36 5.09998 345.35 5.47999 347.33 5.88999C381.841 12.9685 414.755 26.3342 444.43 45.32C445.09 45.74 445.75 46.16 446.41 46.6C447.74 47.46 449.07 48.34 450.38 49.23C489.691 75.6582 521.894 111.354 544.151 153.168C566.407 194.983 578.032 241.631 578 289Z" fill="#F2F2F2"/>
<path d="M484.65 436.21H93.3395C86.2264 436.21 79.4047 439.036 74.3749 444.065C69.3452 449.095 66.5195 455.917 66.5195 463.03C66.5195 470.143 69.3452 476.965 74.3749 481.995C79.4047 487.024 86.2264 489.85 93.3395 489.85H484.65C488.458 489.851 492.223 489.039 495.693 487.467C499.163 485.896 502.257 483.603 504.77 480.74C505.907 479.446 506.918 478.046 507.79 476.56C508.464 475.42 509.049 474.23 509.54 473C511.173 468.931 511.784 464.524 511.318 460.164C510.852 455.804 509.323 451.626 506.866 447.994C504.409 444.363 501.099 441.389 497.226 439.335C493.352 437.28 489.034 436.207 484.65 436.21Z" fill="#CCCCCC"/>
<path d="M509.91 475.34C501.223 485.633 491.826 495.307 481.79 504.29H96.2098C86.1733 495.307 76.7771 485.633 68.0898 475.34H509.91Z" fill="#3F3D56"/>
<path d="M321.278 375.07H256.358C256.009 375.067 255.661 375.121 255.328 375.23C254.624 375.448 254.007 375.886 253.57 376.48C253.133 377.074 252.897 377.793 252.898 378.531V481.091H324.748V378.531C324.748 378.075 324.658 377.625 324.483 377.205C324.309 376.784 324.053 376.403 323.731 376.081C323.408 375.76 323.026 375.505 322.605 375.332C322.184 375.158 321.734 375.07 321.278 375.07ZM296.708 425.67C296.711 427.334 296.162 428.952 295.148 430.271C294.181 431.551 292.836 432.495 291.304 432.97C289.771 433.445 288.128 433.428 286.606 432.92C285.084 432.412 283.76 431.439 282.821 430.138C281.881 428.838 281.373 427.275 281.368 425.67V413.771C281.387 411.749 282.204 409.816 283.64 408.393C285.076 406.97 287.016 406.171 289.038 406.171C291.06 406.171 293.001 406.97 294.437 408.393C295.873 409.816 296.69 411.749 296.708 413.771V425.67Z" fill="#2F2E41"/>
<path d="M252.68 477.81V487.7C252.68 488.212 252.883 488.704 253.244 489.068C253.606 489.431 254.097 489.637 254.61 489.64H323.04C323.552 489.635 324.042 489.429 324.403 489.066C324.765 488.703 324.968 488.212 324.97 487.7V477.81H252.68Z" fill="#3F3D56"/>
<path d="M428.781 215.02H151.281C148.897 215.023 146.611 215.97 144.924 217.655C143.237 219.34 142.287 221.625 142.281 224.01V411.27C142.283 413.656 143.232 415.944 144.919 417.631C146.607 419.319 148.895 420.268 151.281 420.27H428.781C431.168 420.268 433.456 419.319 435.143 417.631C436.831 415.944 437.779 413.656 437.781 411.27V224.01C437.776 221.625 436.825 219.34 435.138 217.655C433.451 215.97 431.166 215.023 428.781 215.02Z" fill="#3F3D56"/>
<path d="M426.461 221.52H153.591C152.315 221.522 151.091 222.031 150.19 222.935C149.288 223.839 148.781 225.063 148.781 226.34V408.96C148.783 410.235 149.291 411.457 150.192 412.358C151.094 413.26 152.316 413.767 153.591 413.77H426.461C427.736 413.767 428.958 413.26 429.86 412.358C430.762 411.457 431.269 410.235 431.271 408.96V226.34C431.271 225.063 430.765 223.839 429.863 222.935C428.961 222.031 427.738 221.522 426.461 221.52Z" fill="#028ACC"/>
<path d="M376.242 489.48L373.722 477.51C373.617 477.022 373.392 476.567 373.068 476.188C372.743 475.809 372.328 475.518 371.862 475.34C371.524 475.207 371.165 475.139 370.802 475.14H213.492C213.129 475.139 212.769 475.207 212.432 475.34C211.965 475.518 211.551 475.809 211.226 476.188C210.901 476.567 210.676 477.022 210.572 477.51L208.052 489.48C207.961 489.914 207.968 490.364 208.072 490.795C208.177 491.227 208.376 491.629 208.655 491.974C208.935 492.319 209.288 492.597 209.689 492.788C210.09 492.98 210.528 493.079 210.972 493.08H373.312C373.757 493.082 374.197 492.983 374.599 492.791C375.001 492.599 375.354 492.318 375.632 491.97C375.912 491.626 376.112 491.224 376.218 490.793C376.323 490.363 376.331 489.914 376.242 489.48Z" fill="#2F2E41"/>
<path d="M219.156 477.296H215.133C214.863 477.296 214.645 477.514 214.645 477.784V479.808C214.645 480.077 214.863 480.296 215.133 480.296H219.156C219.426 480.296 219.645 480.077 219.645 479.808V477.784C219.645 477.514 219.426 477.296 219.156 477.296Z" fill="#3F3D56"/>
<path d="M229.156 477.296H225.133C224.863 477.296 224.645 477.514 224.645 477.784V479.808C224.645 480.077 224.863 480.296 225.133 480.296H229.156C229.426 480.296 229.645 480.077 229.645 479.808V477.784C229.645 477.514 229.426 477.296 229.156 477.296Z" fill="#3F3D56"/>
<path d="M239.156 477.296H235.133C234.863 477.296 234.645 477.514 234.645 477.784V479.808C234.645 480.077 234.863 480.296 235.133 480.296H239.156C239.426 480.296 239.645 480.077 239.645 479.808V477.784C239.645 477.514 239.426 477.296 239.156 477.296Z" fill="#3F3D56"/>
<path d="M249.156 477.296H245.133C244.863 477.296 244.645 477.514 244.645 477.784V479.808C244.645 480.077 244.863 480.296 245.133 480.296H249.156C249.426 480.296 249.645 480.077 249.645 479.808V477.784C249.645 477.514 249.426 477.296 249.156 477.296Z" fill="#3F3D56"/>
<path d="M259.156 477.296H255.133C254.863 477.296 254.645 477.514 254.645 477.784V479.808C254.645 480.077 254.863 480.296 255.133 480.296H259.156C259.426 480.296 259.645 480.077 259.645 479.808V477.784C259.645 477.514 259.426 477.296 259.156 477.296Z" fill="#3F3D56"/>
<path d="M269.156 477.296H265.133C264.863 477.296 264.645 477.514 264.645 477.784V479.808C264.645 480.077 264.863 480.296 265.133 480.296H269.156C269.426 480.296 269.645 480.077 269.645 479.808V477.784C269.645 477.514 269.426 477.296 269.156 477.296Z" fill="#3F3D56"/>
<path d="M279.156 477.296H275.133C274.863 477.296 274.645 477.514 274.645 477.784V479.808C274.645 480.077 274.863 480.296 275.133 480.296H279.156C279.426 480.296 279.645 480.077 279.645 479.808V477.784C279.645 477.514 279.426 477.296 279.156 477.296Z" fill="#3F3D56"/>
<path d="M289.156 477.296H285.133C284.863 477.296 284.645 477.514 284.645 477.784V479.808C284.645 480.077 284.863 480.296 285.133 480.296H289.156C289.426 480.296 289.645 480.077 289.645 479.808V477.784C289.645 477.514 289.426 477.296 289.156 477.296Z" fill="#3F3D56"/>
<path d="M299.156 477.296H295.133C294.863 477.296 294.645 477.514 294.645 477.784V479.808C294.645 480.077 294.863 480.296 295.133 480.296H299.156C299.426 480.296 299.645 480.077 299.645 479.808V477.784C299.645 477.514 299.426 477.296 299.156 477.296Z" fill="#3F3D56"/>
<path d="M309.156 477.296H305.133C304.863 477.296 304.645 477.514 304.645 477.784V479.808C304.645 480.077 304.863 480.296 305.133 480.296H309.156C309.426 480.296 309.645 480.077 309.645 479.808V477.784C309.645 477.514 309.426 477.296 309.156 477.296Z" fill="#3F3D56"/>
<path d="M319.156 477.296H315.133C314.863 477.296 314.645 477.514 314.645 477.784V479.808C314.645 480.077 314.863 480.296 315.133 480.296H319.156C319.426 480.296 319.645 480.077 319.645 479.808V477.784C319.645 477.514 319.426 477.296 319.156 477.296Z" fill="#3F3D56"/>
<path d="M329.156 477.296H325.133C324.863 477.296 324.645 477.514 324.645 477.784V479.808C324.645 480.077 324.863 480.296 325.133 480.296H329.156C329.426 480.296 329.645 480.077 329.645 479.808V477.784C329.645 477.514 329.426 477.296 329.156 477.296Z" fill="#3F3D56"/>
<path d="M339.156 477.296H335.133C334.863 477.296 334.645 477.514 334.645 477.784V479.808C334.645 480.077 334.863 480.296 335.133 480.296H339.156C339.426 480.296 339.645 480.077 339.645 479.808V477.784C339.645 477.514 339.426 477.296 339.156 477.296Z" fill="#3F3D56"/>
<path d="M349.156 477.296H345.133C344.863 477.296 344.645 477.514 344.645 477.784V479.808C344.645 480.077 344.863 480.296 345.133 480.296H349.156C349.426 480.296 349.645 480.077 349.645 479.808V477.784C349.645 477.514 349.426 477.296 349.156 477.296Z" fill="#3F3D56"/>
<path d="M359.156 477.296H355.133C354.863 477.296 354.645 477.514 354.645 477.784V479.808C354.645 480.077 354.863 480.296 355.133 480.296H359.156C359.426 480.296 359.645 480.077 359.645 479.808V477.784C359.645 477.514 359.426 477.296 359.156 477.296Z" fill="#3F3D56"/>
<path d="M369.156 477.296H365.133C364.863 477.296 364.645 477.514 364.645 477.784V479.808C364.645 480.077 364.863 480.296 365.133 480.296H369.156C369.426 480.296 369.645 480.077 369.645 479.808V477.784C369.645 477.514 369.426 477.296 369.156 477.296Z" fill="#3F3D56"/>
<path d="M219.035 482.296H215.012C214.742 482.296 214.523 482.514 214.523 482.784V484.808C214.523 485.077 214.742 485.296 215.012 485.296H219.035C219.305 485.296 219.523 485.077 219.523 484.808V482.784C219.523 482.514 219.305 482.296 219.035 482.296Z" fill="#3F3D56"/>
<path d="M229.035 482.296H225.012C224.742 482.296 224.523 482.514 224.523 482.784V484.808C224.523 485.077 224.742 485.296 225.012 485.296H229.035C229.305 485.296 229.523 485.077 229.523 484.808V482.784C229.523 482.514 229.305 482.296 229.035 482.296Z" fill="#3F3D56"/>
<path d="M239.035 482.296H235.012C234.742 482.296 234.523 482.514 234.523 482.784V484.808C234.523 485.077 234.742 485.296 235.012 485.296H239.035C239.305 485.296 239.523 485.077 239.523 484.808V482.784C239.523 482.514 239.305 482.296 239.035 482.296Z" fill="#3F3D56"/>
<path d="M249.035 482.296H245.012C244.742 482.296 244.523 482.514 244.523 482.784V484.808C244.523 485.077 244.742 485.296 245.012 485.296H249.035C249.305 485.296 249.523 485.077 249.523 484.808V482.784C249.523 482.514 249.305 482.296 249.035 482.296Z" fill="#3F3D56"/>
<path d="M259.035 482.296H255.012C254.742 482.296 254.523 482.514 254.523 482.784V484.808C254.523 485.077 254.742 485.296 255.012 485.296H259.035C259.305 485.296 259.523 485.077 259.523 484.808V482.784C259.523 482.514 259.305 482.296 259.035 482.296Z" fill="#3F3D56"/>
<path d="M269.035 482.296H265.012C264.742 482.296 264.523 482.514 264.523 482.784V484.808C264.523 485.077 264.742 485.296 265.012 485.296H269.035C269.305 485.296 269.523 485.077 269.523 484.808V482.784C269.523 482.514 269.305 482.296 269.035 482.296Z" fill="#3F3D56"/>
<path d="M279.035 482.296H275.012C274.742 482.296 274.523 482.514 274.523 482.784V484.808C274.523 485.077 274.742 485.296 275.012 485.296H279.035C279.305 485.296 279.523 485.077 279.523 484.808V482.784C279.523 482.514 279.305 482.296 279.035 482.296Z" fill="#3F3D56"/>
<path d="M289.035 482.296H285.012C284.742 482.296 284.523 482.514 284.523 482.784V484.808C284.523 485.077 284.742 485.296 285.012 485.296H289.035C289.305 485.296 289.523 485.077 289.523 484.808V482.784C289.523 482.514 289.305 482.296 289.035 482.296Z" fill="#3F3D56"/>
<path d="M299.035 482.296H295.012C294.742 482.296 294.523 482.514 294.523 482.784V484.808C294.523 485.077 294.742 485.296 295.012 485.296H299.035C299.305 485.296 299.523 485.077 299.523 484.808V482.784C299.523 482.514 299.305 482.296 299.035 482.296Z" fill="#3F3D56"/>
<path d="M309.035 482.296H305.012C304.742 482.296 304.523 482.514 304.523 482.784V484.808C304.523 485.077 304.742 485.296 305.012 485.296H309.035C309.305 485.296 309.523 485.077 309.523 484.808V482.784C309.523 482.514 309.305 482.296 309.035 482.296Z" fill="#3F3D56"/>
<path d="M319.035 482.296H315.012C314.742 482.296 314.523 482.514 314.523 482.784V484.808C314.523 485.077 314.742 485.296 315.012 485.296H319.035C319.305 485.296 319.523 485.077 319.523 484.808V482.784C319.523 482.514 319.305 482.296 319.035 482.296Z" fill="#3F3D56"/>
<path d="M329.035 482.296H325.012C324.742 482.296 324.523 482.514 324.523 482.784V484.808C324.523 485.077 324.742 485.296 325.012 485.296H329.035C329.305 485.296 329.523 485.077 329.523 484.808V482.784C329.523 482.514 329.305 482.296 329.035 482.296Z" fill="#3F3D56"/>
<path d="M339.035 482.296H335.012C334.742 482.296 334.523 482.514 334.523 482.784V484.808C334.523 485.077 334.742 485.296 335.012 485.296H339.035C339.305 485.296 339.523 485.077 339.523 484.808V482.784C339.523 482.514 339.305 482.296 339.035 482.296Z" fill="#3F3D56"/>
<path d="M349.035 482.296H345.012C344.742 482.296 344.523 482.514 344.523 482.784V484.808C344.523 485.077 344.742 485.296 345.012 485.296H349.035C349.305 485.296 349.523 485.077 349.523 484.808V482.784C349.523 482.514 349.305 482.296 349.035 482.296Z" fill="#3F3D56"/>
<path d="M359.035 482.296H355.012C354.742 482.296 354.523 482.514 354.523 482.784V484.808C354.523 485.077 354.742 485.296 355.012 485.296H359.035C359.305 485.296 359.523 485.077 359.523 484.808V482.784C359.523 482.514 359.305 482.296 359.035 482.296Z" fill="#3F3D56"/>
<path d="M369.035 482.296H365.012C364.742 482.296 364.523 482.514 364.523 482.784V484.808C364.523 485.077 364.742 485.296 365.012 485.296H369.035C369.305 485.296 369.523 485.077 369.523 484.808V482.784C369.523 482.514 369.305 482.296 369.035 482.296Z" fill="#3F3D56"/>
<path d="M302.035 488.296H263.012C262.742 488.296 262.523 488.514 262.523 488.784V490.808C262.523 491.077 262.742 491.296 263.012 491.296H302.035C302.305 491.296 302.523 491.077 302.523 490.808V488.784C302.523 488.514 302.305 488.296 302.035 488.296Z" fill="#3F3D56"/>
<path d="M412.746 246.677H157.423C157.158 246.671 156.905 246.562 156.719 246.372C156.534 246.182 156.43 245.927 156.43 245.662C156.43 245.396 156.534 245.141 156.719 244.952C156.905 244.762 157.158 244.652 157.423 244.646H412.746C413.012 244.652 413.264 244.762 413.45 244.952C413.636 245.141 413.74 245.396 413.74 245.662C413.74 245.927 413.636 246.182 413.45 246.372C413.264 246.562 413.012 246.671 412.746 246.677Z" fill="#3F3D56"/>
<path d="M174.806 239.462C178.092 239.462 180.756 236.739 180.756 233.379C180.756 230.019 178.092 227.296 174.806 227.296C171.52 227.296 168.855 230.019 168.855 233.379C168.855 236.739 171.52 239.462 174.806 239.462Z" fill="#3F3D56"/>
<path d="M195.361 239.462C198.647 239.462 201.311 236.739 201.311 233.379C201.311 230.019 198.647 227.296 195.361 227.296C192.074 227.296 189.41 230.019 189.41 233.379C189.41 236.739 192.074 239.462 195.361 239.462Z" fill="#3F3D56"/>
<path d="M215.915 239.462C219.202 239.462 221.866 236.739 221.866 233.379C221.866 230.019 219.202 227.296 215.915 227.296C212.629 227.296 209.965 230.019 209.965 233.379C209.965 236.739 212.629 239.462 215.915 239.462Z" fill="#3F3D56"/>
<path d="M400.371 228.8H385.771C385.482 228.807 385.208 228.926 385.006 229.132C384.804 229.339 384.691 229.616 384.691 229.905C384.691 230.194 384.804 230.471 385.006 230.677C385.208 230.884 385.482 231.003 385.771 231.01H400.371C400.661 231.006 400.938 230.888 401.142 230.681C401.346 230.474 401.461 230.195 401.461 229.905C401.461 229.614 401.346 229.336 401.142 229.129C400.938 228.922 400.661 228.804 400.371 228.8Z" fill="#3F3D56"/>
<path d="M400.368 232.95H385.768C385.48 232.957 385.205 233.076 385.003 233.282C384.801 233.489 384.688 233.766 384.688 234.055C384.688 234.344 384.801 234.622 385.003 234.828C385.205 235.035 385.48 235.154 385.768 235.16H400.368C400.659 235.157 400.937 235.039 401.141 234.832C401.346 234.625 401.46 234.346 401.46 234.055C401.46 233.764 401.346 233.485 401.141 233.279C400.937 233.072 400.659 232.954 400.368 232.95Z" fill="#3F3D56"/>
<path d="M400.371 237.1H385.771C385.482 237.106 385.208 237.226 385.006 237.432C384.804 237.639 384.691 237.916 384.691 238.205C384.691 238.493 384.804 238.771 385.006 238.977C385.208 239.184 385.482 239.303 385.771 239.31H400.371C400.661 239.306 400.938 239.187 401.142 238.98C401.346 238.774 401.461 238.495 401.461 238.205C401.461 237.914 401.346 237.635 401.142 237.429C400.938 237.222 400.661 237.104 400.371 237.1Z" fill="#3F3D56"/>
<path d="M179.439 270.273H174.192C172.602 270.273 171.312 271.563 171.312 273.153C171.312 274.744 172.602 276.033 174.192 276.033H179.439C181.029 276.033 182.319 274.744 182.319 273.153C182.319 271.563 181.029 270.273 179.439 270.273Z" fill="#E6E6E6"/>
<path d="M239.439 270.273H234.192C232.602 270.273 231.312 271.563 231.312 273.153C231.312 274.744 232.602 276.033 234.192 276.033H239.439C241.029 276.033 242.319 274.744 242.319 273.153C242.319 271.563 241.029 270.273 239.439 270.273Z" fill="#E6E6E6"/>
<path d="M256.439 270.273H251.192C249.602 270.273 248.312 271.563 248.312 273.153C248.312 274.744 249.602 276.033 251.192 276.033H256.439C258.029 276.033 259.319 274.744 259.319 273.153C259.319 271.563 258.029 270.273 256.439 270.273Z" fill="#E6E6E6"/>
<path d="M223.119 269.793H190.513C188.922 269.793 187.633 271.082 187.633 272.673C187.633 274.263 188.922 275.553 190.513 275.553H223.119C224.709 275.553 225.999 274.263 225.999 272.673C225.999 271.082 224.709 269.793 223.119 269.793Z" fill="#E6E6E6"/>
<path d="M303.119 269.793H270.513C268.922 269.793 267.633 271.082 267.633 272.673C267.633 274.263 268.922 275.553 270.513 275.553H303.119C304.709 275.553 305.999 274.263 305.999 272.673C305.999 271.082 304.709 269.793 303.119 269.793Z" fill="#E6E6E6"/>
<path d="M195.439 283.273H190.192C188.602 283.273 187.312 284.563 187.312 286.153C187.312 287.744 188.602 289.033 190.192 289.033H195.439C197.029 289.033 198.319 287.744 198.319 286.153C198.319 284.563 197.029 283.273 195.439 283.273Z" fill="#E6E6E6"/>
<path d="M255.439 283.273H250.192C248.602 283.273 247.312 284.563 247.312 286.153C247.312 287.744 248.602 289.033 250.192 289.033H255.439C257.029 289.033 258.319 287.744 258.319 286.153C258.319 284.563 257.029 283.273 255.439 283.273Z" fill="#E6E6E6"/>
<path d="M272.439 283.273H267.192C265.602 283.273 264.312 284.563 264.312 286.153C264.312 287.744 265.602 289.033 267.192 289.033H272.439C274.029 289.033 275.319 287.744 275.319 286.153C275.319 284.563 274.029 283.273 272.439 283.273Z" fill="#E6E6E6"/>
<path d="M239.119 282.793H206.513C204.922 282.793 203.633 284.082 203.633 285.673C203.633 287.263 204.922 288.553 206.513 288.553H239.119C240.709 288.553 241.999 287.263 241.999 285.673C241.999 284.082 240.709 282.793 239.119 282.793Z" fill="#E6E6E6"/>
<path d="M319.119 282.793H286.513C284.922 282.793 283.633 284.082 283.633 285.673C283.633 287.263 284.922 288.553 286.513 288.553H319.119C320.709 288.553 321.999 287.263 321.999 285.673C321.999 284.082 320.709 282.793 319.119 282.793Z" fill="#E6E6E6"/>
<path d="M211.439 296.273H206.192C204.602 296.273 203.312 297.563 203.312 299.153C203.312 300.744 204.602 302.033 206.192 302.033H211.439C213.029 302.033 214.319 300.744 214.319 299.153C214.319 297.563 213.029 296.273 211.439 296.273Z" fill="#E6E6E6"/>
<path d="M271.439 296.273H266.192C264.602 296.273 263.312 297.563 263.312 299.153C263.312 300.744 264.602 302.033 266.192 302.033H271.439C273.029 302.033 274.319 300.744 274.319 299.153C274.319 297.563 273.029 296.273 271.439 296.273Z" fill="#E6E6E6"/>
<path d="M288.439 296.273H283.192C281.602 296.273 280.312 297.563 280.312 299.153C280.312 300.744 281.602 302.033 283.192 302.033H288.439C290.029 302.033 291.319 300.744 291.319 299.153C291.319 297.563 290.029 296.273 288.439 296.273Z" fill="#E6E6E6"/>
<path d="M255.119 295.793H222.513C220.922 295.793 219.633 297.082 219.633 298.673C219.633 300.263 220.922 301.553 222.513 301.553H255.119C256.709 301.553 257.999 300.263 257.999 298.673C257.999 297.082 256.709 295.793 255.119 295.793Z" fill="#E6E6E6"/>
<path d="M335.119 295.793H302.513C300.922 295.793 299.633 297.082 299.633 298.673C299.633 300.263 300.922 301.553 302.513 301.553H335.119C336.709 301.553 337.999 300.263 337.999 298.673C337.999 297.082 336.709 295.793 335.119 295.793Z" fill="#E6E6E6"/>
<path d="M227.439 309.273H222.192C220.602 309.273 219.312 310.563 219.312 312.153C219.312 313.744 220.602 315.033 222.192 315.033H227.439C229.029 315.033 230.319 313.744 230.319 312.153C230.319 310.563 229.029 309.273 227.439 309.273Z" fill="#E6E6E6"/>
<path d="M287.439 309.273H282.192C280.602 309.273 279.312 310.563 279.312 312.153C279.312 313.744 280.602 315.033 282.192 315.033H287.439C289.029 315.033 290.319 313.744 290.319 312.153C290.319 310.563 289.029 309.273 287.439 309.273Z" fill="#E6E6E6"/>
<path d="M304.439 309.273H299.192C297.602 309.273 296.312 310.563 296.312 312.153C296.312 313.744 297.602 315.033 299.192 315.033H304.439C306.029 315.033 307.319 313.744 307.319 312.153C307.319 310.563 306.029 309.273 304.439 309.273Z" fill="#E6E6E6"/>
<path d="M271.119 308.793H238.513C236.922 308.793 235.633 310.082 235.633 311.673C235.633 313.263 236.922 314.553 238.513 314.553H271.119C272.709 314.553 273.999 313.263 273.999 311.673C273.999 310.082 272.709 308.793 271.119 308.793Z" fill="#E6E6E6"/>
<path d="M239.439 360.967H234.192C232.602 360.967 231.312 362.256 231.312 363.847C231.312 365.437 232.602 366.727 234.192 366.727H239.439C241.029 366.727 242.319 365.437 242.319 363.847C242.319 362.256 241.029 360.967 239.439 360.967Z" fill="#E6E6E6"/>
<path d="M256.439 360.967H251.192C249.602 360.967 248.312 362.256 248.312 363.847C248.312 365.437 249.602 366.727 251.192 366.727H256.439C258.029 366.727 259.319 365.437 259.319 363.847C259.319 362.256 258.029 360.967 256.439 360.967Z" fill="#E6E6E6"/>
<path d="M303.119 361.447H270.513C268.922 361.447 267.633 362.737 267.633 364.327C267.633 365.918 268.922 367.207 270.513 367.207H303.119C304.709 367.207 305.999 365.918 305.999 364.327C305.999 362.737 304.709 361.447 303.119 361.447Z" fill="#E6E6E6"/>
<path d="M179.439 360.967H174.192C172.602 360.967 171.312 362.256 171.312 363.847C171.312 365.437 172.602 366.727 174.192 366.727H179.439C181.029 366.727 182.319 365.437 182.319 363.847C182.319 362.256 181.029 360.967 179.439 360.967Z" fill="#E6E6E6"/>
<path d="M223.119 361.447H190.513C188.922 361.447 187.633 362.737 187.633 364.327C187.633 365.918 188.922 367.207 190.513 367.207H223.119C224.709 367.207 225.999 365.918 225.999 364.327C225.999 362.737 224.709 361.447 223.119 361.447Z" fill="#E6E6E6"/>
<path d="M195.439 347.967H190.192C188.602 347.967 187.312 349.256 187.312 350.847C187.312 352.437 188.602 353.727 190.192 353.727H195.439C197.029 353.727 198.319 352.437 198.319 350.847C198.319 349.256 197.029 347.967 195.439 347.967Z" fill="#E6E6E6"/>
<path d="M255.439 347.967H250.192C248.602 347.967 247.312 349.256 247.312 350.847C247.312 352.437 248.602 353.727 250.192 353.727H255.439C257.029 353.727 258.319 352.437 258.319 350.847C258.319 349.256 257.029 347.967 255.439 347.967Z" fill="#E6E6E6"/>
<path d="M272.439 347.967H267.192C265.602 347.967 264.312 349.256 264.312 350.847C264.312 352.437 265.602 353.727 267.192 353.727H272.439C274.029 353.727 275.319 352.437 275.319 350.847C275.319 349.256 274.029 347.967 272.439 347.967Z" fill="#E6E6E6"/>
<path d="M239.119 348.447H206.513C204.922 348.447 203.633 349.737 203.633 351.327C203.633 352.918 204.922 354.207 206.513 354.207H239.119C240.709 354.207 241.999 352.918 241.999 351.327C241.999 349.737 240.709 348.447 239.119 348.447Z" fill="#E6E6E6"/>
<path d="M211.439 334.967H206.192C204.602 334.967 203.312 336.256 203.312 337.847C203.312 339.437 204.602 340.727 206.192 340.727H211.439C213.029 340.727 214.319 339.437 214.319 337.847C214.319 336.256 213.029 334.967 211.439 334.967Z" fill="#E6E6E6"/>
<path d="M271.439 334.967H266.192C264.602 334.967 263.312 336.256 263.312 337.847C263.312 339.437 264.602 340.727 266.192 340.727H271.439C273.029 340.727 274.319 339.437 274.319 337.847C274.319 336.256 273.029 334.967 271.439 334.967Z" fill="#E6E6E6"/>
<path d="M288.439 334.967H283.192C281.602 334.967 280.312 336.256 280.312 337.847C280.312 339.437 281.602 340.727 283.192 340.727H288.439C290.029 340.727 291.319 339.437 291.319 337.847C291.319 336.256 290.029 334.967 288.439 334.967Z" fill="#E6E6E6"/>
<path d="M255.119 335.447H222.513C220.922 335.447 219.633 336.737 219.633 338.327C219.633 339.918 220.922 341.207 222.513 341.207H255.119C256.709 341.207 257.999 339.918 257.999 338.327C257.999 336.737 256.709 335.447 255.119 335.447Z" fill="#E6E6E6"/>
<path d="M227.439 321.967H222.192C220.602 321.967 219.312 323.256 219.312 324.847C219.312 326.437 220.602 327.727 222.192 327.727H227.439C229.029 327.727 230.319 326.437 230.319 324.847C230.319 323.256 229.029 321.967 227.439 321.967Z" fill="#E6E6E6"/>
<path d="M287.439 321.967H282.192C280.602 321.967 279.312 323.256 279.312 324.847C279.312 326.437 280.602 327.727 282.192 327.727H287.439C289.029 327.727 290.319 326.437 290.319 324.847C290.319 323.256 289.029 321.967 287.439 321.967Z" fill="#E6E6E6"/>
<path d="M304.439 321.967H299.192C297.602 321.967 296.312 323.256 296.312 324.847C296.312 326.437 297.602 327.727 299.192 327.727H304.439C306.029 327.727 307.319 326.437 307.319 324.847C307.319 323.256 306.029 321.967 304.439 321.967Z" fill="#E6E6E6"/>
<path d="M271.119 322.447H238.513C236.922 322.447 235.633 323.737 235.633 325.327C235.633 326.918 236.922 328.207 238.513 328.207H271.119C272.709 328.207 273.999 326.918 273.999 325.327C273.999 323.737 272.709 322.447 271.119 322.447Z" fill="#E6E6E6"/>
<path d="M415.81 548.77C415.2 549.08 414.58 549.39 413.97 549.69C398.17 557.59 385.53 562.08 368.24 567C366.78 550.7 365.37 522.05 364 504.29C363.64 499.68 363.28 495.81 362.93 493.08C362.842 491.629 362.545 490.197 362.05 488.83L362.11 493.08L362.26 504.29L363.13 568.4C341.622 574.091 319.529 577.275 297.29 577.89C296.13 577.92 294.99 577.94 293.89 577.96C293.5 577.97 293.12 577.98 292.74 577.98C291.49 577.99 290.25 578 289 578C265.564 578.017 242.213 575.187 219.46 569.57C219.95 553.44 220.44 525.11 220.91 504.29C221.01 500.22 221.1 496.43 221.2 493.08C221.39 485.92 221.59 480.76 221.78 479.03C221.612 479.337 221.481 479.662 221.39 480C220.464 484.312 219.832 488.682 219.5 493.08C219.15 496.43 218.8 500.22 218.45 504.29C216.59 525.92 214.65 555.33 212.65 567.8C200.746 564.55 189.064 560.532 177.68 555.77C171.68 553.27 165.787 550.573 160 547.68C161.1 540.48 162.25 532.41 163.43 524.04C164.35 517.55 165.3 510.88 166.27 504.29C167.77 494.11 169.31 484.13 170.87 475.34C173.15 462.5 175.49 452.18 177.81 447.44C180.01 442.94 182.21 438.5 184.34 434.25C185.08 432.76 185.82 431.29 186.54 429.86C186.71 429.52 186.88 429.19 187.05 428.86C188.58 425.85 190.06 422.97 191.47 420.27C192.68 417.96 193.83 415.78 194.92 413.77C197.56 408.89 199.8 405 201.46 402.54C208.4 392.013 218.732 384.176 230.74 380.33L231.04 380.25L231.25 380.34L251.7 374.06L254.69 373.14L256.7 372.52L263.78 367.13L267.63 364.2L271.24 361.45L278.3 356.08L322.01 358.77L330.52 379.26L349.58 386.23L349.91 386.08L350.2 385.96L350.5 386.04C362.506 389.889 372.837 397.726 379.78 408.25C380.72 409.66 381.86 411.52 383.15 413.77C384.25 415.68 385.45 417.86 386.75 420.27C388.6 423.7 390.62 427.57 392.76 431.76C393.23 432.68 393.71 433.62 394.19 434.57C395.08 436.33 395.983 438.127 396.9 439.96C399.03 444.21 401.23 448.65 403.43 453.16C405.34 457.07 407.27 465.11 409.17 475.34C410.74 483.84 412.3 493.86 413.81 504.29C415.79 517.81 413.68 534 415.47 546.44C415.58 547.23 415.7 548 415.81 548.77Z" fill="#3F3D56"/>
<path d="M289.614 339.725C317.69 339.725 340.45 316.964 340.45 288.888C340.45 260.812 317.69 238.052 289.614 238.052C261.538 238.052 238.777 260.812 238.777 288.888C238.777 316.964 261.538 339.725 289.614 339.725Z" fill="#A0616A"/>
<path d="M373.451 221.52C372.446 219.175 371.109 216.986 369.481 215.02C361.761 205.59 347.721 201.44 333.311 212.6C330.537 211.981 327.645 212.147 324.961 213.08C323.693 213.539 322.505 214.194 321.441 215.02C319.259 216.722 317.556 218.962 316.501 221.52C315.936 222.871 315.566 224.296 315.401 225.75C311.838 223.9 308.068 222.48 304.171 221.52C294.606 219.141 284.605 219.141 275.041 221.52C271.976 222.296 269.024 223.466 266.261 225C261.581 227.7 258.891 231.11 258.411 234.9C251.661 235.28 244.641 238.83 239.411 244.65C238.821 245.3 238.251 245.98 237.721 246.68C233.322 252.435 230.959 259.487 231.001 266.73V268H232.271C235.75 267.997 239.197 268.669 242.421 269.98C244.509 270.819 246.487 271.911 248.311 273.23C249.503 274.077 250.63 275.013 251.681 276.03C254.116 278.388 256.18 281.103 257.801 284.08C261.955 291.605 263.396 300.33 261.881 308.79C261.533 310.749 261.025 312.675 260.361 314.55C259.416 317.226 258.171 319.785 256.651 322.18C256.591 322.27 256.541 322.36 256.481 322.45C255.811 323.52 255.171 324.61 254.571 325.71C254.121 326.53 253.701 327.37 253.311 328.21C252.171 330.548 251.208 332.968 250.431 335.45C249.039 339.84 248.219 344.391 247.991 348.99C247.921 350.21 247.901 351.43 247.941 352.65C248 355.795 248.345 358.928 248.971 362.01C249.061 362.43 249.151 362.84 249.241 363.26L249.971 366.451L251.701 374.06L252.901 379.3L254.011 384.16L255.651 381.81C256.211 381.01 257.621 378.55 259.511 375.07C260.761 372.8 262.211 370.09 263.781 367.13C265.971 362.98 268.371 358.35 270.72 353.73C271.67 351.86 272.611 350 273.521 348.18C275.241 344.73 276.861 341.4 278.251 338.44C279.531 335.71 280.621 333.29 281.431 331.35C281.681 332.62 281.891 333.91 282.051 335.21C282.231 336.53 282.361 337.87 282.431 339.21C282.451 339.41 282.461 339.62 282.471 339.821L282.511 340.641L282.521 340.881L283.581 341.021C289.694 341.675 295.858 341.722 301.981 341.161H301.991C310.102 340.55 318.06 338.621 325.551 335.451C329.805 333.605 333.778 331.167 337.351 328.211C339.02 326.828 340.578 325.317 342.011 323.691C342.371 323.281 342.721 322.871 343.061 322.451C345.04 320.018 346.734 317.368 348.111 314.551C349.032 312.691 349.815 310.766 350.451 308.791C354.291 297.161 354.071 282.651 349.791 265.411C350.947 265.188 352.054 264.761 353.061 264.151C356.201 262.261 358.381 258.511 359.061 253.931L360.141 254.221C363.969 252.437 367.38 249.868 370.151 246.681C370.699 246.031 371.213 245.354 371.691 244.651C376.581 237.45 376.621 228.81 373.451 221.52Z" fill="#2F2E41"/>
<path opacity="0.2" d="M206.32 475.296L214.817 442.504L222.32 470.8L206.32 475.296Z" fill="black"/>
<path d="M432.429 453.93C429.389 495.81 432.539 514.25 415.759 548.78C400.492 556.253 384.589 562.351 368.239 567C366.539 567.48 364.836 567.947 363.129 568.4C341.622 574.091 319.528 577.276 297.289 577.89C296.129 577.92 294.989 577.94 293.889 577.96C293.499 577.97 293.119 577.98 292.739 577.98C291.489 577.99 290.249 578 288.999 578C265.563 578.018 242.212 575.187 219.459 569.57C217.179 569.01 214.909 568.42 212.649 567.8C200.745 564.55 189.064 560.532 177.679 555.77C171.679 553.27 165.786 550.574 159.999 547.68C158.689 547.02 157.379 546.36 156.089 545.68C149.459 534.02 145.689 519.84 145.609 502.8C150.199 473.44 422.289 428.61 432.429 453.93Z" fill="#2F2E41"/>
<path opacity="0.2" d="M432.422 461.102C432.577 458.509 432.75 455.831 432.953 453.042C422.813 427.722 150.723 472.552 146.133 501.912C146.145 504.604 146.261 507.216 146.454 509.766C157.57 480.788 416.059 438.18 432.422 461.102Z" fill="black"/>
<path d="M163.095 342.152C163.161 341.245 163.033 340.335 162.717 339.482C162.402 338.629 161.908 337.854 161.269 337.208C160.629 336.563 159.858 336.061 159.008 335.738C158.158 335.415 157.249 335.278 156.342 335.336C156.004 335.349 155.668 335.391 155.337 335.462L115.575 344.444C114.687 344.66 113.853 345.059 113.128 345.616C112.403 346.174 111.803 346.876 111.366 347.68C110.783 347.701 110.204 347.786 109.639 347.931C108.402 348.211 107.232 348.733 106.196 349.465C105.16 350.198 104.278 351.127 103.602 352.201C102.925 353.274 102.467 354.47 102.252 355.72C102.038 356.971 102.072 358.251 102.352 359.489C102.633 360.726 103.154 361.896 103.887 362.932C104.619 363.968 105.549 364.849 106.622 365.526C108.79 366.892 111.411 367.342 113.91 366.775C115.333 366.445 116.663 365.802 117.805 364.891L131.279 402.832C131.952 404.021 132.992 404.96 134.243 405.509C135.494 406.058 136.889 406.188 138.22 405.878L164.069 400.036C165.389 399.727 166.578 399.007 167.464 397.98C168.35 396.953 168.887 395.672 168.999 394.32L163.095 342.152ZM113.314 364.074C111.529 364.477 109.657 364.155 108.109 363.18C106.561 362.205 105.463 360.656 105.056 358.872C104.648 357.089 104.965 355.216 105.936 353.666C106.907 352.115 108.453 351.013 110.236 350.6C110.361 350.569 110.487 350.6 110.613 350.569C110.603 351.713 110.896 352.84 111.461 353.835L116.391 362.441C115.533 363.255 114.469 363.82 113.314 364.074Z" fill="#2F2E41"/>
<path d="M156.342 335.336C156.719 340.361 148.114 346.14 136.587 348.433C126.002 350.6 116.517 349.093 113.848 345.135C114.384 344.817 114.967 344.584 115.575 344.444L155.337 335.462C155.668 335.391 156.004 335.349 156.342 335.336Z" fill="#3F3D56"/>
<path d="M128.844 462.905L151.177 451.738L132.566 401.487L127.661 376.145C127.024 372.853 125.534 369.785 123.339 367.249C121.145 364.713 118.324 362.797 115.157 361.693C111.991 360.589 108.59 360.335 105.295 360.958C101.999 361.58 98.9251 363.055 96.3789 365.238C92.6058 368.472 90.2367 373.045 89.7716 377.993C89.3066 382.941 90.7819 387.876 93.8863 391.756L112.094 414.515L128.844 462.905Z" fill="#A0616A"/>
<path d="M151.177 442.433L121.398 457.322L143.997 528.131C145.62 533.216 148.529 537.795 152.442 541.425C156.356 545.055 161.14 547.611 166.333 548.848C172.735 550.372 179.456 549.818 185.522 547.265C191.589 544.712 196.684 540.294 200.07 534.651L259.995 431.937C264.242 424.859 265.552 416.401 263.647 408.37C261.742 400.339 256.772 393.371 249.799 388.955C246.049 386.579 241.84 385.021 237.448 384.379C233.055 383.738 228.577 384.029 224.304 385.233C220.031 386.437 216.06 388.528 212.648 391.368C209.237 394.209 206.461 397.736 204.503 401.72L167.927 479.656L151.177 442.433Z" fill="#3F3D56"/>
<path d="M141.966 378.442C141.911 378.442 141.856 378.433 141.804 378.414L135.302 376.176C135.224 376.149 135.153 376.103 135.097 376.042C135.041 375.981 135.001 375.907 134.98 375.827C134.96 375.746 134.96 375.662 134.98 375.581C135 375.501 135.041 375.427 135.097 375.366L139.932 370.101C139.977 370.052 140.03 370.013 140.09 369.985C140.149 369.957 140.214 369.941 140.279 369.938C140.345 369.935 140.411 369.945 140.473 369.968C140.535 369.99 140.591 370.025 140.64 370.069C140.688 370.114 140.728 370.167 140.755 370.227C140.783 370.287 140.799 370.351 140.801 370.417C140.804 370.483 140.794 370.548 140.771 370.61C140.748 370.672 140.713 370.728 140.669 370.777L136.35 375.479L142.129 377.469C142.241 377.508 142.336 377.585 142.396 377.686C142.457 377.788 142.479 377.908 142.46 378.024C142.44 378.141 142.38 378.247 142.29 378.323C142.199 378.4 142.085 378.442 141.966 378.442Z" fill="#028ACC"/>
<path d="M150.878 376.617C150.778 376.617 150.681 376.587 150.598 376.532C150.515 376.476 150.451 376.397 150.414 376.305C150.377 376.212 150.368 376.111 150.388 376.014C150.409 375.916 150.458 375.827 150.53 375.758L154.924 371.509L149.021 369.076C148.96 369.051 148.905 369.015 148.858 368.968C148.812 368.922 148.775 368.867 148.749 368.806C148.724 368.746 148.711 368.681 148.711 368.615C148.711 368.549 148.724 368.484 148.749 368.423C148.774 368.363 148.81 368.307 148.857 368.261C148.903 368.214 148.958 368.178 149.019 368.152C149.08 368.127 149.145 368.114 149.211 368.114C149.276 368.114 149.341 368.127 149.402 368.152L156.011 370.876C156.088 370.908 156.156 370.958 156.208 371.022C156.261 371.086 156.297 371.163 156.312 371.244C156.328 371.326 156.323 371.41 156.298 371.489C156.273 371.568 156.228 371.64 156.169 371.697L151.225 376.477C151.132 376.567 151.007 376.617 150.878 376.617Z" fill="#028ACC"/>
<path d="M143.332 381.5C143.282 381.5 143.233 381.492 143.185 381.477C143.122 381.458 143.064 381.426 143.013 381.385C142.963 381.343 142.921 381.291 142.89 381.233C142.859 381.175 142.84 381.112 142.834 381.046C142.828 380.981 142.835 380.915 142.854 380.852L147.469 365.852C147.508 365.726 147.596 365.62 147.713 365.559C147.831 365.497 147.967 365.484 148.094 365.523C148.22 365.562 148.326 365.65 148.388 365.767C148.45 365.884 148.464 366.02 148.425 366.147L143.81 381.147C143.779 381.249 143.715 381.338 143.629 381.402C143.543 381.465 143.439 381.5 143.332 381.5Z" fill="#028ACC"/>
</g>
<defs>
<clipPath id="clip0_1958_708">
<rect width="578" height="578" fill="white"/>
</clipPath>
</defs>
</svg>
