<svg width="59" height="33" viewBox="0 0 59 33" fill="none" xmlns="http://www.w3.org/2000/svg">
<path d="M58.5854 32.4032L53.6627 24.0725L43.9796 7.57337L39.5438 0.0540955L34.0802 6.76194L31.2131 10.2781L22.5578 20.8809C21.0972 22.7742 18.8252 24.0184 16.2286 24.0184C11.8469 24.0184 8.2766 20.4481 8.2766 16.0664C8.2766 11.6846 11.7387 8.11432 16.1745 8.11432C20.6104 8.11432 24.1266 11.6846 24.1266 16.0664C24.1266 16.4991 24.0725 16.8778 24.0184 17.3106L30.6721 9.19623C28.0756 3.78668 22.5578 0 16.1204 0C7.24879 0 0 7.1947 0 16.1205C0 24.9921 7.24879 32.4032 16.1204 32.4032C21.2595 32.4032 25.8576 29.9148 28.7788 26.074L38.4078 14.2812L44.1419 24.0725L44.2501 24.2889H31.4295C31.4295 24.2889 31.4295 24.343 31.4836 24.3971C31.8081 25.3708 33.3769 31.9163 41.8158 32.4032H50.417H58.5854Z" fill="#2D81F7"/>
</svg>
