<svg width="168" height="181" viewBox="0 0 168 181" fill="none" xmlns="http://www.w3.org/2000/svg">
<path d="M0 155.466V181L168 180.997V176.935V157.784C168 150.24 164.991 143.856 164.991 143.276C164.991 142.812 159.307 136.119 156.466 132.83L145.934 127.607L129.385 120.063C125.206 117.935 116.747 113.68 116.346 113.68C115.945 113.68 109.493 107.489 106.316 104.394V95.6896C109.827 91.6273 111.331 80.0209 111.331 80.6012C111.331 81.1815 113.337 80.0241 114.842 78.8603C116.045 77.9292 117.684 69.1888 118.352 64.935L119.857 57.9687C121.06 53.3261 118.018 53.3278 116.346 53.9089C119.155 51.5876 118.854 39.3992 118.352 33.5952C118.352 26.1671 113.672 18.1199 111.331 15.0249C107.319 8.98954 101.301 5.15942 98.794 3.99878C97.791 2.25781 85.7552 0.517973 84.2507 0.517973C82.7463 0.517973 72.2149 -1.22299 67.2 1.67862C63.1881 3.9999 62.5194 7.28839 62.6866 8.64247H61.6836C57.6716 8.64247 54.3284 11.7375 53.1582 13.285C51.9546 15.1421 50.9851 21.4095 50.6507 24.3112C50.2496 27.561 50.1493 33.4029 50.1493 35.9176C50.1493 40.0959 51.4866 46.5568 52.1552 49.265L52.6567 53.9089C49.8484 52.5162 49.1463 55.263 49.1463 56.8105C49.1463 59.5961 49.8149 63.3875 50.1493 64.935C51.6537 73.6399 52.6567 73.0595 52.6567 73.6399C52.6567 74.1041 54.3284 78.0894 55.1642 80.0241C55.9666 80.9531 57.1702 80.4112 57.6716 80.0241V81.765C57.6716 84.0863 61.0149 91.2436 62.6866 94.5321C63.1881 98.2075 63.8902 105.674 62.6866 106.139C61.483 106.603 56.5015 111.361 54.1612 113.683C51.754 115.075 43.4627 119.679 39.6179 121.807C35.2048 122.271 25.7433 127.03 21.5642 129.351C15.5463 131.208 11.0328 134.768 9.52836 136.315C3.51045 139.565 0.668657 150.436 0 155.466Z" fill="#666666"/>
</svg>
